<svg width="110" height="40" viewBox="0 0 110 40" fill="none" xmlns="http://www.w3.org/2000/svg">
<g filter="url(#filter0_d)">
<path d="M6.41072 20.9161C6.62451 20.7486 7.11646 20.49 8.01541 20.1919C8.88173 19.9047 10.0143 19.6163 11.411 19.3348C14.2024 18.7725 17.9468 18.2582 22.5198 17.8252C31.6608 16.9595 43.3793 16.4873 55.4852 16.5003C67.5914 16.5132 79.2228 17.0105 88.2062 17.8953C92.7009 18.338 96.3491 18.8597 99.0335 19.4265C100.377 19.7103 101.45 19.9992 102.253 20.2839C103.098 20.5835 103.496 20.8281 103.629 20.9497" stroke="black" stroke-width="3" stroke-linecap="round"/>
<line x1="23.5" y1="30.5" x2="23.5" y2="3.5" stroke="#E72121" stroke-width="3" stroke-linecap="round"/>
<line x1="18.5" y1="28.5" x2="18.5" y2="6.5" stroke="black" stroke-width="3" stroke-linecap="round"/>
<line x1="13.5" y1="26.5" x2="13.5" y2="9.5" stroke="#E72121" stroke-width="3" stroke-linecap="round"/>
<line x1="8.5" y1="24.5" x2="8.5" y2="12.5" stroke="black" stroke-width="3" stroke-linecap="round"/>
<line x1="1.5" y1="-1.5" x2="28.5" y2="-1.5" transform="matrix(0 -1 -1 0 85 32)" stroke="#E72121" stroke-width="3" stroke-linecap="round"/>
<line x1="1.5" y1="-1.5" x2="23.5" y2="-1.5" transform="matrix(0 -1 -1 0 90 30)" stroke="black" stroke-width="3" stroke-linecap="round"/>
<line x1="1.5" y1="-1.5" x2="18.5" y2="-1.5" transform="matrix(0 -1 -1 0 95 28)" stroke="#E72121" stroke-width="3" stroke-linecap="round"/>
<line x1="1.5" y1="-1.5" x2="13.5" y2="-1.5" transform="matrix(0 -1 -1 0 100 26)" stroke="black" stroke-width="3" stroke-linecap="round"/>
<path d="M39.9902 8.00391C39.9902 8.05469 39.9766 8.10156 39.9492 8.14453C39.9219 8.18359 39.9141 8.23047 39.9258 8.28516C39.9102 8.3125 39.8887 8.33398 39.8613 8.34961C39.8379 8.36523 39.8301 8.39453 39.8379 8.4375C39.7559 8.48047 39.6797 8.53516 39.6094 8.60156C39.543 8.66406 39.4707 8.72461 39.3926 8.7832C39.3457 8.81836 39.3047 8.84375 39.2695 8.85938C39.2383 8.87109 39.1992 8.89062 39.1523 8.91797L39.0059 9.01172C38.9395 9.04688 38.8711 9.08203 38.8008 9.11719C38.7344 9.15234 38.6738 9.19727 38.6191 9.25195C38.5371 9.25586 38.4531 9.27734 38.3672 9.31641C38.2812 9.35938 38.1992 9.39648 38.1211 9.42773C38.0898 9.43945 38.0586 9.44727 38.0273 9.45117C37.9961 9.45898 37.9648 9.4707 37.9336 9.48633L37.8398 9.52734C37.7852 9.55469 37.7207 9.58203 37.6465 9.60938C37.5723 9.64062 37.5059 9.65625 37.4473 9.65625C37.4121 9.67188 37.3828 9.69922 37.3594 9.73828C37.2305 9.78125 37.0977 9.81445 36.9609 9.83789C36.8242 9.86133 36.6914 9.89844 36.5625 9.94922C36.5195 9.96875 36.4746 9.99414 36.4277 10.0254C36.3848 10.0605 36.3379 10.0762 36.2871 10.0723C36.2754 10.0918 36.2676 10.1152 36.2637 10.1426C36.2598 10.1699 36.2539 10.1973 36.2461 10.2246H36.2285C36.2129 10.2246 36.2051 10.2168 36.2051 10.2012C36.209 10.1855 36.2031 10.1777 36.1875 10.1777C36.1758 10.1777 36.168 10.1797 36.1641 10.1836C36.1133 10.1953 36.0645 10.2051 36.0176 10.2129C35.9746 10.2207 35.9258 10.2246 35.8711 10.2246C35.8398 10.2246 35.7891 10.2207 35.7188 10.2129C35.6523 10.2051 35.6035 10.1953 35.5723 10.1836C35.5488 10.1719 35.5293 10.1504 35.5137 10.1191C35.498 10.0879 35.4824 10.0547 35.4668 10.0195C35.4551 9.98438 35.4434 9.94727 35.4316 9.9082C35.4238 9.87305 35.416 9.84375 35.4082 9.82031C35.4199 9.77734 35.4395 9.74219 35.4668 9.71484C35.4941 9.6875 35.5156 9.65234 35.5312 9.60938C35.5664 9.60547 35.6016 9.59961 35.6367 9.5918C35.6719 9.58398 35.707 9.58203 35.7422 9.58594C35.8633 9.55078 35.9844 9.51562 36.1055 9.48047C36.2305 9.44922 36.3535 9.41602 36.4746 9.38086C36.5957 9.3457 36.7148 9.30664 36.832 9.26367C36.9492 9.2207 37.0625 9.16797 37.1719 9.10547H37.2949C37.3652 9.06641 37.4434 9.0332 37.5293 9.00586C37.6152 8.97852 37.6855 8.93359 37.7402 8.87109C37.8691 8.84375 38.0039 8.80664 38.1445 8.75977C38.2852 8.71289 38.4023 8.63867 38.4961 8.53711C38.5547 8.5293 38.6055 8.51562 38.6484 8.49609C38.6914 8.47266 38.7324 8.44922 38.7715 8.42578L38.8887 8.34961C38.9277 8.32227 38.9727 8.30078 39.0234 8.28516C39.0547 8.25391 39.084 8.2207 39.1113 8.18555C39.1387 8.15039 39.1719 8.12109 39.2109 8.09766C39.1992 8.03516 39.168 7.98828 39.1172 7.95703C39.0664 7.92578 39.0215 7.88867 38.9824 7.8457H38.8535C38.752 7.7832 38.6426 7.73633 38.5254 7.70508C38.4121 7.66992 38.2988 7.63281 38.1855 7.59375C38.1777 7.58984 38.168 7.58789 38.1562 7.58789C38.1289 7.58789 38.1113 7.59766 38.1035 7.61719C38.0996 7.63672 38.084 7.64453 38.0566 7.64062C38.0215 7.61719 37.9844 7.60352 37.9453 7.59961C37.9062 7.5918 37.8652 7.58789 37.8223 7.58789C37.7676 7.58789 37.7129 7.5918 37.6582 7.59961C37.6074 7.60352 37.5547 7.60547 37.5 7.60547C37.4727 7.60547 37.4453 7.60352 37.418 7.59961C37.3906 7.5957 37.3633 7.58594 37.3359 7.57031H37.2598C37.1777 7.57031 37.0957 7.57422 37.0137 7.58203C36.9355 7.58594 36.8574 7.58789 36.7793 7.58789C36.7363 7.58789 36.6953 7.58789 36.6562 7.58789C36.6172 7.58398 36.5781 7.57812 36.5391 7.57031C36.457 7.60938 36.3691 7.63672 36.2754 7.65234C36.1816 7.66797 36.084 7.67969 35.9824 7.6875C35.8848 7.69531 35.7871 7.70312 35.6895 7.71094C35.5918 7.71484 35.498 7.72461 35.4082 7.74023C35.3848 7.73633 35.3613 7.73438 35.3379 7.73438C35.3184 7.73047 35.2988 7.72852 35.2793 7.72852C35.2598 7.72852 35.2383 7.73047 35.2148 7.73438C35.1953 7.73438 35.1758 7.73633 35.1562 7.74023C35.1055 7.68555 35.043 7.64648 34.9688 7.62305C34.8984 7.5957 34.8281 7.57812 34.7578 7.57031C34.7031 7.50391 34.6621 7.4375 34.6348 7.37109C34.6113 7.30078 34.5957 7.22266 34.5879 7.13672H34.6113C34.6387 7.13672 34.6504 7.12305 34.6465 7.0957C34.6465 7.06836 34.6562 7.04492 34.6758 7.02539C34.6953 7.00195 34.7207 6.98633 34.752 6.97852C34.7871 6.9668 34.8203 6.95508 34.8516 6.94336C34.8828 6.93164 34.9121 6.91797 34.9395 6.90234C34.9707 6.88281 34.9941 6.85352 35.0098 6.81445H35.0859C35.1016 6.81445 35.1172 6.81641 35.1328 6.82031C35.1523 6.82031 35.168 6.82617 35.1797 6.83789C35.1953 6.82227 35.2148 6.80859 35.2383 6.79688C35.2617 6.78516 35.2832 6.77344 35.3027 6.76172C35.3262 6.75 35.3457 6.73633 35.3613 6.7207C35.377 6.70508 35.3867 6.68164 35.3906 6.65039C35.3945 6.66211 35.4043 6.66797 35.4199 6.66797C35.4355 6.66797 35.4492 6.66406 35.4609 6.65625C35.4766 6.64844 35.4941 6.64648 35.5137 6.65039C35.5332 6.5957 35.5664 6.56641 35.6133 6.5625C35.6602 6.55859 35.7031 6.54492 35.7422 6.52148C35.7695 6.50586 35.7949 6.48828 35.8184 6.46875C35.8418 6.44531 35.8672 6.42383 35.8945 6.4043L36.2461 6.13477L36.7852 5.72461C36.9648 5.58789 37.1484 5.46094 37.3359 5.34375C37.3438 5.32031 37.3555 5.30273 37.3711 5.29102C37.3867 5.2793 37.4023 5.26758 37.418 5.25586C37.4336 5.24023 37.4453 5.22461 37.4531 5.20898C37.4648 5.19336 37.4688 5.16992 37.4648 5.13867C37.5195 5.12695 37.5605 5.10547 37.5879 5.07422C37.6191 5.04297 37.6465 5.00977 37.6699 4.97461C37.6934 4.93555 37.7168 4.89844 37.7402 4.86328C37.7676 4.82422 37.8027 4.79492 37.8457 4.77539C37.8418 4.76367 37.8398 4.74609 37.8398 4.72266C37.8398 4.69141 37.8418 4.66016 37.8457 4.62891C37.8535 4.59766 37.8691 4.57031 37.8926 4.54688C37.8574 4.46484 37.7969 4.40625 37.7109 4.37109C37.625 4.33203 37.543 4.29883 37.4648 4.27148H37.4473C37.4277 4.27148 37.416 4.28125 37.4121 4.30078C37.4121 4.31641 37.4023 4.32812 37.3828 4.33594C37.3203 4.32031 37.25 4.3125 37.1719 4.3125C37.0938 4.3125 37.0156 4.31836 36.9375 4.33008C36.8633 4.3418 36.7871 4.34375 36.709 4.33594C36.6973 4.35156 36.6836 4.36719 36.668 4.38281C36.6562 4.39844 36.6406 4.41211 36.6211 4.42383C36.5391 4.42773 36.457 4.43945 36.375 4.45898L36.1289 4.51758L35.9941 4.54688C35.9746 4.55469 35.9609 4.56836 35.9531 4.58789C35.9453 4.60742 35.9395 4.62891 35.9355 4.65234C35.9121 4.64844 35.8965 4.63867 35.8887 4.62305C35.8848 4.60742 35.8711 4.5957 35.8477 4.58789C35.7578 4.64258 35.6602 4.6875 35.5547 4.72266C35.4531 4.75781 35.3613 4.8125 35.2793 4.88672C35.252 4.85547 35.2129 4.83984 35.1621 4.83984C35.1191 4.83984 35.0723 4.85352 35.0215 4.88086C34.9707 4.9082 34.9395 4.94336 34.9277 4.98633C34.8887 4.97852 34.8594 4.97461 34.8398 4.97461C34.7969 4.97461 34.7598 4.98633 34.7285 5.00977C34.7012 5.0332 34.6738 5.06055 34.6465 5.0918C34.6191 5.11914 34.5898 5.14648 34.5586 5.17383C34.5273 5.20117 34.4883 5.2168 34.4414 5.2207C34.4414 5.24023 34.4414 5.26172 34.4414 5.28516C34.4453 5.30469 34.4473 5.32617 34.4473 5.34961C34.4473 5.52539 34.4375 5.70117 34.418 5.87695C34.3984 6.04883 34.3887 6.22266 34.3887 6.39844C34.3887 6.4375 34.3906 6.47656 34.3945 6.51562C34.3984 6.55078 34.4004 6.58984 34.4004 6.63281C34.4004 6.64453 34.3906 6.66992 34.3711 6.70898C34.3555 6.74805 34.3438 6.77734 34.3359 6.79688C34.3516 6.83984 34.3574 6.88281 34.3535 6.92578C34.3535 6.96875 34.3633 7.00977 34.3828 7.04883C34.3477 7.08008 34.3301 7.12305 34.3301 7.17773C34.3301 7.20117 34.3301 7.22461 34.3301 7.24805C34.334 7.27148 34.3359 7.29492 34.3359 7.31836V7.38867C34.3242 7.4668 34.3164 7.54688 34.3125 7.62891C34.3086 7.70703 34.3066 7.78516 34.3066 7.86328C34.3066 7.89844 34.3066 7.95898 34.3066 8.04492C34.3105 8.12695 34.3164 8.2207 34.3242 8.32617C34.332 8.42773 34.3438 8.5332 34.3594 8.64258C34.375 8.75195 34.3945 8.85352 34.418 8.94727C34.4453 9.03711 34.4785 9.11133 34.5176 9.16992C34.5566 9.22852 34.6035 9.25781 34.6582 9.25781C34.6699 9.25781 34.6836 9.25586 34.6992 9.25195C34.7188 9.24805 34.7285 9.23828 34.7285 9.22266C34.7285 9.20703 34.7246 9.19336 34.7168 9.18164C34.7129 9.16992 34.7109 9.15625 34.7109 9.14062L34.7168 9.12891C34.748 9.14453 34.7812 9.1543 34.8164 9.1582C34.8555 9.16211 34.8945 9.16602 34.9336 9.16992C34.9727 9.17383 35.0098 9.17969 35.0449 9.1875C35.0801 9.19922 35.1113 9.2207 35.1387 9.25195C35.123 9.2832 35.1152 9.31641 35.1152 9.35156C35.1152 9.39844 35.127 9.44141 35.1504 9.48047C35.1738 9.52344 35.1895 9.56641 35.1973 9.60938C35.123 9.63281 35.0547 9.6582 34.9922 9.68555C34.9336 9.7168 34.875 9.74414 34.8164 9.76758C34.7578 9.79492 34.6953 9.81836 34.6289 9.83789C34.5625 9.86133 34.4863 9.87695 34.4004 9.88477C34.3457 9.84961 34.2988 9.81836 34.2598 9.79102C34.2207 9.76367 34.168 9.74609 34.1016 9.73828C34 9.60156 33.916 9.44727 33.8496 9.27539C33.7832 9.10742 33.7305 8.93164 33.6914 8.74805C33.6562 8.56445 33.6309 8.38086 33.6152 8.19727C33.6035 8.00977 33.5977 7.83398 33.5977 7.66992C33.5977 7.49023 33.6035 7.3125 33.6152 7.13672C33.6309 6.95703 33.6504 6.77734 33.6738 6.59766C33.6816 6.54297 33.6895 6.48828 33.6973 6.43359C33.7051 6.375 33.7129 6.31836 33.7207 6.26367C33.7285 6.24414 33.7344 6.22266 33.7383 6.19922C33.7461 6.17188 33.75 6.14844 33.75 6.12891C33.75 6.0625 33.748 5.99609 33.7441 5.92969C33.7402 5.86328 33.7383 5.79883 33.7383 5.73633C33.7383 5.63867 33.7441 5.53906 33.7559 5.4375C33.7598 5.41797 33.7656 5.39258 33.7734 5.36133C33.7852 5.33008 33.791 5.30273 33.791 5.2793C33.791 5.24805 33.7832 5.22656 33.7676 5.21484C33.752 5.20312 33.7383 5.18359 33.7266 5.15625C33.7383 5.11719 33.748 5.08008 33.7559 5.04492C33.7637 5.00586 33.7676 4.9668 33.7676 4.92773C33.7676 4.85352 33.7539 4.78906 33.7266 4.73438C33.7461 4.63281 33.7754 4.5332 33.8145 4.43555C33.8535 4.33789 33.9219 4.26367 34.0195 4.21289C34.0977 4.2168 34.1758 4.22461 34.2539 4.23633C34.3359 4.24805 34.4062 4.28125 34.4648 4.33594C34.4922 4.32031 34.5234 4.31055 34.5586 4.30664L34.6699 4.29492C34.709 4.29102 34.7441 4.28516 34.7754 4.27734C34.8066 4.26562 34.834 4.24414 34.8574 4.21289C34.9355 4.19727 35.0195 4.17578 35.1094 4.14844C35.1992 4.11719 35.2773 4.08203 35.3438 4.04297H35.4727C35.5 4.02344 35.5312 4.00977 35.5664 4.00195L35.6777 3.97266C35.7168 3.96094 35.752 3.94922 35.7832 3.9375C35.8184 3.92578 35.8457 3.90625 35.8652 3.87891H35.8887C35.9785 3.87891 36.0664 3.85938 36.1523 3.82031C36.2383 3.78125 36.3223 3.74609 36.4043 3.71484C36.4238 3.70703 36.4531 3.69336 36.4922 3.67383C36.5352 3.6543 36.5645 3.64453 36.5801 3.64453C36.6348 3.63672 36.6895 3.63281 36.7441 3.63281C36.7988 3.62891 36.8535 3.62109 36.9082 3.60938C37.0332 3.58984 37.1562 3.56836 37.2773 3.54492C37.4023 3.51758 37.5273 3.50391 37.6523 3.50391C37.6953 3.50391 37.7344 3.50586 37.7695 3.50977C37.8086 3.50977 37.8496 3.51172 37.8926 3.51562C37.8965 3.53125 37.9062 3.54492 37.9219 3.55664C37.9375 3.56445 37.9512 3.57227 37.9629 3.58008C37.9785 3.58789 37.9922 3.59961 38.0039 3.61523C38.0156 3.62695 38.0195 3.64453 38.0156 3.66797C38.0234 3.67578 38.0312 3.67969 38.0391 3.67969C38.0508 3.67969 38.0605 3.67383 38.0684 3.66211C38.0801 3.65039 38.0957 3.64453 38.1152 3.64453H38.1445C38.1953 3.69922 38.2441 3.75195 38.291 3.80273C38.3418 3.84961 38.4043 3.88867 38.4785 3.91992C38.5098 4.03711 38.5469 4.15234 38.5898 4.26562C38.6328 4.37891 38.6543 4.5 38.6543 4.62891C38.6543 4.70703 38.6426 4.7832 38.6191 4.85742C38.5645 4.88477 38.5254 4.92773 38.502 4.98633C38.4785 5.04492 38.457 5.10156 38.4375 5.15625C38.3281 5.21094 38.2363 5.2832 38.1621 5.37305C38.0879 5.46289 38.0117 5.55273 37.9336 5.64258H37.8398C37.8242 5.64258 37.8125 5.64844 37.8047 5.66016L37.752 5.71875C37.7168 5.75 37.6777 5.78125 37.6348 5.8125C37.5957 5.84375 37.5664 5.88477 37.5469 5.93555C37.4258 6.00195 37.3086 6.07617 37.1953 6.1582C37.0859 6.24023 36.9805 6.32617 36.8789 6.41602C36.8359 6.45117 36.793 6.49219 36.75 6.53906C36.707 6.58203 36.6641 6.61914 36.6211 6.65039C36.5977 6.66992 36.5703 6.6875 36.5391 6.70312C36.5117 6.71484 36.4863 6.73047 36.4629 6.75C36.4121 6.78906 36.3652 6.83008 36.3223 6.87305C36.2793 6.91211 36.2344 6.94922 36.1875 6.98438C36.3633 6.97656 36.541 6.97266 36.7207 6.97266C36.9004 6.96875 37.0781 6.96484 37.2539 6.96094C37.3438 6.96094 37.4316 6.95898 37.5176 6.95508C37.6035 6.94727 37.6914 6.94336 37.7812 6.94336C37.7969 6.94336 37.8105 6.94727 37.8223 6.95508C37.834 6.95898 37.8477 6.96289 37.8633 6.9668C37.9297 6.97852 37.9883 6.99219 38.0391 7.00781C38.2266 7.04297 38.4141 7.07422 38.6016 7.10156C38.7891 7.12891 38.9727 7.17383 39.1523 7.23633C39.2031 7.25586 39.2402 7.27734 39.2637 7.30078C39.291 7.32422 39.3379 7.33008 39.4043 7.31836C39.459 7.37305 39.5176 7.41602 39.5801 7.44727C39.6465 7.47852 39.7129 7.50586 39.7793 7.5293C39.8301 7.60742 39.877 7.68164 39.9199 7.75195C39.9668 7.82227 39.9902 7.90625 39.9902 8.00391ZM44.0156 5.60742C43.9922 5.64258 43.9785 5.68164 43.9746 5.72461C43.9707 5.76758 43.9688 5.80664 43.9688 5.8418C43.9688 5.88867 43.9688 5.93555 43.9688 5.98242C43.9727 6.02539 43.9746 6.06836 43.9746 6.11133V6.19922C43.9668 6.22656 43.9551 6.25391 43.9395 6.28125C43.9238 6.30859 43.9121 6.33594 43.9043 6.36328C43.8496 6.50781 43.8223 6.65234 43.8223 6.79688V6.80859C43.8027 6.85547 43.7832 6.89844 43.7637 6.9375C43.748 6.97656 43.7324 7.01562 43.7168 7.05469C43.7012 7.08984 43.6895 7.12891 43.6816 7.17188C43.6738 7.21094 43.6719 7.25781 43.6758 7.3125C43.6211 7.44922 43.5488 7.57422 43.459 7.6875C43.3691 7.79688 43.2812 7.91016 43.1953 8.02734C43.1133 8.05859 43.0371 8.09961 42.9668 8.15039C42.9004 8.20117 42.8359 8.25781 42.7734 8.32031C42.6523 8.35938 42.5332 8.4043 42.416 8.45508C42.2988 8.50586 42.1934 8.57422 42.0996 8.66016C42.0254 8.66797 41.9512 8.67969 41.877 8.69531C41.8027 8.71094 41.7305 8.73438 41.6602 8.76562H41.5898C41.5547 8.76562 41.5293 8.75781 41.5137 8.74219C41.4629 8.76953 41.4102 8.78906 41.3555 8.80078C41.3008 8.80859 41.2461 8.8125 41.1914 8.8125C41.1211 8.8125 41.0508 8.80859 40.9805 8.80078C40.9141 8.78906 40.8457 8.77734 40.7754 8.76562C40.7363 8.71094 40.6816 8.66992 40.6113 8.64258C40.541 8.61133 40.4785 8.58203 40.4238 8.55469C40.3105 8.39844 40.2285 8.24805 40.1777 8.10352C40.127 7.95508 40.0742 7.78906 40.0195 7.60547C40.0273 7.55078 40.041 7.49805 40.0605 7.44727C40.0801 7.39258 40.0879 7.33398 40.084 7.27148C40.1543 7.06836 40.2461 6.88477 40.3594 6.7207C40.4766 6.55273 40.6094 6.39258 40.7578 6.24023C40.7578 6.2168 40.7617 6.19727 40.7695 6.18164C40.7812 6.16602 40.7832 6.14258 40.7754 6.11133C40.7793 6.11523 40.7871 6.11719 40.7988 6.11719C40.8301 6.11719 40.8496 6.10938 40.8574 6.09375C40.8652 6.07422 40.8672 6.05273 40.8633 6.0293C41.0039 5.93945 41.1309 5.83594 41.2441 5.71875C41.3613 5.60156 41.4941 5.50391 41.6426 5.42578C41.6543 5.39062 41.6738 5.36133 41.7012 5.33789C41.7285 5.31445 41.75 5.28711 41.7656 5.25586C41.8906 5.2207 42.0039 5.16797 42.1055 5.09766C42.207 5.02734 42.3145 4.96484 42.4277 4.91016C42.4902 4.875 42.5488 4.85156 42.6035 4.83984C42.6621 4.82422 42.7246 4.80859 42.791 4.79297C42.8145 4.78516 42.8359 4.7793 42.8555 4.77539C42.875 4.77148 42.8965 4.76953 42.9199 4.76953C42.9902 4.76953 43.0586 4.7832 43.125 4.81055C43.1914 4.83398 43.2598 4.8457 43.3301 4.8457C43.3496 4.8457 43.3652 4.8457 43.377 4.8457C43.3926 4.8418 43.4082 4.83789 43.4238 4.83398C43.4902 4.91602 43.5742 4.97852 43.6758 5.02148C43.6992 5.08008 43.7266 5.13086 43.7578 5.17383C43.793 5.2168 43.8281 5.25977 43.8633 5.30273C43.8984 5.3418 43.9297 5.38672 43.957 5.4375C43.9883 5.48438 44.0078 5.54102 44.0156 5.60742ZM43.4297 5.91211C43.4297 5.89258 43.4277 5.875 43.4238 5.85938C43.3848 5.84766 43.3477 5.83203 43.3125 5.8125C43.2773 5.79297 43.2383 5.7832 43.1953 5.7832C43.168 5.7832 43.1406 5.78906 43.1133 5.80078C43.1094 5.77344 43.0977 5.75391 43.0781 5.74219C43.0625 5.73047 43.043 5.7207 43.0195 5.71289C43 5.70117 42.9785 5.69336 42.9551 5.68945C42.9355 5.68164 42.918 5.66992 42.9023 5.6543C42.8906 5.62305 42.877 5.5918 42.8613 5.56055C42.8496 5.52539 42.8262 5.5 42.791 5.48438C42.7559 5.51953 42.7148 5.54883 42.668 5.57227C42.6211 5.5918 42.5723 5.61133 42.5215 5.63086C42.4746 5.65039 42.4277 5.67383 42.3809 5.70117C42.3379 5.72852 42.3008 5.76172 42.2695 5.80078H42.1641C42.1406 5.84375 42.1074 5.87695 42.0645 5.90039C42.0215 5.91992 41.9844 5.94922 41.9531 5.98828C41.8906 6.01953 41.832 6.05859 41.7773 6.10547C41.7266 6.14844 41.6758 6.19531 41.625 6.24609C41.5742 6.29297 41.5234 6.3418 41.4727 6.39258C41.4258 6.44336 41.375 6.49023 41.3203 6.5332C41.2695 6.64258 41.2129 6.73828 41.1504 6.82031C41.0918 6.89844 41.0352 6.97852 40.9805 7.06055C40.9297 7.14258 40.8848 7.23242 40.8457 7.33008C40.8105 7.42383 40.793 7.54102 40.793 7.68164V7.74023C40.793 7.75977 40.7949 7.7793 40.7988 7.79883C40.8496 7.85352 40.8906 7.91211 40.9219 7.97461C40.957 8.03711 41.0137 8.08203 41.0918 8.10938C41.1699 8.14062 41.252 8.1543 41.3379 8.15039C41.4277 8.14648 41.5137 8.15625 41.5957 8.17969C41.7832 8.14453 41.9629 8.08789 42.1348 8.00977C42.3105 7.92773 42.4766 7.83008 42.6328 7.7168C42.6562 7.69727 42.6836 7.67773 42.7148 7.6582C42.7461 7.63477 42.7715 7.61133 42.791 7.58789C42.8105 7.56836 42.8262 7.54688 42.8379 7.52344C42.8535 7.5 42.8691 7.47852 42.8848 7.45898C42.916 7.4082 42.9512 7.35742 42.9902 7.30664C43.0293 7.25586 43.0703 7.20898 43.1133 7.16602C43.1328 7.08008 43.1582 6.99805 43.1895 6.91992C43.2207 6.83789 43.252 6.75781 43.2832 6.67969C43.3145 6.60156 43.3398 6.52148 43.3594 6.43945C43.3828 6.35742 43.3945 6.27148 43.3945 6.18164C43.3945 6.16211 43.3926 6.14062 43.3887 6.11719C43.3887 6.09375 43.3867 6.07227 43.3828 6.05273C43.4141 6.00977 43.4297 5.96289 43.4297 5.91211ZM48.1289 5.60742C48.1055 5.64258 48.0918 5.68164 48.0879 5.72461C48.084 5.76758 48.082 5.80664 48.082 5.8418C48.082 5.88867 48.082 5.93555 48.082 5.98242C48.0859 6.02539 48.0879 6.06836 48.0879 6.11133V6.19922C48.0801 6.22656 48.0684 6.25391 48.0527 6.28125C48.0371 6.30859 48.0254 6.33594 48.0176 6.36328C47.9629 6.50781 47.9355 6.65234 47.9355 6.79688V6.80859C47.916 6.85547 47.8965 6.89844 47.877 6.9375C47.8613 6.97656 47.8457 7.01562 47.8301 7.05469C47.8145 7.08984 47.8027 7.12891 47.7949 7.17188C47.7871 7.21094 47.7852 7.25781 47.7891 7.3125C47.7344 7.44922 47.6621 7.57422 47.5723 7.6875C47.4824 7.79688 47.3945 7.91016 47.3086 8.02734C47.2266 8.05859 47.1504 8.09961 47.0801 8.15039C47.0137 8.20117 46.9492 8.25781 46.8867 8.32031C46.7656 8.35938 46.6465 8.4043 46.5293 8.45508C46.4121 8.50586 46.3066 8.57422 46.2129 8.66016C46.1387 8.66797 46.0645 8.67969 45.9902 8.69531C45.916 8.71094 45.8438 8.73438 45.7734 8.76562H45.7031C45.668 8.76562 45.6426 8.75781 45.627 8.74219C45.5762 8.76953 45.5234 8.78906 45.4688 8.80078C45.4141 8.80859 45.3594 8.8125 45.3047 8.8125C45.2344 8.8125 45.1641 8.80859 45.0938 8.80078C45.0273 8.78906 44.959 8.77734 44.8887 8.76562C44.8496 8.71094 44.7949 8.66992 44.7246 8.64258C44.6543 8.61133 44.5918 8.58203 44.5371 8.55469C44.4238 8.39844 44.3418 8.24805 44.291 8.10352C44.2402 7.95508 44.1875 7.78906 44.1328 7.60547C44.1406 7.55078 44.1543 7.49805 44.1738 7.44727C44.1934 7.39258 44.2012 7.33398 44.1973 7.27148C44.2676 7.06836 44.3594 6.88477 44.4727 6.7207C44.5898 6.55273 44.7227 6.39258 44.8711 6.24023C44.8711 6.2168 44.875 6.19727 44.8828 6.18164C44.8945 6.16602 44.8965 6.14258 44.8887 6.11133C44.8926 6.11523 44.9004 6.11719 44.9121 6.11719C44.9434 6.11719 44.9629 6.10938 44.9707 6.09375C44.9785 6.07422 44.9805 6.05273 44.9766 6.0293C45.1172 5.93945 45.2441 5.83594 45.3574 5.71875C45.4746 5.60156 45.6074 5.50391 45.7559 5.42578C45.7676 5.39062 45.7871 5.36133 45.8145 5.33789C45.8418 5.31445 45.8633 5.28711 45.8789 5.25586C46.0039 5.2207 46.1172 5.16797 46.2188 5.09766C46.3203 5.02734 46.4277 4.96484 46.541 4.91016C46.6035 4.875 46.6621 4.85156 46.7168 4.83984C46.7754 4.82422 46.8379 4.80859 46.9043 4.79297C46.9277 4.78516 46.9492 4.7793 46.9688 4.77539C46.9883 4.77148 47.0098 4.76953 47.0332 4.76953C47.1035 4.76953 47.1719 4.7832 47.2383 4.81055C47.3047 4.83398 47.373 4.8457 47.4434 4.8457C47.4629 4.8457 47.4785 4.8457 47.4902 4.8457C47.5059 4.8418 47.5215 4.83789 47.5371 4.83398C47.6035 4.91602 47.6875 4.97852 47.7891 5.02148C47.8125 5.08008 47.8398 5.13086 47.8711 5.17383C47.9062 5.2168 47.9414 5.25977 47.9766 5.30273C48.0117 5.3418 48.043 5.38672 48.0703 5.4375C48.1016 5.48438 48.1211 5.54102 48.1289 5.60742ZM47.543 5.91211C47.543 5.89258 47.541 5.875 47.5371 5.85938C47.498 5.84766 47.4609 5.83203 47.4258 5.8125C47.3906 5.79297 47.3516 5.7832 47.3086 5.7832C47.2812 5.7832 47.2539 5.78906 47.2266 5.80078C47.2227 5.77344 47.2109 5.75391 47.1914 5.74219C47.1758 5.73047 47.1562 5.7207 47.1328 5.71289C47.1133 5.70117 47.0918 5.69336 47.0684 5.68945C47.0488 5.68164 47.0312 5.66992 47.0156 5.6543C47.0039 5.62305 46.9902 5.5918 46.9746 5.56055C46.9629 5.52539 46.9395 5.5 46.9043 5.48438C46.8691 5.51953 46.8281 5.54883 46.7812 5.57227C46.7344 5.5918 46.6855 5.61133 46.6348 5.63086C46.5879 5.65039 46.541 5.67383 46.4941 5.70117C46.4512 5.72852 46.4141 5.76172 46.3828 5.80078H46.2773C46.2539 5.84375 46.2207 5.87695 46.1777 5.90039C46.1348 5.91992 46.0977 5.94922 46.0664 5.98828C46.0039 6.01953 45.9453 6.05859 45.8906 6.10547C45.8398 6.14844 45.7891 6.19531 45.7383 6.24609C45.6875 6.29297 45.6367 6.3418 45.5859 6.39258C45.5391 6.44336 45.4883 6.49023 45.4336 6.5332C45.3828 6.64258 45.3262 6.73828 45.2637 6.82031C45.2051 6.89844 45.1484 6.97852 45.0938 7.06055C45.043 7.14258 44.998 7.23242 44.959 7.33008C44.9238 7.42383 44.9062 7.54102 44.9062 7.68164V7.74023C44.9062 7.75977 44.9082 7.7793 44.9121 7.79883C44.9629 7.85352 45.0039 7.91211 45.0352 7.97461C45.0703 8.03711 45.127 8.08203 45.2051 8.10938C45.2832 8.14062 45.3652 8.1543 45.4512 8.15039C45.541 8.14648 45.627 8.15625 45.709 8.17969C45.8965 8.14453 46.0762 8.08789 46.248 8.00977C46.4238 7.92773 46.5898 7.83008 46.7461 7.7168C46.7695 7.69727 46.7969 7.67773 46.8281 7.6582C46.8594 7.63477 46.8848 7.61133 46.9043 7.58789C46.9238 7.56836 46.9395 7.54688 46.9512 7.52344C46.9668 7.5 46.9824 7.47852 46.998 7.45898C47.0293 7.4082 47.0645 7.35742 47.1035 7.30664C47.1426 7.25586 47.1836 7.20898 47.2266 7.16602C47.2461 7.08008 47.2715 6.99805 47.3027 6.91992C47.334 6.83789 47.3652 6.75781 47.3965 6.67969C47.4277 6.60156 47.4531 6.52148 47.4727 6.43945C47.4961 6.35742 47.5078 6.27148 47.5078 6.18164C47.5078 6.16211 47.5059 6.14062 47.502 6.11719C47.502 6.09375 47.5 6.07227 47.4961 6.05273C47.5273 6.00977 47.543 5.96289 47.543 5.91211ZM53.5781 5.23242C53.5625 5.2832 53.5371 5.33008 53.502 5.37305L53.4023 5.49609C53.3711 5.53516 53.3438 5.57812 53.3203 5.625C53.3008 5.66797 53.2949 5.71875 53.3027 5.77734C53.2949 5.77734 53.2852 5.77734 53.2734 5.77734C53.2617 5.77344 53.252 5.77148 53.2441 5.77148C53.1816 5.77148 53.1328 5.78711 53.0977 5.81836C53.0664 5.8457 53.0234 5.86914 52.9688 5.88867C52.9609 5.86523 52.9512 5.84375 52.9395 5.82422C52.9277 5.80078 52.9102 5.78516 52.8867 5.77734C52.793 5.79688 52.6992 5.8125 52.6055 5.82422C52.5117 5.83203 52.418 5.84375 52.3242 5.85938C52.2812 5.86719 52.2383 5.87891 52.1953 5.89453C52.1523 5.90625 52.1074 5.91797 52.0605 5.92969C52.0371 5.9375 52.0117 5.94141 51.9844 5.94141C51.957 5.9375 51.9297 5.9375 51.9023 5.94141C51.8086 5.94531 51.707 5.95312 51.5977 5.96484C51.4883 5.97266 51.3906 6.00195 51.3047 6.05273C51.2656 6.04492 51.2246 6.03906 51.1816 6.03516C51.1387 6.03125 51.0957 6.0293 51.0527 6.0293C50.959 6.0293 50.8555 6.03906 50.7422 6.05859C50.6328 6.07422 50.5352 6.10742 50.4492 6.1582C50.4297 6.15039 50.4082 6.14453 50.3848 6.14062C50.3652 6.13672 50.3418 6.13477 50.3145 6.13477C50.3066 6.13477 50.3008 6.13672 50.2969 6.14062C50.293 6.14062 50.2871 6.14062 50.2793 6.14062C50.2754 6.17578 50.2793 6.21094 50.291 6.24609C50.3066 6.27734 50.332 6.30273 50.3672 6.32227C50.3516 6.36523 50.3438 6.41211 50.3438 6.46289C50.3438 6.5293 50.3477 6.5957 50.3555 6.66211C50.3672 6.72852 50.373 6.79492 50.373 6.86133C50.373 6.93555 50.3633 6.99414 50.3438 7.03711C50.3828 7.1543 50.4023 7.2793 50.4023 7.41211C50.4023 7.45898 50.3984 7.50586 50.3906 7.55273C50.3867 7.5957 50.3848 7.64258 50.3848 7.69336C50.3848 7.73633 50.4004 7.77148 50.4316 7.79883C50.4629 7.82227 50.4785 7.85547 50.4785 7.89844C50.4785 7.91406 50.4746 7.92969 50.4668 7.94531C50.5215 7.93359 50.5742 7.91797 50.625 7.89844C50.6758 7.875 50.7285 7.86328 50.7832 7.86328C50.8145 7.86328 50.8438 7.86914 50.8711 7.88086C50.9023 7.89258 50.9297 7.9082 50.9531 7.92773C50.9492 7.94727 50.9453 7.96875 50.9414 7.99219C50.9414 8.01562 50.9414 8.03906 50.9414 8.0625C50.9414 8.10547 50.9414 8.14648 50.9414 8.18555C50.9453 8.2207 50.9492 8.25977 50.9531 8.30273C50.9219 8.35742 50.8848 8.40625 50.8418 8.44922C50.8027 8.49219 50.7754 8.54688 50.7598 8.61328C50.7012 8.61328 50.6484 8.62695 50.6016 8.6543C50.5586 8.67773 50.5176 8.70508 50.4785 8.73633C50.4395 8.76367 50.4004 8.79102 50.3613 8.81836C50.3223 8.8418 50.2793 8.85352 50.2324 8.85352C50.1738 8.85352 50.1328 8.8457 50.1094 8.83008C50.0859 8.81055 50.0684 8.79102 50.0566 8.77148C50.0449 8.75195 50.0332 8.73438 50.0215 8.71875C50.0137 8.70312 49.9941 8.69727 49.9629 8.70117C49.9551 8.65039 49.9395 8.60352 49.916 8.56055C49.8926 8.51367 49.8672 8.46875 49.8398 8.42578C49.8164 8.38281 49.791 8.33984 49.7637 8.29688C49.7402 8.25 49.7227 8.20312 49.7109 8.15625C49.6875 8.05469 49.6777 7.94922 49.6816 7.83984C49.6855 7.73047 49.668 7.625 49.6289 7.52344C49.6367 7.46875 49.6426 7.41406 49.6465 7.35938C49.6504 7.30078 49.6523 7.24414 49.6523 7.18945C49.6523 7.08008 49.6484 6.97266 49.6406 6.86719C49.6367 6.75781 49.6328 6.64648 49.6289 6.5332C49.6016 6.49805 49.584 6.45898 49.5762 6.41602C49.5723 6.36914 49.5684 6.32422 49.5645 6.28125C49.5527 6.26953 49.5391 6.25781 49.5234 6.24609C49.5117 6.23438 49.5039 6.21875 49.5 6.19922C49.4688 6.19141 49.4453 6.1875 49.4297 6.1875C49.375 6.1875 49.3281 6.20117 49.2891 6.22852C49.2539 6.25195 49.2207 6.26367 49.1895 6.26367C49.1582 6.26367 49.1289 6.25977 49.1016 6.25195C49.0742 6.24414 49.0469 6.24023 49.0195 6.24023C48.9961 6.24023 48.9824 6.24609 48.9785 6.25781C48.9785 6.26562 48.9707 6.27344 48.9551 6.28125C48.9434 6.28906 48.916 6.29688 48.873 6.30469C48.8301 6.3125 48.7812 6.32031 48.7266 6.32812C48.6758 6.33203 48.625 6.33594 48.5742 6.33984C48.5273 6.34375 48.4961 6.3457 48.4805 6.3457C48.418 6.3457 48.3711 6.33398 48.3398 6.31055C48.3047 6.2832 48.2637 6.25391 48.2168 6.22266C48.2246 6.19922 48.2285 6.18359 48.2285 6.17578C48.2285 6.13672 48.2168 6.10547 48.1934 6.08203C48.1699 6.05469 48.1582 6.03125 48.1582 6.01172C48.1582 5.96875 48.1758 5.93555 48.2109 5.91211C48.2422 5.88867 48.2598 5.85156 48.2637 5.80078C48.3535 5.76172 48.4453 5.73242 48.5391 5.71289C48.6328 5.69336 48.7285 5.67773 48.8262 5.66602C48.9238 5.6543 49.0195 5.64062 49.1133 5.625C49.2109 5.60938 49.3066 5.58398 49.4004 5.54883C49.4277 5.55273 49.4531 5.55664 49.4766 5.56055C49.5039 5.56055 49.5312 5.56055 49.5586 5.56055C49.6758 5.56055 49.791 5.54883 49.9043 5.52539C50.0215 5.49805 50.1406 5.48438 50.2617 5.48438C50.293 5.48438 50.3242 5.48633 50.3555 5.49023C50.3867 5.49414 50.418 5.5 50.4492 5.50781C50.6055 5.48438 50.7598 5.45898 50.9121 5.43164C51.0684 5.4043 51.2285 5.38086 51.3926 5.36133C51.4707 5.35352 51.5469 5.34766 51.6211 5.34375C51.6992 5.33594 51.7773 5.32617 51.8555 5.31445C51.8828 5.31055 51.9023 5.30469 51.9141 5.29688C51.9297 5.28516 51.9375 5.26367 51.9375 5.23242C51.9727 5.24805 52.0117 5.25586 52.0547 5.25586C52.1211 5.25586 52.1855 5.24414 52.248 5.2207C52.3105 5.19727 52.375 5.18555 52.4414 5.18555C52.457 5.18555 52.4707 5.1875 52.4824 5.19141C52.4941 5.19141 52.5059 5.19141 52.5176 5.19141C52.5449 5.19141 52.5586 5.17969 52.5586 5.15625C52.5625 5.12891 52.582 5.11133 52.6172 5.10352C52.6445 5.0957 52.6836 5.08984 52.7344 5.08594C52.7852 5.08203 52.8379 5.07812 52.8926 5.07422C52.9512 5.06641 53.0039 5.05859 53.0508 5.05078C53.1016 5.03906 53.1387 5.02344 53.1621 5.00391L53.2031 4.93945C53.2734 4.94336 53.3242 4.97461 53.3555 5.0332C53.3906 5.08789 53.4102 5.14844 53.4141 5.21484C53.4297 5.23047 53.4512 5.23828 53.4785 5.23828C53.5098 5.23438 53.5371 5.23242 53.5605 5.23242H53.5781ZM57.4922 8.7832C57.4922 8.82227 57.4902 8.85156 57.4863 8.87109C57.4668 8.87891 57.4512 8.89062 57.4395 8.90625C57.4277 8.91797 57.4082 8.92188 57.3809 8.91797C57.373 8.97656 57.3535 9.02539 57.3223 9.06445C57.291 9.10352 57.2578 9.13867 57.2227 9.16992C57.1914 9.20508 57.1602 9.24023 57.1289 9.27539C57.0977 9.31445 57.0781 9.36328 57.0703 9.42188C57.0117 9.45312 56.9531 9.49414 56.8945 9.54492C56.8398 9.59961 56.791 9.63672 56.748 9.65625C56.7168 9.67188 56.6836 9.68359 56.6484 9.69141C56.6133 9.70312 56.5781 9.7168 56.543 9.73242C56.4297 9.7832 56.3125 9.83594 56.1914 9.89062C56.0742 9.94531 55.9512 9.97266 55.8223 9.97266H55.7812C55.7656 9.98828 55.7461 9.99805 55.7227 10.002C55.6992 10.0098 55.6758 10.0156 55.6523 10.0195C55.6289 10.0234 55.6055 10.0293 55.582 10.0371C55.5586 10.0449 55.541 10.0566 55.5293 10.0723C55.4863 10.0566 55.4395 10.0488 55.3887 10.0488H55.3477C55.2812 10.0645 55.2188 10.0762 55.1602 10.084C55.1016 10.0918 55.0391 10.0957 54.9727 10.0957C54.8555 10.0957 54.7383 10.0879 54.6211 10.0723C54.5039 10.0566 54.3867 10.043 54.2695 10.0312C54.1953 9.97266 54.1348 9.89844 54.0879 9.80859C54.041 9.72266 54.0176 9.63086 54.0176 9.5332C54.0176 9.45898 54.0332 9.38867 54.0645 9.32227C54.0957 9.25977 54.1367 9.20312 54.1875 9.15234H54.2051C54.2402 9.15234 54.2754 9.14453 54.3105 9.12891C54.3496 9.11328 54.3867 9.10547 54.4219 9.10547C54.4609 9.10547 54.4922 9.12109 54.5156 9.15234C54.543 9.18359 54.5625 9.2207 54.5742 9.26367C54.5898 9.30664 54.5996 9.34961 54.6035 9.39258C54.6074 9.43945 54.6094 9.47656 54.6094 9.50391C54.6523 9.52344 54.6973 9.53516 54.7441 9.53906C54.7949 9.54297 54.8457 9.54492 54.8965 9.54492C54.9473 9.54492 55.0039 9.54102 55.0664 9.5332C55.1289 9.5293 55.1914 9.51953 55.2539 9.50391C55.3203 9.49219 55.3828 9.47656 55.4414 9.45703C55.5039 9.4375 55.5566 9.41211 55.5996 9.38086C55.8145 9.36133 56.0039 9.3125 56.168 9.23438C56.332 9.15625 56.5059 9.06445 56.6895 8.95898C56.6973 8.91602 56.7129 8.88281 56.7363 8.85938C56.7637 8.83203 56.7773 8.79297 56.7773 8.74219C56.7773 8.73438 56.7754 8.72656 56.7715 8.71875C56.7715 8.70703 56.7715 8.69727 56.7715 8.68945C56.6934 8.5918 56.6113 8.50586 56.5254 8.43164C56.4434 8.35742 56.3359 8.30859 56.2031 8.28516C56.1875 8.25 56.1621 8.22461 56.127 8.20898C56.0918 8.18945 56.0547 8.17188 56.0156 8.15625C55.9766 8.14062 55.9395 8.125 55.9043 8.10938C55.8691 8.08984 55.8438 8.05859 55.8281 8.01562C55.7227 7.99609 55.6133 7.97266 55.5 7.94531C55.3906 7.91406 55.2969 7.85938 55.2188 7.78125C55.1562 7.77734 55.0957 7.76562 55.0371 7.74609C54.9824 7.72266 54.9277 7.70117 54.873 7.68164C54.8184 7.6582 54.7617 7.63867 54.7031 7.62305C54.6445 7.60352 54.584 7.59375 54.5215 7.59375C54.5059 7.56641 54.4844 7.54492 54.457 7.5293C54.4297 7.51367 54.3984 7.5 54.3633 7.48828C54.332 7.47656 54.3008 7.46484 54.2695 7.45312C54.2422 7.4375 54.2207 7.41602 54.2051 7.38867C54.1895 7.39258 54.1777 7.40039 54.1699 7.41211C54.1621 7.42383 54.1484 7.42969 54.1289 7.42969H54.1055C54.0977 7.40625 54.082 7.39062 54.0586 7.38281C54.0352 7.37109 54.0215 7.34961 54.0176 7.31836C53.9473 7.31445 53.8828 7.30078 53.8242 7.27734C53.7695 7.25391 53.7168 7.22852 53.666 7.20117C53.6191 7.16992 53.5703 7.14062 53.5195 7.11328C53.4688 7.08594 53.4121 7.06445 53.3496 7.04883C53.3105 7.01758 53.2734 6.98438 53.2383 6.94922C53.207 6.91016 53.166 6.89062 53.1152 6.89062C53.1035 6.89062 53.082 6.89453 53.0508 6.90234C53.043 6.83203 53.0137 6.7832 52.9629 6.75586C52.9121 6.72461 52.8574 6.69727 52.7988 6.67383C52.7598 6.57227 52.707 6.48242 52.6406 6.4043C52.5742 6.32617 52.502 6.25391 52.4238 6.1875C52.4316 6.16406 52.4355 6.14648 52.4355 6.13477C52.4355 6.0957 52.4258 6.0625 52.4062 6.03516C52.3867 6.00391 52.3652 5.97852 52.3418 5.95898C52.2871 5.7832 52.2598 5.61133 52.2598 5.44336C52.2598 5.20898 52.3125 4.99219 52.418 4.79297C52.5195 4.58984 52.6816 4.4375 52.9043 4.33594C52.9082 4.30469 52.918 4.27734 52.9336 4.25391C52.9531 4.23047 52.9648 4.20312 52.9688 4.17188C53.0039 4.17188 53.0312 4.16406 53.0508 4.14844C53.0703 4.13281 53.0879 4.11719 53.1035 4.10156C53.123 4.08203 53.1426 4.06445 53.1621 4.04883C53.1816 4.0332 53.207 4.02344 53.2383 4.01953C53.3867 3.89062 53.5449 3.78711 53.7129 3.70898C53.8809 3.62695 54.0527 3.54297 54.2285 3.45703C54.2637 3.44141 54.293 3.41211 54.3164 3.36914H54.3516C54.3906 3.36914 54.4199 3.36133 54.4395 3.3457C54.4629 3.32617 54.4961 3.32031 54.5391 3.32812C54.5547 3.30469 54.5742 3.28906 54.5977 3.28125C54.625 3.27344 54.6504 3.26758 54.6738 3.26367C54.7012 3.25586 54.7266 3.24609 54.75 3.23438C54.7734 3.22266 54.7891 3.20508 54.7969 3.18164H54.8379C54.9043 3.18164 54.9688 3.17188 55.0312 3.15234C55.0938 3.12891 55.1562 3.10352 55.2188 3.07617H55.2598C55.3379 3.07617 55.4102 3.0625 55.4766 3.03516C55.5469 3.00391 55.6211 2.98242 55.6992 2.9707C55.7305 2.96289 55.7617 2.96094 55.793 2.96484C55.8242 2.96875 55.8555 2.9707 55.8867 2.9707C55.9062 2.9707 55.9297 2.96875 55.957 2.96484C55.9844 2.96094 56.0039 2.94922 56.0156 2.92969H56.0273C56.0508 2.92969 56.0645 2.9375 56.0684 2.95312C56.0723 2.96875 56.084 2.97656 56.1035 2.97656C56.1309 2.97656 56.1582 2.97266 56.1855 2.96484C56.2129 2.95703 56.2402 2.95312 56.2676 2.95312C56.3848 2.95312 56.5 2.96484 56.6133 2.98828C56.7305 3.01172 56.8457 3.0332 56.959 3.05273C56.9668 3.09961 56.9863 3.13281 57.0176 3.15234C57.0527 3.17188 57.0898 3.18945 57.1289 3.20508V3.22852C57.1289 3.25977 57.1367 3.28516 57.1523 3.30469C57.1367 3.35938 57.1094 3.40039 57.0703 3.42773C57.0312 3.45508 56.9883 3.47852 56.9414 3.49805C56.9609 3.51367 56.9727 3.53516 56.9766 3.5625C56.9805 3.58984 56.9824 3.61523 56.9824 3.63867V3.70898L56.9531 3.70312C56.8906 3.70312 56.8594 3.73242 56.8594 3.79102C56.8086 3.75977 56.752 3.74023 56.6895 3.73242C56.6309 3.72461 56.5723 3.7207 56.5137 3.7207C56.4355 3.7207 56.3535 3.72461 56.2676 3.73242C56.1816 3.73633 56.0977 3.73438 56.0156 3.72656C55.9844 3.76562 55.9453 3.79492 55.8984 3.81445C55.8516 3.83008 55.8047 3.83789 55.7578 3.83789C55.707 3.83789 55.6582 3.82812 55.6113 3.80859C55.5645 3.78516 55.5312 3.75195 55.5117 3.70898C55.4922 3.70117 55.4746 3.69727 55.459 3.69727H55.4062C55.3438 3.69727 55.2812 3.70508 55.2188 3.7207C55.1602 3.73242 55.0996 3.74805 55.0371 3.76758C54.9746 3.7832 54.9121 3.80078 54.8496 3.82031C54.791 3.83594 54.7305 3.8457 54.668 3.84961C54.6445 3.88086 54.6133 3.90234 54.5742 3.91406C54.5352 3.92578 54.5039 3.94727 54.4805 3.97852C54.3984 3.99414 54.3242 4.02148 54.2578 4.06055C54.1914 4.0957 54.127 4.13477 54.0645 4.17773L53.8828 4.30078C53.8242 4.33984 53.7578 4.37305 53.6836 4.40039C53.6289 4.45898 53.5781 4.50586 53.5312 4.54102C53.4844 4.57617 53.4238 4.60742 53.3496 4.63477C53.3027 4.65039 53.2754 4.67383 53.2676 4.70508C53.2637 4.73633 53.248 4.76758 53.2207 4.79883C53.1973 4.82617 53.168 4.84766 53.1328 4.86328C53.1016 4.875 53.0742 4.89648 53.0508 4.92773C53.0312 4.95508 53.0156 4.98828 53.0039 5.02734C52.9961 5.0625 52.9863 5.09766 52.9746 5.13281C52.9629 5.16797 52.9492 5.20312 52.9336 5.23828C52.918 5.26953 52.8945 5.29688 52.8633 5.32031C52.8633 5.33594 52.8613 5.35156 52.8574 5.36719C52.8574 5.38281 52.8574 5.39648 52.8574 5.4082C52.8574 5.46289 52.8633 5.51953 52.875 5.57812C52.8906 5.63281 52.9004 5.6875 52.9043 5.74219C52.9824 5.87891 53.0742 6.00391 53.1797 6.11719C53.2852 6.22656 53.3984 6.32812 53.5195 6.42188C53.6406 6.51562 53.7656 6.60352 53.8945 6.68555C54.0273 6.76758 54.1582 6.84766 54.2871 6.92578C54.334 6.92188 54.377 6.92773 54.416 6.94336C54.4551 6.95508 54.4961 6.96289 54.5391 6.9668C54.5859 7.00195 54.6406 7.0293 54.7031 7.04883L54.8906 7.10742C54.9531 7.12695 55.0137 7.15039 55.0723 7.17773C55.1309 7.20117 55.1797 7.23438 55.2188 7.27734C55.2383 7.28125 55.2559 7.28711 55.2715 7.29492C55.2871 7.29883 55.3047 7.30078 55.3242 7.30078C55.3477 7.30078 55.3613 7.29297 55.3652 7.27734C55.541 7.34375 55.7129 7.41797 55.8809 7.5C56.0488 7.57812 56.2266 7.63867 56.4141 7.68164C56.4883 7.74414 56.5703 7.79883 56.6602 7.8457C56.75 7.89258 56.8398 7.94141 56.9297 7.99219C57.0195 8.03906 57.1055 8.0918 57.1875 8.15039C57.2695 8.20508 57.3418 8.27148 57.4043 8.34961C57.4121 8.42383 57.4277 8.49609 57.4512 8.56641C57.4785 8.63281 57.4922 8.70508 57.4922 8.7832ZM62.8535 5.23242C62.8379 5.2832 62.8125 5.33008 62.7773 5.37305L62.6777 5.49609C62.6465 5.53516 62.6191 5.57812 62.5957 5.625C62.5762 5.66797 62.5703 5.71875 62.5781 5.77734C62.5703 5.77734 62.5605 5.77734 62.5488 5.77734C62.5371 5.77344 62.5273 5.77148 62.5195 5.77148C62.457 5.77148 62.4082 5.78711 62.373 5.81836C62.3418 5.8457 62.2988 5.86914 62.2441 5.88867C62.2363 5.86523 62.2266 5.84375 62.2148 5.82422C62.2031 5.80078 62.1855 5.78516 62.1621 5.77734C62.0684 5.79688 61.9746 5.8125 61.8809 5.82422C61.7871 5.83203 61.6934 5.84375 61.5996 5.85938C61.5566 5.86719 61.5137 5.87891 61.4707 5.89453C61.4277 5.90625 61.3828 5.91797 61.3359 5.92969C61.3125 5.9375 61.2871 5.94141 61.2598 5.94141C61.2324 5.9375 61.2051 5.9375 61.1777 5.94141C61.084 5.94531 60.9824 5.95312 60.873 5.96484C60.7637 5.97266 60.666 6.00195 60.5801 6.05273C60.541 6.04492 60.5 6.03906 60.457 6.03516C60.4141 6.03125 60.3711 6.0293 60.3281 6.0293C60.2344 6.0293 60.1309 6.03906 60.0176 6.05859C59.9082 6.07422 59.8105 6.10742 59.7246 6.1582C59.7051 6.15039 59.6836 6.14453 59.6602 6.14062C59.6406 6.13672 59.6172 6.13477 59.5898 6.13477C59.582 6.13477 59.5762 6.13672 59.5723 6.14062C59.5684 6.14062 59.5625 6.14062 59.5547 6.14062C59.5508 6.17578 59.5547 6.21094 59.5664 6.24609C59.582 6.27734 59.6074 6.30273 59.6426 6.32227C59.627 6.36523 59.6191 6.41211 59.6191 6.46289C59.6191 6.5293 59.623 6.5957 59.6309 6.66211C59.6426 6.72852 59.6484 6.79492 59.6484 6.86133C59.6484 6.93555 59.6387 6.99414 59.6191 7.03711C59.6582 7.1543 59.6777 7.2793 59.6777 7.41211C59.6777 7.45898 59.6738 7.50586 59.666 7.55273C59.6621 7.5957 59.6602 7.64258 59.6602 7.69336C59.6602 7.73633 59.6758 7.77148 59.707 7.79883C59.7383 7.82227 59.7539 7.85547 59.7539 7.89844C59.7539 7.91406 59.75 7.92969 59.7422 7.94531C59.7969 7.93359 59.8496 7.91797 59.9004 7.89844C59.9512 7.875 60.0039 7.86328 60.0586 7.86328C60.0898 7.86328 60.1191 7.86914 60.1465 7.88086C60.1777 7.89258 60.2051 7.9082 60.2285 7.92773C60.2246 7.94727 60.2207 7.96875 60.2168 7.99219C60.2168 8.01562 60.2168 8.03906 60.2168 8.0625C60.2168 8.10547 60.2168 8.14648 60.2168 8.18555C60.2207 8.2207 60.2246 8.25977 60.2285 8.30273C60.1973 8.35742 60.1602 8.40625 60.1172 8.44922C60.0781 8.49219 60.0508 8.54688 60.0352 8.61328C59.9766 8.61328 59.9238 8.62695 59.877 8.6543C59.834 8.67773 59.793 8.70508 59.7539 8.73633C59.7148 8.76367 59.6758 8.79102 59.6367 8.81836C59.5977 8.8418 59.5547 8.85352 59.5078 8.85352C59.4492 8.85352 59.4082 8.8457 59.3848 8.83008C59.3613 8.81055 59.3438 8.79102 59.332 8.77148C59.3203 8.75195 59.3086 8.73438 59.2969 8.71875C59.2891 8.70312 59.2695 8.69727 59.2383 8.70117C59.2305 8.65039 59.2148 8.60352 59.1914 8.56055C59.168 8.51367 59.1426 8.46875 59.1152 8.42578C59.0918 8.38281 59.0664 8.33984 59.0391 8.29688C59.0156 8.25 58.998 8.20312 58.9863 8.15625C58.9629 8.05469 58.9531 7.94922 58.957 7.83984C58.9609 7.73047 58.9434 7.625 58.9043 7.52344C58.9121 7.46875 58.918 7.41406 58.9219 7.35938C58.9258 7.30078 58.9277 7.24414 58.9277 7.18945C58.9277 7.08008 58.9238 6.97266 58.916 6.86719C58.9121 6.75781 58.9082 6.64648 58.9043 6.5332C58.877 6.49805 58.8594 6.45898 58.8516 6.41602C58.8477 6.36914 58.8438 6.32422 58.8398 6.28125C58.8281 6.26953 58.8145 6.25781 58.7988 6.24609C58.7871 6.23438 58.7793 6.21875 58.7754 6.19922C58.7441 6.19141 58.7207 6.1875 58.7051 6.1875C58.6504 6.1875 58.6035 6.20117 58.5645 6.22852C58.5293 6.25195 58.4961 6.26367 58.4648 6.26367C58.4336 6.26367 58.4043 6.25977 58.377 6.25195C58.3496 6.24414 58.3223 6.24023 58.2949 6.24023C58.2715 6.24023 58.2578 6.24609 58.2539 6.25781C58.2539 6.26562 58.2461 6.27344 58.2305 6.28125C58.2188 6.28906 58.1914 6.29688 58.1484 6.30469C58.1055 6.3125 58.0566 6.32031 58.002 6.32812C57.9512 6.33203 57.9004 6.33594 57.8496 6.33984C57.8027 6.34375 57.7715 6.3457 57.7559 6.3457C57.6934 6.3457 57.6465 6.33398 57.6152 6.31055C57.5801 6.2832 57.5391 6.25391 57.4922 6.22266C57.5 6.19922 57.5039 6.18359 57.5039 6.17578C57.5039 6.13672 57.4922 6.10547 57.4688 6.08203C57.4453 6.05469 57.4336 6.03125 57.4336 6.01172C57.4336 5.96875 57.4512 5.93555 57.4863 5.91211C57.5176 5.88867 57.5352 5.85156 57.5391 5.80078C57.6289 5.76172 57.7207 5.73242 57.8145 5.71289C57.9082 5.69336 58.0039 5.67773 58.1016 5.66602C58.1992 5.6543 58.2949 5.64062 58.3887 5.625C58.4863 5.60938 58.582 5.58398 58.6758 5.54883C58.7031 5.55273 58.7285 5.55664 58.752 5.56055C58.7793 5.56055 58.8066 5.56055 58.834 5.56055C58.9512 5.56055 59.0664 5.54883 59.1797 5.52539C59.2969 5.49805 59.416 5.48438 59.5371 5.48438C59.5684 5.48438 59.5996 5.48633 59.6309 5.49023C59.6621 5.49414 59.6934 5.5 59.7246 5.50781C59.8809 5.48438 60.0352 5.45898 60.1875 5.43164C60.3438 5.4043 60.5039 5.38086 60.668 5.36133C60.7461 5.35352 60.8223 5.34766 60.8965 5.34375C60.9746 5.33594 61.0527 5.32617 61.1309 5.31445C61.1582 5.31055 61.1777 5.30469 61.1895 5.29688C61.2051 5.28516 61.2129 5.26367 61.2129 5.23242C61.248 5.24805 61.2871 5.25586 61.3301 5.25586C61.3965 5.25586 61.4609 5.24414 61.5234 5.2207C61.5859 5.19727 61.6504 5.18555 61.7168 5.18555C61.7324 5.18555 61.7461 5.1875 61.7578 5.19141C61.7695 5.19141 61.7812 5.19141 61.793 5.19141C61.8203 5.19141 61.834 5.17969 61.834 5.15625C61.8379 5.12891 61.8574 5.11133 61.8926 5.10352C61.9199 5.0957 61.959 5.08984 62.0098 5.08594C62.0605 5.08203 62.1133 5.07812 62.168 5.07422C62.2266 5.06641 62.2793 5.05859 62.3262 5.05078C62.377 5.03906 62.4141 5.02344 62.4375 5.00391L62.4785 4.93945C62.5488 4.94336 62.5996 4.97461 62.6309 5.0332C62.666 5.08789 62.6855 5.14844 62.6895 5.21484C62.7051 5.23047 62.7266 5.23828 62.7539 5.23828C62.7852 5.23438 62.8125 5.23242 62.8359 5.23242H62.8535ZM69.5273 7.98047C69.5195 8.03906 69.498 8.08398 69.4629 8.11523C69.4316 8.14648 69.3945 8.17578 69.3516 8.20312C69.332 8.19922 69.3125 8.19727 69.293 8.19727C69.2773 8.19336 69.2598 8.19141 69.2402 8.19141C69.1191 8.1875 69.0039 8.20312 68.8945 8.23828C68.7891 8.27344 68.6797 8.29883 68.5664 8.31445C68.5273 8.32227 68.4902 8.32617 68.4551 8.32617C68.4238 8.32227 68.3906 8.32422 68.3555 8.33203C68.2305 8.35156 68.0977 8.36719 67.957 8.37891C67.8164 8.39062 67.6758 8.40625 67.5352 8.42578C67.3945 8.44141 67.2559 8.46289 67.1191 8.49023C66.9863 8.51367 66.8613 8.54883 66.7441 8.5957C66.7324 8.58789 66.7207 8.58008 66.709 8.57227C66.6973 8.56055 66.6836 8.55469 66.668 8.55469C66.6289 8.55469 66.5918 8.56055 66.5566 8.57227C66.5215 8.58398 66.4863 8.58789 66.4512 8.58398C66.4121 8.60742 66.3691 8.625 66.3223 8.63672C66.2793 8.64453 66.2344 8.65234 66.1875 8.66016C66.1445 8.66406 66.1016 8.67188 66.0586 8.68359C66.0156 8.69531 65.9746 8.7168 65.9355 8.74805C65.9043 8.73242 65.8652 8.72461 65.8184 8.72461C65.7754 8.7207 65.7461 8.70508 65.7305 8.67773C65.6406 8.7207 65.5449 8.74805 65.4434 8.75977C65.3457 8.77148 65.2461 8.77539 65.1445 8.77148C65.0781 8.76758 65.002 8.75781 64.916 8.74219C64.8301 8.72656 64.7441 8.70508 64.6582 8.67773C64.5723 8.64648 64.4922 8.61133 64.418 8.57227C64.3438 8.5293 64.2871 8.47852 64.248 8.41992C64.2207 8.38086 64.2012 8.33789 64.1895 8.29102C64.1777 8.24414 64.1504 8.20898 64.1074 8.18555C64.1191 8.0957 64.1328 8.00781 64.1484 7.92188C64.1641 7.83594 64.1797 7.74805 64.1953 7.6582C64.2734 7.5918 64.3477 7.52148 64.418 7.44727C64.4883 7.37305 64.5547 7.29492 64.6172 7.21289C64.6914 7.17773 64.7598 7.13477 64.8223 7.08398C64.8887 7.0332 64.9531 6.98242 65.0156 6.93164C65.082 6.87695 65.1465 6.82422 65.209 6.77344C65.2754 6.72266 65.3457 6.67773 65.4199 6.63867C65.4316 6.61133 65.4473 6.58984 65.4668 6.57422C65.4902 6.55469 65.5137 6.53711 65.5371 6.52148C65.5605 6.50195 65.582 6.48242 65.6016 6.46289C65.6211 6.43945 65.6348 6.41211 65.6426 6.38086C65.7793 6.29883 65.8984 6.19531 66 6.07031C66.1016 5.94531 66.168 5.80469 66.1992 5.64844C66.1328 5.59375 66.0566 5.55859 65.9707 5.54297C65.8887 5.52344 65.8027 5.50977 65.7129 5.50195C65.6348 5.49805 65.5527 5.49805 65.4668 5.50195C65.3848 5.50586 65.3008 5.50391 65.2148 5.49609C65.1289 5.52344 65.0391 5.54102 64.9453 5.54883C64.8555 5.55664 64.7656 5.56445 64.6758 5.57227C64.5859 5.57617 64.4961 5.58789 64.4062 5.60742C64.3203 5.62305 64.2363 5.6543 64.1543 5.70117C64.1387 5.70117 64.123 5.69922 64.1074 5.69531C64.0957 5.69141 64.082 5.68945 64.0664 5.68945C63.9414 5.68555 63.8242 5.71094 63.7148 5.76562C63.6055 5.81641 63.498 5.86719 63.3926 5.91797C63.3848 5.93359 63.3809 5.94531 63.3809 5.95312C63.3809 5.97656 63.3848 6 63.3926 6.02344C63.4043 6.04297 63.4102 6.06445 63.4102 6.08789C63.4062 6.0918 63.4043 6.0957 63.4043 6.09961C63.4043 6.10352 63.4023 6.10742 63.3984 6.11133C63.3945 6.13086 63.3887 6.14844 63.3809 6.16406C63.377 6.17969 63.3711 6.19727 63.3633 6.2168C63.3203 6.3418 63.2969 6.46484 63.293 6.58594C63.2891 6.6875 63.2891 6.78711 63.293 6.88477C63.2969 6.98242 63.2969 7.08203 63.293 7.18359C63.2852 7.30859 63.2656 7.42578 63.2344 7.53516C63.2539 7.62891 63.2715 7.72852 63.2871 7.83398C63.3027 7.93555 63.3223 8.03711 63.3457 8.13867C63.3691 8.24023 63.3965 8.33984 63.4277 8.4375C63.4629 8.53125 63.5078 8.62109 63.5625 8.70703C63.5586 8.71484 63.5605 8.7207 63.5684 8.72461C63.5762 8.72852 63.584 8.73047 63.5918 8.73047H63.6387C63.6582 8.73047 63.666 8.73828 63.6621 8.75391C63.6699 8.76562 63.6758 8.77734 63.6797 8.78906C63.6836 8.79688 63.6914 8.80469 63.7031 8.8125C63.7109 8.82422 63.7109 8.83984 63.7031 8.85938C63.6992 8.9375 63.6797 9.00977 63.6445 9.07617C63.6094 9.14258 63.5879 9.21484 63.5801 9.29297C63.5332 9.30469 63.4902 9.31055 63.4512 9.31055C63.3848 9.30664 63.3262 9.28711 63.2754 9.25195C63.2246 9.2207 63.1777 9.18164 63.1348 9.13477C63.0918 9.08789 63.0508 9.04102 63.0117 8.99414C62.9727 8.94336 62.9297 8.90039 62.8828 8.86523C62.8555 8.75586 62.8281 8.63477 62.8008 8.50195C62.7773 8.36914 62.7363 8.25586 62.6777 8.16211C62.6934 8.12695 62.7012 8.08398 62.7012 8.0332C62.7051 7.95508 62.6973 7.87891 62.6777 7.80469C62.6621 7.72656 62.6582 7.64844 62.666 7.57031C62.666 7.52734 62.6699 7.48438 62.6777 7.44141C62.6895 7.39844 62.6973 7.35547 62.7012 7.3125C62.7051 7.24609 62.6973 7.18164 62.6777 7.11914C62.6621 7.05664 62.6562 6.99219 62.6602 6.92578C62.6641 6.89453 62.6699 6.86523 62.6777 6.83789C62.6895 6.80664 62.7051 6.7793 62.7246 6.75586C62.7051 6.70898 62.6992 6.66406 62.707 6.62109C62.7109 6.55469 62.7188 6.49219 62.7305 6.43359C62.7422 6.375 62.75 6.31641 62.7539 6.25781C62.7539 6.22656 62.752 6.19727 62.748 6.16992C62.7441 6.13867 62.7383 6.10938 62.7305 6.08203L62.6777 6.06445C62.6543 6.06445 62.6309 6.07031 62.6074 6.08203C62.5879 6.09375 62.5703 6.10742 62.5547 6.12305C62.5391 6.13867 62.5254 6.15234 62.5137 6.16406C62.502 6.17188 62.4902 6.17578 62.4785 6.17578C62.4707 6.17578 62.4609 6.17578 62.4492 6.17578C62.4414 6.17188 62.4336 6.16992 62.4258 6.16992C62.418 6.16992 62.4023 6.17773 62.3789 6.19336C62.3594 6.20898 62.334 6.22656 62.3027 6.24609C62.2754 6.26172 62.248 6.2793 62.2207 6.29883C62.1934 6.31445 62.1719 6.32422 62.1562 6.32812C62.1133 6.32031 62.0781 6.30664 62.0508 6.28711C62.0273 6.26367 62.0039 6.24219 61.9805 6.22266C61.9609 6.19922 61.9395 6.17969 61.916 6.16406C61.8926 6.14453 61.8633 6.13672 61.8281 6.14062C61.8164 6.11719 61.8105 6.0918 61.8105 6.06445C61.8066 6.03711 61.8066 6.00977 61.8105 5.98242V5.88867C61.8379 5.83789 61.875 5.79688 61.9219 5.76562C61.9648 5.73047 62.0117 5.70117 62.0625 5.67773L62.2148 5.60742C62.2656 5.58398 62.3125 5.55469 62.3555 5.51953H62.4082C62.4785 5.52344 62.5391 5.50977 62.5898 5.47852C62.6445 5.44727 62.6953 5.41211 62.7422 5.37305C62.7891 5.33008 62.8359 5.28711 62.8828 5.24414C62.9336 5.20117 62.9883 5.16797 63.0469 5.14453C63.0898 5.16406 63.1348 5.18164 63.1816 5.19727C63.2285 5.20898 63.2773 5.2168 63.3281 5.2207C63.3789 5.2207 63.4316 5.21289 63.4863 5.19727C63.541 5.18164 63.584 5.15234 63.6152 5.10938C63.6348 5.11719 63.6504 5.12305 63.6621 5.12695C63.6777 5.12695 63.6953 5.12695 63.7148 5.12695C63.7734 5.13086 63.832 5.12305 63.8906 5.10352C63.9492 5.08008 64.0059 5.05273 64.0605 5.02148C64.1387 5.02539 64.2148 5.02148 64.2891 5.00977C64.3672 4.99414 64.4434 4.97852 64.5176 4.96289C64.5957 4.94727 64.6719 4.93359 64.7461 4.92188C64.8242 4.90625 64.9023 4.90039 64.9805 4.9043C65.1094 4.9082 65.2363 4.89648 65.3613 4.86914C65.4863 4.8418 65.6133 4.83203 65.7422 4.83984C65.832 4.84375 65.9199 4.85156 66.0059 4.86328C66.0957 4.87109 66.1855 4.87305 66.2754 4.86914C66.3262 4.89258 66.3711 4.91406 66.4102 4.93359C66.4531 4.94922 66.5059 4.95312 66.5684 4.94531C66.6934 5.05078 66.8066 5.17383 66.9082 5.31445V5.41406C66.9043 5.50391 66.8887 5.5918 66.8613 5.67773C66.834 5.76367 66.8008 5.84961 66.7617 5.93555C66.7266 6.01758 66.6875 6.09961 66.6445 6.18164C66.6016 6.25977 66.5605 6.33789 66.5215 6.41602C66.2676 6.64648 66.0137 6.875 65.7598 7.10156C65.5059 7.32812 65.2441 7.54688 64.9746 7.75781C64.9668 7.79688 64.9551 7.83203 64.9395 7.86328C64.9277 7.89453 64.9199 7.92773 64.916 7.96289C64.916 7.98242 64.918 7.99805 64.9219 8.00977C64.9492 8.01758 64.9727 8.0332 64.9922 8.05664C65.0156 8.07617 65.0234 8.10352 65.0156 8.13867H65.0684C65.0879 8.13867 65.0977 8.14648 65.0977 8.16211L65.1914 8.16797C65.3398 8.17578 65.4883 8.17188 65.6367 8.15625C65.7852 8.14062 65.9336 8.12305 66.082 8.10352C66.2344 8.08398 66.3848 8.06641 66.5332 8.05078C66.6816 8.03125 66.8301 8.01953 66.9785 8.01562C67.0137 8.00391 67.0508 7.99414 67.0898 7.98633C67.1289 7.97852 67.1641 7.96289 67.1953 7.93945H67.2129C67.2402 7.93945 67.2598 7.94727 67.2715 7.96289C67.2871 7.97852 67.3086 7.98828 67.3359 7.99219C67.3555 7.99219 67.375 7.98828 67.3945 7.98047C67.418 7.97266 67.4414 7.9668 67.4648 7.96289C67.5195 7.94727 67.5762 7.9375 67.6348 7.93359C67.6973 7.92969 67.7578 7.92383 67.8164 7.91602C68.043 7.89648 68.2676 7.88477 68.4902 7.88086C68.7129 7.87305 68.9355 7.84375 69.1582 7.79297C69.1777 7.82031 69.2051 7.83984 69.2402 7.85156C69.2754 7.85938 69.3125 7.86914 69.3516 7.88086C69.3906 7.88867 69.4258 7.89844 69.457 7.91016C69.4922 7.92188 69.5156 7.94531 69.5273 7.98047ZM72.2227 8.57227C72.2109 8.62695 72.1855 8.67188 72.1465 8.70703C72.1113 8.73828 72.0684 8.76367 72.0176 8.7832C71.9668 8.80273 71.9141 8.81641 71.8594 8.82422C71.8086 8.82812 71.7617 8.83008 71.7188 8.83008C71.6992 8.83008 71.6797 8.83008 71.6602 8.83008C71.6445 8.82617 71.627 8.82422 71.6074 8.82422C71.5879 8.82422 71.5781 8.83398 71.5781 8.85352C71.5781 8.87305 71.5684 8.88672 71.5488 8.89453C71.5293 8.88672 71.5098 8.88086 71.4902 8.87695C71.4707 8.87305 71.4512 8.87109 71.4316 8.87109C71.4043 8.87109 71.377 8.87305 71.3496 8.87695C71.3262 8.88086 71.3027 8.88281 71.2793 8.88281C71.248 8.88281 71.2246 8.87891 71.209 8.87109C71.1973 8.86328 71.1855 8.85547 71.1738 8.84766C71.166 8.83594 71.1562 8.82422 71.1445 8.8125C71.1367 8.80078 71.123 8.79102 71.1035 8.7832C71.0762 8.77148 71.0527 8.76953 71.0332 8.77734C71.0176 8.78516 70.9922 8.77344 70.957 8.74219C70.9102 8.70312 70.8691 8.65625 70.834 8.60156C70.8027 8.54297 70.7715 8.48242 70.7402 8.41992C70.709 8.35742 70.6758 8.29492 70.6406 8.23242C70.6055 8.16992 70.5645 8.11523 70.5176 8.06836H70.4707C70.4004 8.06836 70.3516 8.09766 70.3242 8.15625C70.3047 8.14453 70.2852 8.13086 70.2656 8.11523C70.2461 8.0957 70.2246 8.08008 70.2012 8.06836C70.1113 8.0957 70.0176 8.11914 69.9199 8.13867C69.8223 8.1582 69.7246 8.16797 69.627 8.16797H69.5449C69.5215 8.16797 69.4961 8.16406 69.4688 8.15625C69.4297 8.17188 69.3945 8.19141 69.3633 8.21484C69.332 8.23438 69.2969 8.24414 69.2578 8.24414C69.2344 8.24414 69.207 8.23633 69.1758 8.2207C69.1523 8.2207 69.1406 8.23047 69.1406 8.25C69.1445 8.26953 69.1328 8.2793 69.1055 8.2793H69.0527C68.998 8.2793 68.9434 8.28125 68.8887 8.28516C68.8379 8.28906 68.7852 8.29102 68.7305 8.29102C68.6562 8.29102 68.5801 8.28125 68.502 8.26172C68.4824 8.27344 68.4609 8.2793 68.4375 8.2793C68.4219 8.28711 68.4102 8.30078 68.4023 8.32031C68.3945 8.33594 68.3867 8.35156 68.3789 8.36719C68.3711 8.37891 68.3594 8.39062 68.3438 8.40234C68.332 8.41016 68.3145 8.41211 68.291 8.4082C68.2832 8.45508 68.2637 8.49219 68.2324 8.51953C68.2012 8.54688 68.1855 8.58789 68.1855 8.64258C68.1426 8.66602 68.1074 8.69531 68.0801 8.73047C68.0527 8.76562 68.0254 8.80273 67.998 8.8418C67.9707 8.88086 67.9414 8.91797 67.9102 8.95312C67.8828 8.98828 67.8477 9.01562 67.8047 9.03516C67.7852 9.05859 67.7793 9.0957 67.7871 9.14648C67.7441 9.18164 67.6914 9.21289 67.6289 9.24023C67.5664 9.26758 67.5078 9.28125 67.4531 9.28125C67.3398 9.28125 67.2617 9.2207 67.2188 9.09961C67.2188 9.06055 67.2227 9.01953 67.2305 8.97656C67.2344 8.92969 67.2422 8.88672 67.2539 8.84766C67.2656 8.80469 67.2832 8.76758 67.3066 8.73633C67.3301 8.70117 67.3633 8.67578 67.4062 8.66016C67.4062 8.625 67.3945 8.60156 67.3711 8.58984C67.3477 8.57422 67.3379 8.54883 67.3418 8.51367C67.4473 8.46289 67.5391 8.39648 67.6172 8.31445C67.6953 8.23242 67.7656 8.14648 67.8281 8.05664C67.8945 7.96289 67.9609 7.86914 68.0273 7.77539C68.0938 7.68164 68.168 7.59766 68.25 7.52344V7.40039C68.3672 7.27539 68.4434 7.13477 68.4785 6.97852C68.5215 6.9707 68.5488 6.95117 68.5605 6.91992C68.5762 6.88867 68.584 6.85156 68.584 6.80859C68.6035 6.80859 68.6152 6.80078 68.6191 6.78516C68.627 6.76562 68.6445 6.75977 68.6719 6.76758C68.707 6.67383 68.7461 6.58789 68.7891 6.50977C68.832 6.43164 68.875 6.35352 68.918 6.27539C68.9609 6.19336 68.998 6.10938 69.0293 6.02344C69.0645 5.9375 69.0898 5.8418 69.1055 5.73633C69.1602 5.73242 69.1895 5.70703 69.1934 5.66016C69.2012 5.60938 69.209 5.56445 69.2168 5.52539C69.2754 5.4707 69.3184 5.40625 69.3457 5.33203C69.377 5.25781 69.4043 5.18164 69.4277 5.10352C69.4512 5.02148 69.4766 4.94141 69.5039 4.86328C69.5352 4.78125 69.5781 4.70898 69.6328 4.64648V4.62891C69.6328 4.60938 69.625 4.59766 69.6094 4.59375C69.5938 4.58594 69.5859 4.57227 69.5859 4.55273C69.5898 4.54883 69.5918 4.54492 69.5918 4.54102C69.6387 4.52148 69.6738 4.49023 69.6973 4.44727C69.7207 4.40039 69.7559 4.36719 69.8027 4.34766C69.8848 4.41406 69.957 4.45508 70.0195 4.4707C70.082 4.48242 70.1641 4.49219 70.2656 4.5C70.3164 4.55469 70.3438 4.62109 70.3477 4.69922C70.3555 4.77344 70.3691 4.84766 70.3887 4.92188C70.4199 5.04688 70.4531 5.16992 70.4883 5.29102C70.5273 5.4082 70.5566 5.5293 70.5762 5.6543C70.5879 5.72852 70.6094 5.79883 70.6406 5.86523C70.6719 5.93164 70.6934 6 70.7051 6.07031C70.7129 6.125 70.7129 6.1875 70.7051 6.25781C70.6973 6.32422 70.7051 6.38281 70.7285 6.43359L70.7695 6.52734C70.7891 6.57031 70.8047 6.61523 70.8164 6.66211C70.832 6.70898 70.8457 6.75586 70.8574 6.80273C70.8887 6.91992 70.916 7.04688 70.9395 7.18359C70.9668 7.31641 71.0078 7.4375 71.0625 7.54688C71.082 7.58594 71.1113 7.61328 71.1504 7.62891C71.1934 7.64453 71.2402 7.65625 71.291 7.66406C71.3418 7.66797 71.3906 7.66992 71.4375 7.66992C71.4883 7.66602 71.5312 7.66406 71.5664 7.66406H71.625C71.6484 7.66406 71.6719 7.66797 71.6953 7.67578C71.7109 7.70703 71.7188 7.73438 71.7188 7.75781C71.7188 7.80469 71.7031 7.8418 71.6719 7.86914C71.6406 7.89648 71.625 7.92773 71.625 7.96289C71.625 7.98242 71.6328 8.00391 71.6484 8.02734C71.6328 8.02344 71.6094 8.02148 71.5781 8.02148C71.4883 8.02148 71.4004 8.03711 71.3145 8.06836C71.3457 8.13477 71.3867 8.19141 71.4375 8.23828C71.4922 8.28125 71.5488 8.32227 71.6074 8.36133C71.6465 8.33008 71.6875 8.31445 71.7305 8.31445C71.7773 8.31445 71.8203 8.32617 71.8594 8.34961C71.9023 8.36914 71.9473 8.37891 71.9941 8.37891C72.0293 8.37891 72.0547 8.37305 72.0703 8.36133C72.1016 8.39648 72.127 8.43359 72.1465 8.47266C72.166 8.50781 72.1914 8.54102 72.2227 8.57227ZM70.3887 7.63477C70.3809 7.56836 70.3672 7.52148 70.3477 7.49414C70.332 7.46289 70.3184 7.42578 70.3066 7.38281C70.291 7.32812 70.2793 7.26953 70.2715 7.20703C70.2676 7.14453 70.2598 7.08398 70.248 7.02539C70.2207 6.89258 70.1895 6.75977 70.1543 6.62695C70.123 6.49414 70.082 6.36523 70.0312 6.24023C70.0469 6.2168 70.0547 6.19531 70.0547 6.17578V6.1582C70.0195 6.11914 69.9941 6.07227 69.9785 6.01758C69.9629 5.95898 69.9473 5.90234 69.9316 5.84766C69.9199 5.78906 69.9023 5.73633 69.8789 5.68945C69.8594 5.63867 69.8262 5.59766 69.7793 5.56641C69.7676 5.58984 69.7617 5.61719 69.7617 5.64844C69.7617 5.67578 69.7637 5.70117 69.7676 5.72461C69.7754 5.74805 69.7793 5.77344 69.7793 5.80078C69.7402 5.82031 69.7109 5.85156 69.6914 5.89453C69.6758 5.93359 69.6484 5.96484 69.6094 5.98828C69.5781 6.11328 69.5332 6.23242 69.4746 6.3457C69.416 6.45508 69.3535 6.56445 69.2871 6.67383C69.2246 6.7832 69.1641 6.89453 69.1055 7.00781C69.0469 7.11719 69 7.23242 68.9648 7.35352C68.9141 7.38867 68.8789 7.43359 68.8594 7.48828C68.8438 7.54297 68.8359 7.59766 68.8359 7.65234C68.8711 7.67188 68.9102 7.68359 68.9531 7.6875C69 7.6875 69.0449 7.6875 69.0879 7.6875C69.1309 7.6875 69.1719 7.69141 69.2109 7.69922C69.25 7.70703 69.2852 7.72656 69.3164 7.75781C69.3672 7.74219 69.4219 7.73242 69.4805 7.72852C69.543 7.7207 69.5938 7.70312 69.6328 7.67578C69.7109 7.70312 69.7949 7.7168 69.8848 7.7168C69.9316 7.7168 69.9766 7.71289 70.0195 7.70508C70.0664 7.69727 70.1113 7.6875 70.1543 7.67578C70.1895 7.68359 70.2168 7.69727 70.2363 7.7168C70.2559 7.73242 70.2852 7.73828 70.3242 7.73438C70.3438 7.71875 70.3555 7.70312 70.3594 7.6875C70.3633 7.66797 70.373 7.65039 70.3887 7.63477ZM76.752 5.74219C76.752 5.79688 76.75 5.85156 76.7461 5.90625C76.7422 5.96094 76.7363 6.01562 76.7285 6.07031C76.7012 6.10938 76.6738 6.14453 76.6465 6.17578C76.623 6.20312 76.6074 6.23828 76.5996 6.28125C76.5566 6.3125 76.5078 6.35547 76.4531 6.41016C76.4023 6.46484 76.3809 6.51953 76.3887 6.57422H76.3066C76.2598 6.64453 76.2051 6.70508 76.1426 6.75586C76.0801 6.80664 76.0137 6.85547 75.9434 6.90234L75.7383 7.03711C75.6719 7.08008 75.6094 7.13086 75.5508 7.18945C75.5195 7.19336 75.4941 7.19922 75.4746 7.20703C75.4551 7.21484 75.4297 7.2168 75.3984 7.21289C75.2773 7.29102 75.1504 7.35938 75.0176 7.41797C74.8887 7.47656 74.7578 7.53516 74.625 7.59375C74.4961 7.64844 74.3672 7.70703 74.2383 7.76953C74.1094 7.83203 73.9863 7.9043 73.8691 7.98633C73.8574 7.98242 73.8418 7.98047 73.8223 7.98047C73.7871 7.98047 73.752 7.98633 73.7168 7.99805C73.6816 8.00586 73.6465 8.00977 73.6113 8.00977C73.5957 8.00977 73.5742 8.00781 73.5469 8.00391C73.5234 8 73.5059 7.99414 73.4941 7.98633C73.4746 7.97461 73.457 7.95703 73.4414 7.93359C73.4258 7.91016 73.4141 7.88477 73.4062 7.85742C73.3984 7.82617 73.3926 7.79688 73.3887 7.76953C73.3848 7.74219 73.3828 7.71875 73.3828 7.69922C73.3828 7.67578 73.3848 7.65039 73.3887 7.62305C73.3926 7.5957 73.3984 7.57031 73.4062 7.54688C73.5195 7.53906 73.6328 7.50977 73.7461 7.45898C73.8633 7.4082 73.9746 7.35938 74.0801 7.3125C74.1074 7.30078 74.1289 7.28711 74.1445 7.27148C74.1641 7.25195 74.1836 7.23633 74.2031 7.22461C74.2227 7.20898 74.2441 7.19531 74.2676 7.18359C74.291 7.17188 74.3203 7.16602 74.3555 7.16602H74.373C74.6191 7.05273 74.8594 6.92969 75.0938 6.79688C75.332 6.66406 75.5684 6.5293 75.8027 6.39258C75.8145 6.35742 75.832 6.32227 75.8555 6.28711C75.8828 6.25195 75.9082 6.21875 75.9316 6.1875C75.9551 6.15234 75.9766 6.11719 75.9961 6.08203C76.0156 6.04688 76.0254 6.01172 76.0254 5.97656C76.0254 5.90625 75.9922 5.84766 75.9258 5.80078H75.9023C75.8555 5.80078 75.8145 5.79492 75.7793 5.7832C75.7441 5.76758 75.7109 5.75391 75.6797 5.74219C75.6484 5.72656 75.6133 5.71484 75.5742 5.70703C75.5352 5.69531 75.4902 5.69141 75.4395 5.69531C75.4199 5.67969 75.3887 5.66602 75.3457 5.6543C75.3027 5.64258 75.2676 5.63672 75.2402 5.63672C75.0996 5.63672 74.9609 5.64648 74.8242 5.66602C74.6875 5.68164 74.5508 5.69141 74.4141 5.69531C74.3789 5.71484 74.3457 5.73242 74.3145 5.74805C74.2832 5.76367 74.2461 5.77148 74.2031 5.77148C74.1836 5.77148 74.166 5.77148 74.1504 5.77148C74.1348 5.76758 74.1172 5.76367 74.0977 5.75977C74.0234 5.79102 73.9395 5.81836 73.8457 5.8418C73.752 5.86133 73.6582 5.88672 73.5645 5.91797C73.4746 5.94531 73.3906 5.98047 73.3125 6.02344C73.2344 6.06641 73.1738 6.125 73.1309 6.19922C73.1309 6.21875 73.1348 6.23633 73.1426 6.25195C73.1504 6.26367 73.1543 6.2793 73.1543 6.29883V6.32227C73.1309 6.3457 73.1152 6.37305 73.1074 6.4043C73.0996 6.43164 73.0938 6.46094 73.0898 6.49219C73.0859 6.51953 73.0801 6.54883 73.0723 6.58008C73.0684 6.60742 73.0547 6.63477 73.0312 6.66211C73.0469 6.7207 73.0547 6.78516 73.0547 6.85547C73.0547 6.93359 73.0488 7.01172 73.0371 7.08984C73.0293 7.16797 73.0254 7.24609 73.0254 7.32422C73.0254 7.39844 73.0332 7.46484 73.0488 7.52344C73.0254 7.54688 73.0156 7.58203 73.0195 7.62891C73.0234 7.67578 73.0137 7.71094 72.9902 7.73438C72.9902 7.76562 72.998 7.78711 73.0137 7.79883C73.0332 7.81055 73.0449 7.83008 73.0488 7.85742C73.0332 7.92383 73.0254 7.99609 73.0254 8.07422C73.0254 8.1875 73.0371 8.30273 73.0605 8.41992C73.0879 8.53711 73.1191 8.65234 73.1543 8.76562C73.2168 8.74609 73.2832 8.73047 73.3535 8.71875C73.4277 8.70312 73.498 8.69531 73.5645 8.69531C73.5762 8.69531 73.5879 8.69727 73.5996 8.70117C73.6113 8.70117 73.623 8.70117 73.6348 8.70117C73.6426 8.74414 73.6582 8.7832 73.6816 8.81836C73.7051 8.85352 73.7266 8.89258 73.7461 8.93555C73.7266 8.96289 73.709 8.98438 73.6934 9C73.6816 9.01953 73.6758 9.04492 73.6758 9.07617C73.6211 9.08008 73.5762 9.09375 73.541 9.11719C73.5059 9.14453 73.4668 9.17383 73.4238 9.20508H73.4004C73.334 9.20508 73.2793 9.2168 73.2363 9.24023C73.1934 9.26758 73.1445 9.29688 73.0898 9.32812C73.043 9.30859 72.9961 9.29883 72.9492 9.29883C72.8984 9.29883 72.8477 9.30859 72.7969 9.32812C72.7344 9.30078 72.6836 9.25781 72.6445 9.19922C72.6055 9.14453 72.5723 9.08203 72.5449 9.01172C72.5176 8.94531 72.4922 8.87695 72.4688 8.80664C72.4492 8.73633 72.4258 8.67188 72.3984 8.61328V8.51953C72.3984 8.42969 72.3906 8.34375 72.375 8.26172C72.3633 8.17578 72.3574 8.08789 72.3574 7.99805C72.3574 7.96289 72.3594 7.92578 72.3633 7.88672C72.3711 7.84766 72.3828 7.81055 72.3984 7.77539C72.3906 7.74023 72.3867 7.70703 72.3867 7.67578V7.56445C72.3867 7.44727 72.3906 7.33008 72.3984 7.21289C72.4102 7.0957 72.416 6.97852 72.416 6.86133C72.416 6.77539 72.4102 6.6875 72.3984 6.59766C72.3789 6.60547 72.3613 6.61328 72.3457 6.62109C72.3301 6.62891 72.3125 6.63281 72.293 6.63281C72.2734 6.63281 72.2539 6.63086 72.2344 6.62695C72.2188 6.62305 72.2031 6.61914 72.1875 6.61523C72.1484 6.58008 72.1211 6.53711 72.1055 6.48633C72.0898 6.43555 72.0684 6.38867 72.041 6.3457C72.041 6.27148 72.0527 6.21094 72.0762 6.16406C72.0957 6.11328 72.1211 6.06836 72.1523 6.0293C72.1836 5.98633 72.2148 5.94531 72.2461 5.90625C72.2812 5.86719 72.3105 5.81836 72.334 5.75977H72.3574C72.4199 5.75977 72.4824 5.74023 72.5449 5.70117C72.6074 5.6582 72.6777 5.63672 72.7559 5.63672C72.7832 5.60156 72.8203 5.57227 72.8672 5.54883C72.9141 5.52148 72.9629 5.5 73.0137 5.48438C73.0684 5.46875 73.1211 5.45898 73.1719 5.45508C73.2266 5.44727 73.2773 5.44336 73.3242 5.44336C73.3398 5.41602 73.3633 5.39844 73.3945 5.39062C73.4258 5.37891 73.457 5.36914 73.4883 5.36133C73.5234 5.34961 73.5547 5.33984 73.582 5.33203C73.6133 5.32031 73.6387 5.30078 73.6582 5.27344C73.6895 5.28125 73.7188 5.28516 73.7461 5.28516C73.7969 5.28516 73.8457 5.2793 73.8926 5.26758C73.9395 5.25195 73.9863 5.23633 74.0332 5.2207C74.0801 5.20117 74.127 5.18359 74.1738 5.16797C74.2246 5.15234 74.2773 5.14453 74.332 5.14453C74.3516 5.14453 74.3711 5.14648 74.3906 5.15039C74.4102 5.15039 74.4297 5.15039 74.4492 5.15039C74.4805 5.15039 74.498 5.13867 74.502 5.11523C74.5098 5.0918 74.5234 5.07422 74.543 5.0625C74.5547 5.06641 74.5762 5.06836 74.6074 5.06836C74.6855 5.06836 74.7617 5.0625 74.8359 5.05078C74.9102 5.03516 74.9863 5.02734 75.0645 5.02734C75.0996 5.02734 75.1348 5.0293 75.1699 5.0332C75.2051 5.03711 75.2402 5.04688 75.2754 5.0625C75.2832 5.05078 75.291 5.04102 75.2988 5.0332C75.3066 5.02539 75.3125 5.01562 75.3164 5.00391C75.5078 5.01562 75.6875 5.05469 75.8555 5.12109C76.0273 5.1875 76.2051 5.24609 76.3887 5.29688C76.4121 5.33203 76.4395 5.36328 76.4707 5.39062L76.5703 5.47266C76.6055 5.5 76.6387 5.52734 76.6699 5.55469C76.7012 5.58203 76.7285 5.61523 76.752 5.6543V5.74219Z" fill="black"/>
<path d="M54.4844 27.2695C54.4766 27.3164 54.4629 27.3691 54.4434 27.4277C54.4277 27.4863 54.4043 27.541 54.373 27.5918C54.3457 27.6387 54.3105 27.6797 54.2676 27.7148C54.2246 27.7461 54.1738 27.7617 54.1152 27.7617C54.0723 27.7617 54.0293 27.7578 53.9863 27.75C53.9434 27.7383 53.8984 27.7324 53.8516 27.7324C53.832 27.7324 53.8105 27.7402 53.7871 27.7559C53.7676 27.7676 53.748 27.7734 53.7285 27.7734C53.709 27.7734 53.6914 27.7715 53.6758 27.7676C53.6641 27.7598 53.6484 27.7559 53.6289 27.7559C53.6172 27.7559 53.5957 27.7598 53.5645 27.7676C53.5332 27.7754 53.5 27.7832 53.4648 27.791C53.4297 27.7988 53.3965 27.8086 53.3652 27.8203C53.334 27.8281 53.3125 27.834 53.3008 27.8379C53.1953 27.873 53.0898 27.9043 52.9844 27.9316C52.8789 27.959 52.7695 27.9766 52.6562 27.9844C52.6328 27.9766 52.5977 27.9688 52.5508 27.9609C52.5039 27.9492 52.4688 27.9434 52.4453 27.9434C52.3984 27.9434 52.3672 27.9629 52.3516 28.002C52.3398 28.041 52.3145 28.0703 52.2754 28.0898C52.2285 28.1172 52.1699 28.1328 52.0996 28.1367C52.0293 28.1406 51.959 28.1465 51.8887 28.1543C51.8184 28.1621 51.752 28.1777 51.6895 28.2012C51.6309 28.2207 51.5879 28.2598 51.5605 28.3184C51.541 28.3145 51.5195 28.3125 51.4961 28.3125C51.4766 28.3086 51.4551 28.3066 51.4316 28.3066C51.3066 28.3066 51.1895 28.332 51.0801 28.3828C50.9707 28.4297 50.8594 28.4727 50.7461 28.5117C50.7656 28.5469 50.7793 28.5898 50.7871 28.6406C50.7949 28.6914 50.8027 28.7422 50.8105 28.793C50.8184 28.8398 50.8281 28.8867 50.8398 28.9336C50.8555 28.9766 50.8809 29.0098 50.916 29.0332C50.916 29.0566 50.9102 29.0762 50.8984 29.0918C50.8906 29.1074 50.8809 29.1211 50.8691 29.1328L50.8281 29.1738C50.8164 29.1855 50.8086 29.2031 50.8047 29.2266C50.793 29.2734 50.7871 29.3223 50.7871 29.373C50.7871 29.4199 50.7598 29.4551 50.7051 29.4785C50.709 29.4902 50.7109 29.5117 50.7109 29.543C50.7109 29.582 50.7051 29.6191 50.6934 29.6543C50.6816 29.6895 50.6777 29.7285 50.6816 29.7715C50.6152 29.8457 50.5586 29.9219 50.5117 30C50.4688 30.0781 50.4355 30.1621 50.4121 30.252C50.2676 30.3965 50.1191 30.541 49.9668 30.6855C49.8184 30.834 49.6641 30.9766 49.5039 31.1133C49.3477 31.25 49.1855 31.3789 49.0176 31.5C48.8496 31.625 48.6758 31.7344 48.4961 31.8281H48.4551C48.3652 31.8281 48.2949 31.8438 48.2441 31.875C48.1934 31.9062 48.1289 31.9336 48.0508 31.957C47.9922 31.9414 47.9219 31.9336 47.8398 31.9336C47.793 31.9336 47.7441 31.9355 47.6934 31.9395C47.6465 31.9434 47.5977 31.9453 47.5469 31.9453C47.4805 31.9453 47.4199 31.9375 47.3652 31.9219C47.3145 31.9062 47.2637 31.8887 47.2129 31.8691C47.166 31.8496 47.1172 31.8301 47.0664 31.8105C47.0156 31.791 46.9609 31.7773 46.9023 31.7695C46.6602 31.5273 46.4688 31.2441 46.3281 30.9199C46.1875 30.5996 46.1172 30.2695 46.1172 29.9297C46.1172 29.7734 46.1387 29.6211 46.1816 29.4727C46.2246 29.3203 46.2461 29.168 46.2461 29.0156C46.3164 28.875 46.377 28.7305 46.4277 28.582C46.4824 28.4336 46.5371 28.2852 46.5918 28.1367C46.6465 27.9883 46.7051 27.8438 46.7676 27.7031C46.834 27.5586 46.9121 27.4219 47.002 27.293C47.0215 27.1914 47.0527 27.1035 47.0957 27.0293C47.1387 26.9551 47.1855 26.873 47.2363 26.7832C47.2363 26.6973 47.2539 26.6191 47.2891 26.5488C47.3281 26.4746 47.3516 26.3926 47.3594 26.3027C47.4219 26.2441 47.4727 26.1777 47.5117 26.1035C47.5508 26.0293 47.5879 25.9531 47.623 25.875C47.6582 25.7969 47.6973 25.7227 47.7402 25.6523C47.7871 25.5781 47.8496 25.5156 47.9277 25.4648C47.9355 25.4375 47.9395 25.4082 47.9395 25.377C47.9434 25.3418 47.9531 25.3145 47.9688 25.2949L48.0918 25.1602C48.1309 25.1094 48.166 25.0586 48.1973 25.0078C48.2324 24.9531 48.2695 24.9043 48.3086 24.8613C48.332 24.8379 48.3574 24.8184 48.3848 24.8027C48.4121 24.7871 48.4355 24.7695 48.4551 24.75C48.4746 24.7305 48.4805 24.7051 48.4727 24.6738C48.4688 24.6426 48.4766 24.6172 48.4961 24.5977C48.5039 24.5898 48.5156 24.582 48.5312 24.5742C48.5469 24.5664 48.5605 24.5586 48.5723 24.5508C48.623 24.5156 48.666 24.4805 48.7012 24.4453C48.7363 24.4102 48.7852 24.3848 48.8477 24.3691C48.9023 24.3262 48.9512 24.2832 48.9941 24.2402C49.041 24.1973 49.0879 24.1582 49.1348 24.123C49.1816 24.0879 49.2324 24.0605 49.2871 24.041C49.3418 24.0176 49.4102 24.0059 49.4922 24.0059C49.5078 24.0059 49.5234 24.0078 49.5391 24.0117C49.5547 24.0117 49.5703 24.0117 49.5859 24.0117C49.7461 24.1602 49.8457 24.3418 49.8848 24.5566C49.8418 24.6113 49.8066 24.6699 49.7793 24.7324C49.7559 24.7949 49.7285 24.8574 49.6973 24.9199C49.6309 24.9434 49.5684 24.9785 49.5098 25.0254C49.4512 25.0684 49.3926 25.1133 49.334 25.1602C49.2793 25.207 49.2207 25.248 49.1582 25.2832C49.0996 25.3184 49.0332 25.3359 48.959 25.3359C48.9277 25.3633 48.877 25.4082 48.8066 25.4707C48.7402 25.5293 48.6699 25.5918 48.5957 25.6582C48.5254 25.7246 48.459 25.7871 48.3965 25.8457C48.3379 25.9043 48.3008 25.9453 48.2852 25.9688C48.2734 25.9883 48.2637 26.0059 48.2559 26.0215C48.248 26.0371 48.2402 26.0547 48.2324 26.0742L48.0801 26.332C47.9941 26.4805 47.9062 26.627 47.8164 26.7715C47.7266 26.9121 47.6484 27.0605 47.582 27.2168C47.5508 27.2871 47.5254 27.3574 47.5059 27.4277C47.4863 27.498 47.4668 27.5723 47.4473 27.6504C47.4395 27.6738 47.4297 27.6973 47.418 27.7207C47.4062 27.7441 47.3965 27.7656 47.3887 27.7852C47.3457 27.8672 47.3105 27.9434 47.2832 28.0137C47.2559 28.084 47.2402 28.166 47.2363 28.2598C47.1387 28.4785 47.0469 28.6992 46.9609 28.9219C46.8789 29.1406 46.8164 29.3672 46.7734 29.6016C46.7969 29.6797 46.8066 29.7598 46.8027 29.8418C46.8027 29.9199 46.8027 29.998 46.8027 30.0762C46.8027 30.1738 46.8086 30.2539 46.8203 30.3164C46.8359 30.3828 46.8555 30.4414 46.8789 30.4922C46.9062 30.5469 46.9355 30.6016 46.9668 30.6562C46.998 30.7148 47.0312 30.7832 47.0664 30.8613C47.125 30.9082 47.1777 30.957 47.2246 31.0078C47.2715 31.0625 47.3164 31.1211 47.3594 31.1836C47.5078 31.2578 47.6582 31.2949 47.8105 31.2949C47.9199 31.2949 48.0312 31.2773 48.1445 31.2422C48.2578 31.207 48.3672 31.1621 48.4727 31.1074C48.582 31.0566 48.6875 31 48.7891 30.9375C48.8906 30.875 48.9883 30.8145 49.082 30.7559C49.2461 30.6582 49.3887 30.5527 49.5098 30.4395C49.6309 30.3262 49.7402 30.207 49.8379 30.082C49.9395 29.957 50.0332 29.8242 50.1191 29.6836C50.2051 29.5391 50.2949 29.3867 50.3887 29.2266C50.3926 29.207 50.4004 29.1836 50.4121 29.1562L50.4473 29.0684C50.459 29.0371 50.4688 29.0098 50.4766 28.9863C50.4883 28.959 50.4941 28.9414 50.4941 28.9336C50.4941 28.9023 50.4863 28.8809 50.4707 28.8691C50.459 28.8535 50.4531 28.8379 50.4531 28.8223C50.4531 28.791 50.4609 28.7695 50.4766 28.7578C50.4922 28.7461 50.5098 28.7344 50.5293 28.7227C50.5527 28.7109 50.5723 28.6973 50.5879 28.6816C50.6074 28.666 50.6172 28.6367 50.6172 28.5938C50.6094 28.5898 50.5957 28.5879 50.5762 28.5879C50.5566 28.5879 50.5371 28.5898 50.5176 28.5938C50.498 28.5977 50.4785 28.5996 50.459 28.5996C50.4121 28.5996 50.373 28.584 50.3418 28.5527C50.3223 28.5605 50.3027 28.5742 50.2832 28.5938C50.2637 28.6094 50.2441 28.627 50.2246 28.6465C50.209 28.666 50.1934 28.6836 50.1777 28.6992C50.1621 28.7148 50.1484 28.7227 50.1367 28.7227C50.1172 28.7227 50.1016 28.7188 50.0898 28.7109C50.082 28.7031 50.0703 28.6992 50.0547 28.6992C49.9883 28.6992 49.9297 28.7148 49.8789 28.7461C49.8281 28.7773 49.7734 28.8027 49.7148 28.8223C49.7031 28.8223 49.6914 28.8223 49.6797 28.8223C49.668 28.8184 49.6562 28.8164 49.6445 28.8164C49.6016 28.8164 49.5586 28.8242 49.5156 28.8398C49.4766 28.8516 49.4375 28.8652 49.3984 28.8809C49.3633 28.8965 49.3262 28.9102 49.2871 28.9219C49.248 28.9336 49.209 28.9375 49.1699 28.9336C49.084 28.9648 49.0039 28.998 48.9297 29.0332C48.8594 29.0684 48.7773 29.082 48.6836 29.0742C48.6562 29.0859 48.627 29.0996 48.5957 29.1152C48.5684 29.127 48.541 29.1426 48.5137 29.1621C48.4902 29.1699 48.4727 29.1738 48.4609 29.1738C48.4414 29.1738 48.4258 29.1641 48.4141 29.1445C48.3828 29.1797 48.3418 29.2051 48.291 29.2207C48.2402 29.2324 48.1875 29.2441 48.1328 29.2559C48.0781 29.2637 48.0254 29.2754 47.9746 29.291C47.9277 29.3027 47.8906 29.3281 47.8633 29.3672C47.8203 29.332 47.7695 29.3145 47.7109 29.3145C47.6523 29.3145 47.5957 29.3262 47.541 29.3496C47.4863 29.3691 47.4277 29.3789 47.3652 29.3789C47.3418 29.3789 47.3262 29.375 47.3184 29.3672C47.3027 29.3242 47.2852 29.2812 47.2656 29.2383C47.2461 29.1953 47.2148 29.1641 47.1719 29.1445C47.1641 29.1016 47.1562 29.0605 47.1484 29.0215C47.1445 28.9785 47.1426 28.9375 47.1426 28.8984C47.1426 28.793 47.1738 28.6973 47.2363 28.6113C47.291 28.5918 47.3457 28.5762 47.4004 28.5645C47.459 28.5488 47.5156 28.5312 47.5703 28.5117C47.6133 28.5195 47.6562 28.5254 47.6992 28.5293C47.7422 28.5332 47.7852 28.5352 47.8281 28.5352C47.9883 28.5352 48.1445 28.5156 48.2969 28.4766C48.4492 28.4336 48.5996 28.3887 48.748 28.3418C48.8887 28.2988 49.0312 28.2598 49.1758 28.2246C49.3203 28.1895 49.4648 28.1504 49.6094 28.1074C49.7461 28.0723 49.8809 28.0332 50.0137 27.9902C50.1465 27.9434 50.2852 27.9141 50.4297 27.9023C50.5234 27.8359 50.6367 27.791 50.7695 27.7676C50.9062 27.7441 51.0312 27.7188 51.1445 27.6914C51.3242 27.6484 51.502 27.6055 51.6777 27.5625C51.8535 27.5156 52.0332 27.4746 52.2168 27.4395C52.4199 27.3965 52.6172 27.3438 52.8086 27.2812C53.0039 27.2188 53.1992 27.1523 53.3945 27.082H53.4531C53.5195 27.082 53.5879 27.0742 53.6582 27.0586C53.7285 27.043 53.7988 27.0352 53.8691 27.0352C53.8887 27.0352 53.9043 27.0371 53.916 27.041C53.9316 27.041 53.9473 27.041 53.9629 27.041C53.9746 27.041 54.0039 27.0332 54.0508 27.0176C54.0977 26.998 54.1309 26.9844 54.1504 26.9766C54.2012 27.0312 54.2578 27.0801 54.3203 27.123C54.3828 27.166 54.4375 27.2148 54.4844 27.2695ZM55.9668 25.0371C55.9668 25.3184 55.9395 25.5977 55.8848 25.875C55.834 26.1484 55.791 26.4238 55.7559 26.7012C55.7363 26.7285 55.7148 26.752 55.6914 26.7715C55.6719 26.7871 55.6523 26.8047 55.6328 26.8242V26.8828C55.6328 26.9375 55.625 26.9922 55.6094 27.0469L55.5684 27.2051C55.5566 27.2559 55.5469 27.3086 55.5391 27.3633C55.5312 27.4141 55.5352 27.4668 55.5508 27.5215C55.5039 27.6348 55.4688 27.752 55.4453 27.873C55.4219 27.9902 55.4004 28.1094 55.3809 28.2305C55.3652 28.3516 55.3477 28.4727 55.3281 28.5938C55.3086 28.7148 55.2812 28.834 55.2461 28.9512L55.252 29.0391C55.2598 29.1641 55.25 29.2891 55.2227 29.4141C55.1992 29.5391 55.1875 29.6641 55.1875 29.7891C55.1875 29.8711 55.1895 29.9512 55.1934 30.0293C55.2012 30.1074 55.2051 30.1855 55.2051 30.2637C55.2051 30.3496 55.1992 30.4297 55.1875 30.5039C55.2188 30.543 55.2422 30.5879 55.2578 30.6387L55.3105 30.791C55.3301 30.8418 55.3516 30.8887 55.375 30.9316C55.3984 30.9746 55.4336 31.0078 55.4805 31.0312C55.5234 31.0117 55.5625 30.9941 55.5977 30.9785C55.6367 30.9668 55.6777 30.9609 55.7207 30.9609C55.7832 30.9609 55.8379 30.9785 55.8848 31.0137C55.8926 31.0527 55.8945 31.0938 55.8906 31.1367C55.8906 31.1797 55.8945 31.2227 55.9023 31.2656C55.8633 31.3047 55.8184 31.3379 55.7676 31.3652C55.7207 31.3926 55.6758 31.4219 55.6328 31.4531C55.6328 31.4609 55.6328 31.4688 55.6328 31.4766C55.6367 31.4883 55.6387 31.498 55.6387 31.5059C55.6387 31.584 55.6094 31.6426 55.5508 31.6816C55.4961 31.7246 55.4355 31.7461 55.3691 31.7461C55.3496 31.7461 55.3223 31.7422 55.2871 31.7344C55.252 31.7266 55.2246 31.7168 55.2051 31.7051C55.0996 31.6348 55.0078 31.5391 54.9297 31.418C54.8516 31.2969 54.7871 31.166 54.7363 31.0254C54.6895 30.8848 54.6523 30.7402 54.625 30.5918C54.6016 30.4473 54.5898 30.3164 54.5898 30.1992V30.0703C54.5898 30.0273 54.5938 29.9844 54.6016 29.9414C54.6055 29.9102 54.6133 29.8867 54.625 29.8711C54.6367 29.8516 54.6426 29.8242 54.6426 29.7891C54.6426 29.582 54.6543 29.375 54.6777 29.168C54.7051 28.9609 54.7344 28.7539 54.7656 28.5469C54.7969 28.3359 54.8262 28.127 54.8535 27.9199C54.8848 27.7129 54.9043 27.5039 54.9121 27.293C54.8691 27.3047 54.8359 27.332 54.8125 27.375C54.7891 27.4141 54.752 27.4434 54.7012 27.4629C54.6113 27.5918 54.5059 27.707 54.3848 27.8086C54.2676 27.9062 54.1582 28.0156 54.0566 28.1367C54.002 28.1602 53.9492 28.1855 53.8984 28.2129C53.8477 28.2402 53.8008 28.2754 53.7578 28.3184C53.625 28.3301 53.5137 28.3809 53.4238 28.4707L53.3711 28.4648C53.3203 28.4648 53.2734 28.4805 53.2305 28.5117C53.1992 28.5117 53.168 28.5059 53.1367 28.4941C53.1094 28.4824 53.0801 28.4766 53.0488 28.4766C53.0137 28.4766 52.9844 28.4883 52.9609 28.5117C52.8477 28.4844 52.752 28.4414 52.6738 28.3828C52.5957 28.3203 52.5234 28.2539 52.457 28.1836C52.3945 28.1094 52.3301 28.0352 52.2637 27.9609C52.2012 27.8828 52.127 27.8145 52.041 27.7559C52.0176 27.666 51.9961 27.5859 51.9766 27.5156C51.957 27.4414 51.9395 27.3691 51.9238 27.2988C51.9121 27.2285 51.9023 27.1562 51.8945 27.082C51.8828 27.0039 51.877 26.916 51.877 26.8184C51.877 26.5527 51.8887 26.291 51.9121 26.0332C51.9355 25.7715 51.9629 25.5117 51.9941 25.2539C52.0566 25.1484 52.1016 25.0352 52.1289 24.9141C52.1602 24.7891 52.1875 24.6641 52.2109 24.5391C52.2383 24.4141 52.2676 24.291 52.2988 24.1699C52.334 24.0488 52.3867 23.9395 52.457 23.8418H52.498C52.541 23.8418 52.5801 23.8457 52.6152 23.8535C52.6543 23.8574 52.6914 23.8535 52.7266 23.8418C52.7812 23.9395 52.8086 24.0488 52.8086 24.1699C52.8086 24.248 52.7988 24.3262 52.7793 24.4043C52.7637 24.4824 52.7441 24.5605 52.7207 24.6387C52.7012 24.7129 52.6816 24.7891 52.6621 24.8672C52.6426 24.9453 52.6309 25.0234 52.627 25.1016C52.6035 25.1367 52.5859 25.1738 52.5742 25.2129C52.5664 25.252 52.5469 25.2852 52.5156 25.3125L52.5215 25.3945C52.5293 25.4805 52.5176 25.5625 52.4863 25.6406C52.459 25.7188 52.4414 25.8008 52.4336 25.8867C52.4297 25.9297 52.4297 25.9727 52.4336 26.0156C52.4414 26.0586 52.4453 26.1016 52.4453 26.1445C52.4453 26.2461 52.4414 26.3457 52.4336 26.4434C52.4297 26.541 52.4277 26.6406 52.4277 26.7422C52.4277 26.8164 52.4355 26.8887 52.4512 26.959C52.4668 27.0254 52.4746 27.0762 52.4746 27.1113C52.4746 27.1387 52.4688 27.1641 52.457 27.1875C52.4688 27.2266 52.4844 27.2617 52.5039 27.293L52.5625 27.3809C52.582 27.4082 52.5996 27.4395 52.6152 27.4746C52.6309 27.5059 52.6406 27.543 52.6445 27.5859C52.8008 27.7305 52.9922 27.8027 53.2188 27.8027C53.3477 27.8027 53.4727 27.7656 53.5938 27.6914C53.7188 27.6172 53.8379 27.5273 53.9512 27.4219C54.0684 27.3164 54.1797 27.209 54.2852 27.0996C54.3945 26.9863 54.5 26.8945 54.6016 26.8242C54.6367 26.7539 54.6816 26.6777 54.7363 26.5957C54.7949 26.5098 54.8535 26.4238 54.9121 26.3379C54.9707 26.248 55.0234 26.1621 55.0703 26.0801C55.1172 25.9941 55.1484 25.9141 55.1641 25.8398C55.1719 25.8047 55.1758 25.7676 55.1758 25.7285C55.1758 25.6895 55.1797 25.6484 55.1875 25.6055C55.207 25.4688 55.2305 25.332 55.2578 25.1953C55.2891 25.0586 55.3047 24.9199 55.3047 24.7793C55.3047 24.752 55.3027 24.7266 55.2988 24.7031C55.2988 24.6797 55.2969 24.6523 55.293 24.6211C55.3242 24.582 55.3555 24.5469 55.3867 24.5156C55.418 24.4805 55.4434 24.4395 55.4629 24.3926C55.5137 24.4004 55.5605 24.4023 55.6035 24.3984C55.6465 24.3906 55.6914 24.3867 55.7383 24.3867C55.7969 24.3867 55.8516 24.4023 55.9023 24.4336C55.9453 24.6406 55.9668 24.8418 55.9668 25.0371ZM62.5879 31.5176C62.5879 31.5527 62.5742 31.584 62.5469 31.6113C62.5234 31.6387 62.4941 31.6602 62.459 31.6758C62.4238 31.6953 62.3867 31.7129 62.3477 31.7285C62.3125 31.7441 62.2812 31.7578 62.2539 31.7695C62.2109 31.7461 62.166 31.7305 62.1191 31.7227C62.0762 31.7148 62.0371 31.6953 62.002 31.6641H61.9609C61.8984 31.6641 61.8496 31.6719 61.8145 31.6875C61.7598 31.668 61.7148 31.6387 61.6797 31.5996C61.6445 31.5645 61.6113 31.5254 61.5801 31.4824C61.5488 31.4434 61.5176 31.4043 61.4863 31.3652C61.4551 31.3262 61.416 31.293 61.3691 31.2656C61.2988 31.0703 61.2363 30.873 61.1816 30.6738C61.127 30.4746 61.0859 30.2715 61.0586 30.0645C61.0664 30.0449 61.0723 30.0234 61.0762 30C61.0801 29.9766 61.082 29.9551 61.082 29.9355C61.082 29.9199 61.0781 29.9043 61.0703 29.8887C61.0664 29.8691 61.0547 29.8574 61.0352 29.8535C61.0547 29.8223 61.0664 29.7871 61.0703 29.748C61.0781 29.7051 61.082 29.666 61.082 29.6309C61.082 29.5527 61.0742 29.4883 61.0586 29.4375C61.082 29.418 61.0918 29.3867 61.0879 29.3438C61.084 29.2969 61.0938 29.2637 61.1172 29.2441C61.0977 29.1777 61.0879 29.1133 61.0879 29.0508C61.0879 28.9648 61.0977 28.8809 61.1172 28.7988C61.1406 28.7168 61.1523 28.6328 61.1523 28.5469C61.1523 28.5273 61.1504 28.5078 61.1465 28.4883C61.1465 28.4688 61.1445 28.4492 61.1406 28.4297C61.1602 28.3672 61.1777 28.3047 61.1934 28.2422C61.2129 28.1758 61.2227 28.1094 61.2227 28.043C61.2227 27.9961 61.2148 27.957 61.1992 27.9258C61.25 27.7461 61.2852 27.5684 61.3047 27.3926C61.3281 27.2129 61.3496 27.0312 61.3691 26.8477C61.3652 26.8398 61.3613 26.834 61.3574 26.8301C61.3535 26.8262 61.3516 26.8203 61.3516 26.8125C61.3516 26.793 61.3613 26.7773 61.3809 26.7656C61.4043 26.7539 61.4141 26.7324 61.4102 26.7012C61.3633 26.748 61.3242 26.8027 61.293 26.8652C61.2656 26.9277 61.2383 26.9902 61.2109 27.0527C61.1875 27.1152 61.1602 27.1777 61.1289 27.2402C61.1016 27.2988 61.0645 27.3516 61.0176 27.3984C61.0137 27.4414 61 27.4824 60.9766 27.5215C60.957 27.5605 60.9473 27.6035 60.9473 27.6504C60.9434 27.6504 60.9395 27.6504 60.9355 27.6504C60.9316 27.6465 60.9258 27.6445 60.918 27.6445C60.9023 27.6445 60.8906 27.6543 60.8828 27.6738C60.8789 27.6934 60.8672 27.6992 60.8477 27.6914C60.7578 27.8672 60.6582 28.0391 60.5488 28.207C60.4434 28.375 60.3047 28.5098 60.1328 28.6113C60.1016 28.5996 60.0723 28.5938 60.0449 28.5938C59.9941 28.5938 59.9434 28.6094 59.8926 28.6406C59.8457 28.668 59.8145 28.6816 59.7988 28.6816C59.7598 28.6816 59.7109 28.6621 59.6523 28.623C59.5977 28.5801 59.541 28.5566 59.4824 28.5527C59.4199 28.5098 59.3672 28.4668 59.3242 28.4238C59.2852 28.377 59.2246 28.3496 59.1426 28.3418C59.0879 28.2598 59.0332 28.1816 58.9785 28.1074C58.9277 28.0332 58.877 27.9609 58.8262 27.8906C58.7793 27.8164 58.7363 27.7383 58.6973 27.6562C58.6621 27.5742 58.6348 27.4824 58.6152 27.3809C58.6191 27.373 58.6211 27.3652 58.6211 27.3574C58.6211 27.334 58.6094 27.3242 58.5859 27.3281C58.5664 27.332 58.5566 27.3203 58.5566 27.293V27.252C58.5566 27.2207 58.5508 27.1934 58.5391 27.1699C58.5312 27.1426 58.5293 27.1133 58.5332 27.082C58.5059 27.0391 58.4844 26.9941 58.4688 26.9473C58.4531 26.9004 58.4258 26.8594 58.3867 26.8242V26.7715C58.3867 26.748 58.3848 26.7266 58.3809 26.707C58.3809 26.6836 58.375 26.6641 58.3633 26.6484C58.3555 26.6289 58.3418 26.6172 58.3223 26.6133C58.3184 26.4727 58.2891 26.3301 58.2344 26.1855C58.1836 26.0371 58.1367 25.8945 58.0938 25.7578C58.0625 25.8594 58.0391 25.9629 58.0234 26.0684C58.0078 26.1699 58 26.2734 58 26.3789V26.4785C58 26.5098 58.0039 26.541 58.0117 26.5723C58 26.5918 57.9824 26.6055 57.959 26.6133C57.9395 26.6211 57.9277 26.6367 57.9238 26.6602C57.9199 26.6797 57.918 26.6992 57.918 26.7188C57.9219 26.7383 57.9219 26.7578 57.918 26.7773C57.9102 26.8711 57.8984 26.9609 57.8828 27.0469C57.8594 27.1758 57.832 27.3066 57.8008 27.4395C57.7695 27.5684 57.7539 27.7012 57.7539 27.8379C57.7539 27.8457 57.7539 27.8574 57.7539 27.873C57.7578 27.8848 57.7598 27.8945 57.7598 27.9023C57.6973 27.957 57.6641 28.0254 57.6602 28.1074C57.6562 28.1895 57.6465 28.2676 57.6309 28.3418C57.6113 28.4512 57.5879 28.5605 57.5605 28.6699C57.5332 28.7754 57.5098 28.8848 57.4902 28.998C57.4785 29.0605 57.4688 29.123 57.4609 29.1855C57.4531 29.2441 57.4453 29.3047 57.4375 29.3672C57.4336 29.4023 57.4199 29.4316 57.3965 29.4551C57.377 29.4785 57.3633 29.5059 57.3555 29.5371C57.3516 29.5645 57.3496 29.5957 57.3496 29.6309C57.3535 29.6621 57.3555 29.6914 57.3555 29.7188C57.3555 29.7656 57.3516 29.8105 57.3438 29.8535C57.3359 29.8926 57.3125 29.9277 57.2734 29.959C57.2812 30.0605 57.2988 30.1465 57.3262 30.2168C57.3535 30.291 57.3848 30.373 57.4199 30.4629H57.5664V30.4863C57.5664 30.5254 57.5723 30.5605 57.584 30.5918C57.5996 30.623 57.6289 30.6367 57.6719 30.6328C57.668 30.6484 57.666 30.668 57.666 30.6914C57.666 30.7266 57.6719 30.7578 57.6836 30.7852C57.6992 30.8164 57.7109 30.8496 57.7188 30.8848C57.6406 31.0137 57.5566 31.1094 57.4668 31.1719C57.377 31.2344 57.2539 31.2656 57.0977 31.2656H57.0039C56.9844 31.2031 56.9609 31.1426 56.9336 31.084C56.9062 31.0254 56.8789 30.9668 56.8516 30.9082C56.8281 30.8496 56.8066 30.7891 56.7871 30.7266C56.7715 30.668 56.7637 30.6055 56.7637 30.5391C56.7637 30.5234 56.7656 30.5078 56.7695 30.4922C56.7734 30.4805 56.7754 30.4668 56.7754 30.4512C56.7754 30.4316 56.7676 30.4199 56.752 30.416C56.7363 30.4121 56.7285 30.3926 56.7285 30.3574C56.7285 30.3301 56.7266 30.3047 56.7227 30.2812C56.7227 30.2578 56.7227 30.2324 56.7227 30.2051C56.7227 30.0762 56.7324 29.9492 56.752 29.8242C56.7715 29.6953 56.7852 29.5664 56.793 29.4375C56.8125 29.418 56.8223 29.3926 56.8223 29.3613C56.8223 29.3301 56.832 29.3047 56.8516 29.2852V29.2441C56.8516 29.1738 56.8594 29.1035 56.875 29.0332C56.8906 28.9629 56.9082 28.8945 56.9277 28.8281C56.9473 28.7617 56.9648 28.6934 56.9805 28.623C56.9961 28.5527 57.0039 28.4824 57.0039 28.4121V28.3184C57.0039 28.291 57.0156 28.2793 57.0391 28.2832C57.0664 28.2832 57.082 28.2676 57.0859 28.2363C57.0938 28.1816 57.0977 28.1289 57.0977 28.0781C57.1016 28.0234 57.1074 27.9688 57.1152 27.9141C57.1348 27.8086 57.1562 27.7031 57.1797 27.5977C57.2031 27.4883 57.2148 27.3789 57.2148 27.2695V27.252C57.2148 27.2402 57.2246 27.2168 57.2441 27.1816C57.2637 27.1426 57.2734 27.1055 57.2734 27.0703C57.2734 27.043 57.2676 27.0176 57.2559 26.9941C57.2598 26.998 57.2676 27 57.2793 27C57.2949 27 57.3047 26.9961 57.3086 26.9883C57.3164 26.9766 57.3262 26.9668 57.3379 26.959C57.3262 26.9434 57.3203 26.9277 57.3203 26.9121C57.3203 26.8926 57.3223 26.875 57.3262 26.8594C57.334 26.8398 57.3379 26.8203 57.3379 26.8008C57.3379 26.7734 57.3242 26.7539 57.2969 26.7422C57.3438 26.6562 57.377 26.5645 57.3965 26.4668C57.4199 26.3691 57.4355 26.2695 57.4434 26.168C57.4551 26.0664 57.4648 25.9648 57.4727 25.8633C57.4805 25.7578 57.498 25.6582 57.5254 25.5645C57.5176 25.541 57.5117 25.5156 57.5078 25.4883C57.5078 25.4609 57.5078 25.4355 57.5078 25.4121C57.5078 25.3965 57.5059 25.3809 57.502 25.3652C57.498 25.3457 57.5 25.3281 57.5078 25.3125C57.5078 25.3047 57.5098 25.2949 57.5137 25.2832L57.5254 25.248C57.5332 25.2207 57.5371 25.1934 57.5371 25.166C57.541 25.1348 57.5449 25.1035 57.5488 25.0723C57.5566 24.9824 57.5586 24.8906 57.5547 24.7969C57.5547 24.7031 57.5586 24.6094 57.5664 24.5156C57.5547 24.5 57.543 24.4883 57.5312 24.4805C57.5195 24.4688 57.5117 24.4531 57.5078 24.4336C57.5391 24.3789 57.5723 24.3281 57.6074 24.2812C57.6465 24.2305 57.6973 24.1914 57.7598 24.1641C57.7715 24.207 57.8027 24.2285 57.8535 24.2285C57.877 24.2285 57.9062 24.2227 57.9414 24.2109C57.9766 24.1992 58 24.1836 58.0117 24.1641C58.0781 24.1875 58.1445 24.1992 58.2109 24.1992C58.2812 24.1953 58.3457 24.2109 58.4043 24.2461C58.416 24.3047 58.4316 24.3652 58.4512 24.4277C58.4707 24.4902 58.498 24.5469 58.5332 24.5977C58.541 24.6484 58.5488 24.7109 58.5566 24.7852C58.5645 24.8555 58.5723 24.9297 58.5801 25.0078C58.5879 25.082 58.5996 25.1543 58.6152 25.2246C58.6309 25.291 58.6523 25.3438 58.6797 25.3828C58.6836 25.4531 58.6953 25.5234 58.7148 25.5938C58.7344 25.6641 58.7559 25.7324 58.7793 25.7988C58.8027 25.8613 58.8223 25.9199 58.8379 25.9746C58.8574 26.0293 58.8672 26.0742 58.8672 26.1094C58.8672 26.1406 58.8613 26.1621 58.8496 26.1738C58.8418 26.1816 58.834 26.1973 58.8262 26.2207C58.8418 26.2637 58.8633 26.3008 58.8906 26.332C58.918 26.3594 58.9473 26.3926 58.9785 26.4316C59.0371 26.6543 59.1133 26.8711 59.207 27.082C59.3008 27.293 59.4141 27.4961 59.5469 27.6914C59.582 27.6953 59.6094 27.7051 59.6289 27.7207C59.6523 27.7363 59.6875 27.7402 59.7344 27.7324V27.7734C59.7344 27.8125 59.7422 27.8398 59.7578 27.8555C59.793 27.8789 59.834 27.8906 59.8809 27.8906C59.9316 27.8906 59.9707 27.877 59.998 27.8496C60.0293 27.8184 60.0586 27.7832 60.0859 27.7441C60.1133 27.7051 60.1406 27.668 60.168 27.6328C60.1953 27.5977 60.2324 27.5742 60.2793 27.5625V27.5508C60.2793 27.5195 60.2852 27.4941 60.2969 27.4746C60.3125 27.4512 60.3203 27.4258 60.3203 27.3984C60.3633 27.3672 60.3965 27.3281 60.4199 27.2812C60.4434 27.2344 60.4648 27.1875 60.4844 27.1406C60.5039 27.0898 60.5254 27.043 60.5488 27C60.5762 26.957 60.6113 26.9219 60.6543 26.8945C60.709 26.7266 60.7754 26.5703 60.8535 26.4258C60.9316 26.2812 61.0137 26.1348 61.0996 25.9863C61.0996 25.9746 61.0977 25.9629 61.0938 25.9512C61.0898 25.9355 61.0879 25.9219 61.0879 25.9102C61.0879 25.9062 61.0918 25.8887 61.0996 25.8574C61.1191 25.8184 61.1367 25.7812 61.1523 25.7461C61.168 25.7109 61.1816 25.6719 61.1934 25.6289C61.2324 25.5078 61.2676 25.3887 61.2988 25.2715C61.334 25.1543 61.3848 25.043 61.4512 24.9375V24.791C61.5215 24.6504 61.5703 24.502 61.5977 24.3457C61.6289 24.1895 61.666 24.0371 61.709 23.8887C61.7168 23.8457 61.7305 23.8027 61.75 23.7598C61.7734 23.7129 61.8008 23.6797 61.832 23.6602C61.8203 23.6367 61.8145 23.6133 61.8145 23.5898C61.8145 23.5586 61.8184 23.5312 61.8262 23.5078C61.8379 23.4805 61.8477 23.4531 61.8555 23.4258C61.8438 23.3984 61.8379 23.3633 61.8379 23.3203C61.8379 23.2656 61.8535 23.2148 61.8848 23.168C61.916 23.1172 61.9629 23.084 62.0254 23.0684C62.0645 23.0801 62.0977 23.0996 62.125 23.127C62.1523 23.1543 62.1777 23.1836 62.2012 23.2148C62.2285 23.2422 62.2559 23.2656 62.2832 23.2852C62.3145 23.3008 62.3535 23.3047 62.4004 23.2969C62.4316 23.3555 62.4531 23.418 62.4648 23.4844C62.4766 23.5469 62.4824 23.6113 62.4824 23.6777C62.4824 23.7676 62.4746 23.8613 62.459 23.959C62.4434 24.0527 62.4375 24.1484 62.4414 24.2461C62.4102 24.3086 62.3867 24.377 62.3711 24.4512C62.3594 24.5215 62.3477 24.5938 62.3359 24.668C62.3242 24.7422 62.3105 24.8145 62.2949 24.8848C62.2793 24.9551 62.252 25.0215 62.2129 25.084C62.2012 25.2598 62.1875 25.4316 62.1719 25.5996C62.1602 25.7676 62.1406 25.9355 62.1133 26.1035L62.0605 26.4375C62.0527 26.4648 62.0449 26.4961 62.0371 26.5312C62.0293 26.5625 62.0254 26.5898 62.0254 26.6133C62.0254 26.6367 62.0273 26.6621 62.0312 26.6895C62.0352 26.7129 62.0469 26.7305 62.0664 26.7422C62.0391 26.7812 62.0195 26.8281 62.0078 26.8828C61.9961 26.9375 61.9844 26.9961 61.9727 27.0586L61.9434 27.2402C61.9355 27.2988 61.9199 27.3516 61.8965 27.3984V27.4629C61.8965 27.6191 61.8691 27.7793 61.8145 27.9434V27.9727C61.8145 27.9922 61.8125 28.0098 61.8086 28.0254C61.8086 28.0371 61.8086 28.0527 61.8086 28.0723C61.8086 28.0996 61.8164 28.1211 61.832 28.1367C61.8008 28.2383 61.7715 28.3438 61.7441 28.4531C61.7168 28.5586 61.6973 28.668 61.6855 28.7812C61.6738 28.9336 61.6719 29.0898 61.6797 29.25C61.6875 29.4062 61.668 29.5586 61.6211 29.707C61.6445 29.7773 61.6602 29.8535 61.668 29.9355L61.6914 30.1816C61.6992 30.2637 61.7109 30.3418 61.7266 30.416C61.7461 30.4941 61.7812 30.5586 61.832 30.6094C61.8359 30.6172 61.8379 30.6289 61.8379 30.6445C61.8379 30.6758 61.8301 30.6992 61.8145 30.7148C61.8223 30.7539 61.8359 30.7871 61.8555 30.8145C61.875 30.8418 61.8945 30.8672 61.9141 30.8906C61.9336 30.918 61.9492 30.9473 61.9609 30.9785C61.9766 31.0098 61.9844 31.0488 61.9844 31.0957C62.0156 31.1387 62.0645 31.1719 62.1309 31.1953C62.1973 31.2188 62.2637 31.2422 62.3301 31.2656C62.4004 31.2891 62.4609 31.3184 62.5117 31.3535C62.5625 31.3926 62.5879 31.4473 62.5879 31.5176Z" fill="black"/>
</g>
<defs>
<filter id="filter0_d" x="0.910645" y="2" width="108.219" height="38" filterUnits="userSpaceOnUse" color-interpolation-filters="sRGB">
<feFlood flood-opacity="0" result="BackgroundImageFix"/>
<feColorMatrix in="SourceAlpha" type="matrix" values="0 0 0 0 0 0 0 0 0 0 0 0 0 0 0 0 0 0 127 0"/>
<feOffset dy="4"/>
<feGaussianBlur stdDeviation="2"/>
<feColorMatrix type="matrix" values="0 0 0 0 0 0 0 0 0 0 0 0 0 0 0 0 0 0 0.25 0"/>
<feBlend mode="normal" in2="BackgroundImageFix" result="effect1_dropShadow"/>
<feBlend mode="normal" in="SourceGraphic" in2="effect1_dropShadow" result="shape"/>
</filter>
</defs>
</svg>
