<svg width="102" height="35" viewBox="0 0 102 35" fill="none" xmlns="http://www.w3.org/2000/svg">
<path d="M2.41072 20.9161C2.62451 20.7486 3.11646 20.49 4.01541 20.1919C4.88173 19.9047 6.01425 19.6163 7.41101 19.3348C10.2024 18.7725 13.9468 18.2582 18.5198 17.8252C27.6608 16.9595 39.3793 16.4873 51.4852 16.5003C63.5914 16.5132 75.2228 17.0105 84.2062 17.8953C88.7009 18.338 92.3491 18.8597 95.0335 19.4265C96.3773 19.7103 97.4498 19.9992 98.253 20.2839C99.098 20.5835 99.4961 20.8281 99.6295 20.9497" stroke="white" stroke-width="3" stroke-linecap="round"/>
<line x1="19.5" y1="30.5" x2="19.5" y2="3.5" stroke="#EF233C" stroke-width="3" stroke-linecap="round"/>
<line x1="14.5" y1="28.5" x2="14.5" y2="6.5" stroke="white" stroke-width="3" stroke-linecap="round"/>
<line x1="9.5" y1="26.5" x2="9.5" y2="9.5" stroke="#EF233C" stroke-width="3" stroke-linecap="round"/>
<line x1="4.5" y1="24.5" x2="4.5" y2="12.5" stroke="white" stroke-width="3" stroke-linecap="round"/>
<line x1="4" y1="14.5" x2="4" y2="12.5" stroke="black" stroke-opacity="0.4" stroke-linecap="round"/>
<line x1="9" y1="11.5" x2="9" y2="9.5" stroke="black" stroke-opacity="0.4" stroke-linecap="round"/>
<line x1="19" y1="5.5" x2="19" y2="3.5" stroke="black" stroke-opacity="0.4" stroke-linecap="round"/>
<line x1="14" y1="8.5" x2="14" y2="6.5" stroke="black" stroke-opacity="0.4" stroke-linecap="round"/>
<line x1="1.5" y1="-1.5" x2="28.5" y2="-1.5" transform="matrix(0 -1 -1 0 81 32)" stroke="#EF233C" stroke-width="3" stroke-linecap="round"/>
<line x1="1.5" y1="-1.5" x2="23.5" y2="-1.5" transform="matrix(0 -1 -1 0 86 30)" stroke="white" stroke-width="3" stroke-linecap="round"/>
<line x1="1.5" y1="-1.5" x2="18.5" y2="-1.5" transform="matrix(0 -1 -1 0 91 28)" stroke="#EF233C" stroke-width="3" stroke-linecap="round"/>
<line x1="1.5" y1="-1.5" x2="13.5" y2="-1.5" transform="matrix(0 -1 -1 0 96 26)" stroke="white" stroke-width="3" stroke-linecap="round"/>
<line x1="0.5" y1="-0.5" x2="2.5" y2="-0.5" transform="matrix(0 -1 -1 0 97.5 15)" stroke="black" stroke-opacity="0.4" stroke-linecap="round"/>
<line x1="0.5" y1="-0.5" x2="2.5" y2="-0.5" transform="matrix(0 -1 -1 0 92.5 12)" stroke="black" stroke-opacity="0.4" stroke-linecap="round"/>
<line x1="0.5" y1="-0.5" x2="2.5" y2="-0.5" transform="matrix(0 -1 -1 0 82.5 6)" stroke="black" stroke-opacity="0.4" stroke-linecap="round"/>
<line x1="0.5" y1="-0.5" x2="2.5" y2="-0.5" transform="matrix(0 -1 -1 0 87.5 9)" stroke="black" stroke-opacity="0.4" stroke-linecap="round"/>
<path d="M35.9902 8.00391C35.9902 8.05469 35.9766 8.10156 35.9492 8.14453C35.9219 8.18359 35.9141 8.23047 35.9258 8.28516C35.9102 8.3125 35.8887 8.33398 35.8613 8.34961C35.8379 8.36523 35.8301 8.39453 35.8379 8.4375C35.7559 8.48047 35.6797 8.53516 35.6094 8.60156C35.543 8.66406 35.4707 8.72461 35.3926 8.7832C35.3457 8.81836 35.3047 8.84375 35.2695 8.85938C35.2383 8.87109 35.1992 8.89062 35.1523 8.91797L35.0059 9.01172C34.9395 9.04688 34.8711 9.08203 34.8008 9.11719C34.7344 9.15234 34.6738 9.19727 34.6191 9.25195C34.5371 9.25586 34.4531 9.27734 34.3672 9.31641C34.2812 9.35938 34.1992 9.39648 34.1211 9.42773C34.0898 9.43945 34.0586 9.44727 34.0273 9.45117C33.9961 9.45898 33.9648 9.4707 33.9336 9.48633L33.8398 9.52734C33.7852 9.55469 33.7207 9.58203 33.6465 9.60938C33.5723 9.64062 33.5059 9.65625 33.4473 9.65625C33.4121 9.67188 33.3828 9.69922 33.3594 9.73828C33.2305 9.78125 33.0977 9.81445 32.9609 9.83789C32.8242 9.86133 32.6914 9.89844 32.5625 9.94922C32.5195 9.96875 32.4746 9.99414 32.4277 10.0254C32.3848 10.0605 32.3379 10.0762 32.2871 10.0723C32.2754 10.0918 32.2676 10.1152 32.2637 10.1426C32.2598 10.1699 32.2539 10.1973 32.2461 10.2246H32.2285C32.2129 10.2246 32.2051 10.2168 32.2051 10.2012C32.209 10.1855 32.2031 10.1777 32.1875 10.1777C32.1758 10.1777 32.168 10.1797 32.1641 10.1836C32.1133 10.1953 32.0645 10.2051 32.0176 10.2129C31.9746 10.2207 31.9258 10.2246 31.8711 10.2246C31.8398 10.2246 31.7891 10.2207 31.7188 10.2129C31.6523 10.2051 31.6035 10.1953 31.5723 10.1836C31.5488 10.1719 31.5293 10.1504 31.5137 10.1191C31.498 10.0879 31.4824 10.0547 31.4668 10.0195C31.4551 9.98438 31.4434 9.94727 31.4316 9.9082C31.4238 9.87305 31.416 9.84375 31.4082 9.82031C31.4199 9.77734 31.4395 9.74219 31.4668 9.71484C31.4941 9.6875 31.5156 9.65234 31.5312 9.60938C31.5664 9.60547 31.6016 9.59961 31.6367 9.5918C31.6719 9.58398 31.707 9.58203 31.7422 9.58594C31.8633 9.55078 31.9844 9.51562 32.1055 9.48047C32.2305 9.44922 32.3535 9.41602 32.4746 9.38086C32.5957 9.3457 32.7148 9.30664 32.832 9.26367C32.9492 9.2207 33.0625 9.16797 33.1719 9.10547H33.2949C33.3652 9.06641 33.4434 9.0332 33.5293 9.00586C33.6152 8.97852 33.6855 8.93359 33.7402 8.87109C33.8691 8.84375 34.0039 8.80664 34.1445 8.75977C34.2852 8.71289 34.4023 8.63867 34.4961 8.53711C34.5547 8.5293 34.6055 8.51562 34.6484 8.49609C34.6914 8.47266 34.7324 8.44922 34.7715 8.42578L34.8887 8.34961C34.9277 8.32227 34.9727 8.30078 35.0234 8.28516C35.0547 8.25391 35.084 8.2207 35.1113 8.18555C35.1387 8.15039 35.1719 8.12109 35.2109 8.09766C35.1992 8.03516 35.168 7.98828 35.1172 7.95703C35.0664 7.92578 35.0215 7.88867 34.9824 7.8457H34.8535C34.752 7.7832 34.6426 7.73633 34.5254 7.70508C34.4121 7.66992 34.2988 7.63281 34.1855 7.59375C34.1777 7.58984 34.168 7.58789 34.1562 7.58789C34.1289 7.58789 34.1113 7.59766 34.1035 7.61719C34.0996 7.63672 34.084 7.64453 34.0566 7.64062C34.0215 7.61719 33.9844 7.60352 33.9453 7.59961C33.9062 7.5918 33.8652 7.58789 33.8223 7.58789C33.7676 7.58789 33.7129 7.5918 33.6582 7.59961C33.6074 7.60352 33.5547 7.60547 33.5 7.60547C33.4727 7.60547 33.4453 7.60352 33.418 7.59961C33.3906 7.5957 33.3633 7.58594 33.3359 7.57031H33.2598C33.1777 7.57031 33.0957 7.57422 33.0137 7.58203C32.9355 7.58594 32.8574 7.58789 32.7793 7.58789C32.7363 7.58789 32.6953 7.58789 32.6562 7.58789C32.6172 7.58398 32.5781 7.57812 32.5391 7.57031C32.457 7.60938 32.3691 7.63672 32.2754 7.65234C32.1816 7.66797 32.084 7.67969 31.9824 7.6875C31.8848 7.69531 31.7871 7.70312 31.6895 7.71094C31.5918 7.71484 31.498 7.72461 31.4082 7.74023C31.3848 7.73633 31.3613 7.73438 31.3379 7.73438C31.3184 7.73047 31.2988 7.72852 31.2793 7.72852C31.2598 7.72852 31.2383 7.73047 31.2148 7.73438C31.1953 7.73438 31.1758 7.73633 31.1562 7.74023C31.1055 7.68555 31.043 7.64648 30.9688 7.62305C30.8984 7.5957 30.8281 7.57812 30.7578 7.57031C30.7031 7.50391 30.6621 7.4375 30.6348 7.37109C30.6113 7.30078 30.5957 7.22266 30.5879 7.13672H30.6113C30.6387 7.13672 30.6504 7.12305 30.6465 7.0957C30.6465 7.06836 30.6562 7.04492 30.6758 7.02539C30.6953 7.00195 30.7207 6.98633 30.752 6.97852C30.7871 6.9668 30.8203 6.95508 30.8516 6.94336C30.8828 6.93164 30.9121 6.91797 30.9395 6.90234C30.9707 6.88281 30.9941 6.85352 31.0098 6.81445H31.0859C31.1016 6.81445 31.1172 6.81641 31.1328 6.82031C31.1523 6.82031 31.168 6.82617 31.1797 6.83789C31.1953 6.82227 31.2148 6.80859 31.2383 6.79688C31.2617 6.78516 31.2832 6.77344 31.3027 6.76172C31.3262 6.75 31.3457 6.73633 31.3613 6.7207C31.377 6.70508 31.3867 6.68164 31.3906 6.65039C31.3945 6.66211 31.4043 6.66797 31.4199 6.66797C31.4355 6.66797 31.4492 6.66406 31.4609 6.65625C31.4766 6.64844 31.4941 6.64648 31.5137 6.65039C31.5332 6.5957 31.5664 6.56641 31.6133 6.5625C31.6602 6.55859 31.7031 6.54492 31.7422 6.52148C31.7695 6.50586 31.7949 6.48828 31.8184 6.46875C31.8418 6.44531 31.8672 6.42383 31.8945 6.4043L32.2461 6.13477L32.7852 5.72461C32.9648 5.58789 33.1484 5.46094 33.3359 5.34375C33.3438 5.32031 33.3555 5.30273 33.3711 5.29102C33.3867 5.2793 33.4023 5.26758 33.418 5.25586C33.4336 5.24023 33.4453 5.22461 33.4531 5.20898C33.4648 5.19336 33.4688 5.16992 33.4648 5.13867C33.5195 5.12695 33.5605 5.10547 33.5879 5.07422C33.6191 5.04297 33.6465 5.00977 33.6699 4.97461C33.6934 4.93555 33.7168 4.89844 33.7402 4.86328C33.7676 4.82422 33.8027 4.79492 33.8457 4.77539C33.8418 4.76367 33.8398 4.74609 33.8398 4.72266C33.8398 4.69141 33.8418 4.66016 33.8457 4.62891C33.8535 4.59766 33.8691 4.57031 33.8926 4.54688C33.8574 4.46484 33.7969 4.40625 33.7109 4.37109C33.625 4.33203 33.543 4.29883 33.4648 4.27148H33.4473C33.4277 4.27148 33.416 4.28125 33.4121 4.30078C33.4121 4.31641 33.4023 4.32812 33.3828 4.33594C33.3203 4.32031 33.25 4.3125 33.1719 4.3125C33.0938 4.3125 33.0156 4.31836 32.9375 4.33008C32.8633 4.3418 32.7871 4.34375 32.709 4.33594C32.6973 4.35156 32.6836 4.36719 32.668 4.38281C32.6562 4.39844 32.6406 4.41211 32.6211 4.42383C32.5391 4.42773 32.457 4.43945 32.375 4.45898L32.1289 4.51758L31.9941 4.54688C31.9746 4.55469 31.9609 4.56836 31.9531 4.58789C31.9453 4.60742 31.9395 4.62891 31.9355 4.65234C31.9121 4.64844 31.8965 4.63867 31.8887 4.62305C31.8848 4.60742 31.8711 4.5957 31.8477 4.58789C31.7578 4.64258 31.6602 4.6875 31.5547 4.72266C31.4531 4.75781 31.3613 4.8125 31.2793 4.88672C31.252 4.85547 31.2129 4.83984 31.1621 4.83984C31.1191 4.83984 31.0723 4.85352 31.0215 4.88086C30.9707 4.9082 30.9395 4.94336 30.9277 4.98633C30.8887 4.97852 30.8594 4.97461 30.8398 4.97461C30.7969 4.97461 30.7598 4.98633 30.7285 5.00977C30.7012 5.0332 30.6738 5.06055 30.6465 5.0918C30.6191 5.11914 30.5898 5.14648 30.5586 5.17383C30.5273 5.20117 30.4883 5.2168 30.4414 5.2207C30.4414 5.24023 30.4414 5.26172 30.4414 5.28516C30.4453 5.30469 30.4473 5.32617 30.4473 5.34961C30.4473 5.52539 30.4375 5.70117 30.418 5.87695C30.3984 6.04883 30.3887 6.22266 30.3887 6.39844C30.3887 6.4375 30.3906 6.47656 30.3945 6.51562C30.3984 6.55078 30.4004 6.58984 30.4004 6.63281C30.4004 6.64453 30.3906 6.66992 30.3711 6.70898C30.3555 6.74805 30.3438 6.77734 30.3359 6.79688C30.3516 6.83984 30.3574 6.88281 30.3535 6.92578C30.3535 6.96875 30.3633 7.00977 30.3828 7.04883C30.3477 7.08008 30.3301 7.12305 30.3301 7.17773C30.3301 7.20117 30.3301 7.22461 30.3301 7.24805C30.334 7.27148 30.3359 7.29492 30.3359 7.31836V7.38867C30.3242 7.4668 30.3164 7.54688 30.3125 7.62891C30.3086 7.70703 30.3066 7.78516 30.3066 7.86328C30.3066 7.89844 30.3066 7.95898 30.3066 8.04492C30.3105 8.12695 30.3164 8.2207 30.3242 8.32617C30.332 8.42773 30.3438 8.5332 30.3594 8.64258C30.375 8.75195 30.3945 8.85352 30.418 8.94727C30.4453 9.03711 30.4785 9.11133 30.5176 9.16992C30.5566 9.22852 30.6035 9.25781 30.6582 9.25781C30.6699 9.25781 30.6836 9.25586 30.6992 9.25195C30.7188 9.24805 30.7285 9.23828 30.7285 9.22266C30.7285 9.20703 30.7246 9.19336 30.7168 9.18164C30.7129 9.16992 30.7109 9.15625 30.7109 9.14062L30.7168 9.12891C30.748 9.14453 30.7812 9.1543 30.8164 9.1582C30.8555 9.16211 30.8945 9.16602 30.9336 9.16992C30.9727 9.17383 31.0098 9.17969 31.0449 9.1875C31.0801 9.19922 31.1113 9.2207 31.1387 9.25195C31.123 9.2832 31.1152 9.31641 31.1152 9.35156C31.1152 9.39844 31.127 9.44141 31.1504 9.48047C31.1738 9.52344 31.1895 9.56641 31.1973 9.60938C31.123 9.63281 31.0547 9.6582 30.9922 9.68555C30.9336 9.7168 30.875 9.74414 30.8164 9.76758C30.7578 9.79492 30.6953 9.81836 30.6289 9.83789C30.5625 9.86133 30.4863 9.87695 30.4004 9.88477C30.3457 9.84961 30.2988 9.81836 30.2598 9.79102C30.2207 9.76367 30.168 9.74609 30.1016 9.73828C30 9.60156 29.916 9.44727 29.8496 9.27539C29.7832 9.10742 29.7305 8.93164 29.6914 8.74805C29.6562 8.56445 29.6309 8.38086 29.6152 8.19727C29.6035 8.00977 29.5977 7.83398 29.5977 7.66992C29.5977 7.49023 29.6035 7.3125 29.6152 7.13672C29.6309 6.95703 29.6504 6.77734 29.6738 6.59766C29.6816 6.54297 29.6895 6.48828 29.6973 6.43359C29.7051 6.375 29.7129 6.31836 29.7207 6.26367C29.7285 6.24414 29.7344 6.22266 29.7383 6.19922C29.7461 6.17188 29.75 6.14844 29.75 6.12891C29.75 6.0625 29.748 5.99609 29.7441 5.92969C29.7402 5.86328 29.7383 5.79883 29.7383 5.73633C29.7383 5.63867 29.7441 5.53906 29.7559 5.4375C29.7598 5.41797 29.7656 5.39258 29.7734 5.36133C29.7852 5.33008 29.791 5.30273 29.791 5.2793C29.791 5.24805 29.7832 5.22656 29.7676 5.21484C29.752 5.20312 29.7383 5.18359 29.7266 5.15625C29.7383 5.11719 29.748 5.08008 29.7559 5.04492C29.7637 5.00586 29.7676 4.9668 29.7676 4.92773C29.7676 4.85352 29.7539 4.78906 29.7266 4.73438C29.7461 4.63281 29.7754 4.5332 29.8145 4.43555C29.8535 4.33789 29.9219 4.26367 30.0195 4.21289C30.0977 4.2168 30.1758 4.22461 30.2539 4.23633C30.3359 4.24805 30.4062 4.28125 30.4648 4.33594C30.4922 4.32031 30.5234 4.31055 30.5586 4.30664L30.6699 4.29492C30.709 4.29102 30.7441 4.28516 30.7754 4.27734C30.8066 4.26562 30.834 4.24414 30.8574 4.21289C30.9355 4.19727 31.0195 4.17578 31.1094 4.14844C31.1992 4.11719 31.2773 4.08203 31.3438 4.04297H31.4727C31.5 4.02344 31.5312 4.00977 31.5664 4.00195L31.6777 3.97266C31.7168 3.96094 31.752 3.94922 31.7832 3.9375C31.8184 3.92578 31.8457 3.90625 31.8652 3.87891H31.8887C31.9785 3.87891 32.0664 3.85938 32.1523 3.82031C32.2383 3.78125 32.3223 3.74609 32.4043 3.71484C32.4238 3.70703 32.4531 3.69336 32.4922 3.67383C32.5352 3.6543 32.5645 3.64453 32.5801 3.64453C32.6348 3.63672 32.6895 3.63281 32.7441 3.63281C32.7988 3.62891 32.8535 3.62109 32.9082 3.60938C33.0332 3.58984 33.1562 3.56836 33.2773 3.54492C33.4023 3.51758 33.5273 3.50391 33.6523 3.50391C33.6953 3.50391 33.7344 3.50586 33.7695 3.50977C33.8086 3.50977 33.8496 3.51172 33.8926 3.51562C33.8965 3.53125 33.9062 3.54492 33.9219 3.55664C33.9375 3.56445 33.9512 3.57227 33.9629 3.58008C33.9785 3.58789 33.9922 3.59961 34.0039 3.61523C34.0156 3.62695 34.0195 3.64453 34.0156 3.66797C34.0234 3.67578 34.0312 3.67969 34.0391 3.67969C34.0508 3.67969 34.0605 3.67383 34.0684 3.66211C34.0801 3.65039 34.0957 3.64453 34.1152 3.64453H34.1445C34.1953 3.69922 34.2441 3.75195 34.291 3.80273C34.3418 3.84961 34.4043 3.88867 34.4785 3.91992C34.5098 4.03711 34.5469 4.15234 34.5898 4.26562C34.6328 4.37891 34.6543 4.5 34.6543 4.62891C34.6543 4.70703 34.6426 4.7832 34.6191 4.85742C34.5645 4.88477 34.5254 4.92773 34.502 4.98633C34.4785 5.04492 34.457 5.10156 34.4375 5.15625C34.3281 5.21094 34.2363 5.2832 34.1621 5.37305C34.0879 5.46289 34.0117 5.55273 33.9336 5.64258H33.8398C33.8242 5.64258 33.8125 5.64844 33.8047 5.66016L33.752 5.71875C33.7168 5.75 33.6777 5.78125 33.6348 5.8125C33.5957 5.84375 33.5664 5.88477 33.5469 5.93555C33.4258 6.00195 33.3086 6.07617 33.1953 6.1582C33.0859 6.24023 32.9805 6.32617 32.8789 6.41602C32.8359 6.45117 32.793 6.49219 32.75 6.53906C32.707 6.58203 32.6641 6.61914 32.6211 6.65039C32.5977 6.66992 32.5703 6.6875 32.5391 6.70312C32.5117 6.71484 32.4863 6.73047 32.4629 6.75C32.4121 6.78906 32.3652 6.83008 32.3223 6.87305C32.2793 6.91211 32.2344 6.94922 32.1875 6.98438C32.3633 6.97656 32.541 6.97266 32.7207 6.97266C32.9004 6.96875 33.0781 6.96484 33.2539 6.96094C33.3438 6.96094 33.4316 6.95898 33.5176 6.95508C33.6035 6.94727 33.6914 6.94336 33.7812 6.94336C33.7969 6.94336 33.8105 6.94727 33.8223 6.95508C33.834 6.95898 33.8477 6.96289 33.8633 6.9668C33.9297 6.97852 33.9883 6.99219 34.0391 7.00781C34.2266 7.04297 34.4141 7.07422 34.6016 7.10156C34.7891 7.12891 34.9727 7.17383 35.1523 7.23633C35.2031 7.25586 35.2402 7.27734 35.2637 7.30078C35.291 7.32422 35.3379 7.33008 35.4043 7.31836C35.459 7.37305 35.5176 7.41602 35.5801 7.44727C35.6465 7.47852 35.7129 7.50586 35.7793 7.5293C35.8301 7.60742 35.877 7.68164 35.9199 7.75195C35.9668 7.82227 35.9902 7.90625 35.9902 8.00391ZM40.0156 5.60742C39.9922 5.64258 39.9785 5.68164 39.9746 5.72461C39.9707 5.76758 39.9688 5.80664 39.9688 5.8418C39.9688 5.88867 39.9688 5.93555 39.9688 5.98242C39.9727 6.02539 39.9746 6.06836 39.9746 6.11133V6.19922C39.9668 6.22656 39.9551 6.25391 39.9395 6.28125C39.9238 6.30859 39.9121 6.33594 39.9043 6.36328C39.8496 6.50781 39.8223 6.65234 39.8223 6.79688V6.80859C39.8027 6.85547 39.7832 6.89844 39.7637 6.9375C39.748 6.97656 39.7324 7.01562 39.7168 7.05469C39.7012 7.08984 39.6895 7.12891 39.6816 7.17188C39.6738 7.21094 39.6719 7.25781 39.6758 7.3125C39.6211 7.44922 39.5488 7.57422 39.459 7.6875C39.3691 7.79688 39.2812 7.91016 39.1953 8.02734C39.1133 8.05859 39.0371 8.09961 38.9668 8.15039C38.9004 8.20117 38.8359 8.25781 38.7734 8.32031C38.6523 8.35938 38.5332 8.4043 38.416 8.45508C38.2988 8.50586 38.1934 8.57422 38.0996 8.66016C38.0254 8.66797 37.9512 8.67969 37.877 8.69531C37.8027 8.71094 37.7305 8.73438 37.6602 8.76562H37.5898C37.5547 8.76562 37.5293 8.75781 37.5137 8.74219C37.4629 8.76953 37.4102 8.78906 37.3555 8.80078C37.3008 8.80859 37.2461 8.8125 37.1914 8.8125C37.1211 8.8125 37.0508 8.80859 36.9805 8.80078C36.9141 8.78906 36.8457 8.77734 36.7754 8.76562C36.7363 8.71094 36.6816 8.66992 36.6113 8.64258C36.541 8.61133 36.4785 8.58203 36.4238 8.55469C36.3105 8.39844 36.2285 8.24805 36.1777 8.10352C36.127 7.95508 36.0742 7.78906 36.0195 7.60547C36.0273 7.55078 36.041 7.49805 36.0605 7.44727C36.0801 7.39258 36.0879 7.33398 36.084 7.27148C36.1543 7.06836 36.2461 6.88477 36.3594 6.7207C36.4766 6.55273 36.6094 6.39258 36.7578 6.24023C36.7578 6.2168 36.7617 6.19727 36.7695 6.18164C36.7812 6.16602 36.7832 6.14258 36.7754 6.11133C36.7793 6.11523 36.7871 6.11719 36.7988 6.11719C36.8301 6.11719 36.8496 6.10938 36.8574 6.09375C36.8652 6.07422 36.8672 6.05273 36.8633 6.0293C37.0039 5.93945 37.1309 5.83594 37.2441 5.71875C37.3613 5.60156 37.4941 5.50391 37.6426 5.42578C37.6543 5.39062 37.6738 5.36133 37.7012 5.33789C37.7285 5.31445 37.75 5.28711 37.7656 5.25586C37.8906 5.2207 38.0039 5.16797 38.1055 5.09766C38.207 5.02734 38.3145 4.96484 38.4277 4.91016C38.4902 4.875 38.5488 4.85156 38.6035 4.83984C38.6621 4.82422 38.7246 4.80859 38.791 4.79297C38.8145 4.78516 38.8359 4.7793 38.8555 4.77539C38.875 4.77148 38.8965 4.76953 38.9199 4.76953C38.9902 4.76953 39.0586 4.7832 39.125 4.81055C39.1914 4.83398 39.2598 4.8457 39.3301 4.8457C39.3496 4.8457 39.3652 4.8457 39.377 4.8457C39.3926 4.8418 39.4082 4.83789 39.4238 4.83398C39.4902 4.91602 39.5742 4.97852 39.6758 5.02148C39.6992 5.08008 39.7266 5.13086 39.7578 5.17383C39.793 5.2168 39.8281 5.25977 39.8633 5.30273C39.8984 5.3418 39.9297 5.38672 39.957 5.4375C39.9883 5.48438 40.0078 5.54102 40.0156 5.60742ZM39.4297 5.91211C39.4297 5.89258 39.4277 5.875 39.4238 5.85938C39.3848 5.84766 39.3477 5.83203 39.3125 5.8125C39.2773 5.79297 39.2383 5.7832 39.1953 5.7832C39.168 5.7832 39.1406 5.78906 39.1133 5.80078C39.1094 5.77344 39.0977 5.75391 39.0781 5.74219C39.0625 5.73047 39.043 5.7207 39.0195 5.71289C39 5.70117 38.9785 5.69336 38.9551 5.68945C38.9355 5.68164 38.918 5.66992 38.9023 5.6543C38.8906 5.62305 38.877 5.5918 38.8613 5.56055C38.8496 5.52539 38.8262 5.5 38.791 5.48438C38.7559 5.51953 38.7148 5.54883 38.668 5.57227C38.6211 5.5918 38.5723 5.61133 38.5215 5.63086C38.4746 5.65039 38.4277 5.67383 38.3809 5.70117C38.3379 5.72852 38.3008 5.76172 38.2695 5.80078H38.1641C38.1406 5.84375 38.1074 5.87695 38.0645 5.90039C38.0215 5.91992 37.9844 5.94922 37.9531 5.98828C37.8906 6.01953 37.832 6.05859 37.7773 6.10547C37.7266 6.14844 37.6758 6.19531 37.625 6.24609C37.5742 6.29297 37.5234 6.3418 37.4727 6.39258C37.4258 6.44336 37.375 6.49023 37.3203 6.5332C37.2695 6.64258 37.2129 6.73828 37.1504 6.82031C37.0918 6.89844 37.0352 6.97852 36.9805 7.06055C36.9297 7.14258 36.8848 7.23242 36.8457 7.33008C36.8105 7.42383 36.793 7.54102 36.793 7.68164V7.74023C36.793 7.75977 36.7949 7.7793 36.7988 7.79883C36.8496 7.85352 36.8906 7.91211 36.9219 7.97461C36.957 8.03711 37.0137 8.08203 37.0918 8.10938C37.1699 8.14062 37.252 8.1543 37.3379 8.15039C37.4277 8.14648 37.5137 8.15625 37.5957 8.17969C37.7832 8.14453 37.9629 8.08789 38.1348 8.00977C38.3105 7.92773 38.4766 7.83008 38.6328 7.7168C38.6562 7.69727 38.6836 7.67773 38.7148 7.6582C38.7461 7.63477 38.7715 7.61133 38.791 7.58789C38.8105 7.56836 38.8262 7.54688 38.8379 7.52344C38.8535 7.5 38.8691 7.47852 38.8848 7.45898C38.916 7.4082 38.9512 7.35742 38.9902 7.30664C39.0293 7.25586 39.0703 7.20898 39.1133 7.16602C39.1328 7.08008 39.1582 6.99805 39.1895 6.91992C39.2207 6.83789 39.252 6.75781 39.2832 6.67969C39.3145 6.60156 39.3398 6.52148 39.3594 6.43945C39.3828 6.35742 39.3945 6.27148 39.3945 6.18164C39.3945 6.16211 39.3926 6.14062 39.3887 6.11719C39.3887 6.09375 39.3867 6.07227 39.3828 6.05273C39.4141 6.00977 39.4297 5.96289 39.4297 5.91211ZM44.1289 5.60742C44.1055 5.64258 44.0918 5.68164 44.0879 5.72461C44.084 5.76758 44.082 5.80664 44.082 5.8418C44.082 5.88867 44.082 5.93555 44.082 5.98242C44.0859 6.02539 44.0879 6.06836 44.0879 6.11133V6.19922C44.0801 6.22656 44.0684 6.25391 44.0527 6.28125C44.0371 6.30859 44.0254 6.33594 44.0176 6.36328C43.9629 6.50781 43.9355 6.65234 43.9355 6.79688V6.80859C43.916 6.85547 43.8965 6.89844 43.877 6.9375C43.8613 6.97656 43.8457 7.01562 43.8301 7.05469C43.8145 7.08984 43.8027 7.12891 43.7949 7.17188C43.7871 7.21094 43.7852 7.25781 43.7891 7.3125C43.7344 7.44922 43.6621 7.57422 43.5723 7.6875C43.4824 7.79688 43.3945 7.91016 43.3086 8.02734C43.2266 8.05859 43.1504 8.09961 43.0801 8.15039C43.0137 8.20117 42.9492 8.25781 42.8867 8.32031C42.7656 8.35938 42.6465 8.4043 42.5293 8.45508C42.4121 8.50586 42.3066 8.57422 42.2129 8.66016C42.1387 8.66797 42.0645 8.67969 41.9902 8.69531C41.916 8.71094 41.8438 8.73438 41.7734 8.76562H41.7031C41.668 8.76562 41.6426 8.75781 41.627 8.74219C41.5762 8.76953 41.5234 8.78906 41.4688 8.80078C41.4141 8.80859 41.3594 8.8125 41.3047 8.8125C41.2344 8.8125 41.1641 8.80859 41.0938 8.80078C41.0273 8.78906 40.959 8.77734 40.8887 8.76562C40.8496 8.71094 40.7949 8.66992 40.7246 8.64258C40.6543 8.61133 40.5918 8.58203 40.5371 8.55469C40.4238 8.39844 40.3418 8.24805 40.291 8.10352C40.2402 7.95508 40.1875 7.78906 40.1328 7.60547C40.1406 7.55078 40.1543 7.49805 40.1738 7.44727C40.1934 7.39258 40.2012 7.33398 40.1973 7.27148C40.2676 7.06836 40.3594 6.88477 40.4727 6.7207C40.5898 6.55273 40.7227 6.39258 40.8711 6.24023C40.8711 6.2168 40.875 6.19727 40.8828 6.18164C40.8945 6.16602 40.8965 6.14258 40.8887 6.11133C40.8926 6.11523 40.9004 6.11719 40.9121 6.11719C40.9434 6.11719 40.9629 6.10938 40.9707 6.09375C40.9785 6.07422 40.9805 6.05273 40.9766 6.0293C41.1172 5.93945 41.2441 5.83594 41.3574 5.71875C41.4746 5.60156 41.6074 5.50391 41.7559 5.42578C41.7676 5.39062 41.7871 5.36133 41.8145 5.33789C41.8418 5.31445 41.8633 5.28711 41.8789 5.25586C42.0039 5.2207 42.1172 5.16797 42.2188 5.09766C42.3203 5.02734 42.4277 4.96484 42.541 4.91016C42.6035 4.875 42.6621 4.85156 42.7168 4.83984C42.7754 4.82422 42.8379 4.80859 42.9043 4.79297C42.9277 4.78516 42.9492 4.7793 42.9688 4.77539C42.9883 4.77148 43.0098 4.76953 43.0332 4.76953C43.1035 4.76953 43.1719 4.7832 43.2383 4.81055C43.3047 4.83398 43.373 4.8457 43.4434 4.8457C43.4629 4.8457 43.4785 4.8457 43.4902 4.8457C43.5059 4.8418 43.5215 4.83789 43.5371 4.83398C43.6035 4.91602 43.6875 4.97852 43.7891 5.02148C43.8125 5.08008 43.8398 5.13086 43.8711 5.17383C43.9062 5.2168 43.9414 5.25977 43.9766 5.30273C44.0117 5.3418 44.043 5.38672 44.0703 5.4375C44.1016 5.48438 44.1211 5.54102 44.1289 5.60742ZM43.543 5.91211C43.543 5.89258 43.541 5.875 43.5371 5.85938C43.498 5.84766 43.4609 5.83203 43.4258 5.8125C43.3906 5.79297 43.3516 5.7832 43.3086 5.7832C43.2812 5.7832 43.2539 5.78906 43.2266 5.80078C43.2227 5.77344 43.2109 5.75391 43.1914 5.74219C43.1758 5.73047 43.1562 5.7207 43.1328 5.71289C43.1133 5.70117 43.0918 5.69336 43.0684 5.68945C43.0488 5.68164 43.0312 5.66992 43.0156 5.6543C43.0039 5.62305 42.9902 5.5918 42.9746 5.56055C42.9629 5.52539 42.9395 5.5 42.9043 5.48438C42.8691 5.51953 42.8281 5.54883 42.7812 5.57227C42.7344 5.5918 42.6855 5.61133 42.6348 5.63086C42.5879 5.65039 42.541 5.67383 42.4941 5.70117C42.4512 5.72852 42.4141 5.76172 42.3828 5.80078H42.2773C42.2539 5.84375 42.2207 5.87695 42.1777 5.90039C42.1348 5.91992 42.0977 5.94922 42.0664 5.98828C42.0039 6.01953 41.9453 6.05859 41.8906 6.10547C41.8398 6.14844 41.7891 6.19531 41.7383 6.24609C41.6875 6.29297 41.6367 6.3418 41.5859 6.39258C41.5391 6.44336 41.4883 6.49023 41.4336 6.5332C41.3828 6.64258 41.3262 6.73828 41.2637 6.82031C41.2051 6.89844 41.1484 6.97852 41.0938 7.06055C41.043 7.14258 40.998 7.23242 40.959 7.33008C40.9238 7.42383 40.9062 7.54102 40.9062 7.68164V7.74023C40.9062 7.75977 40.9082 7.7793 40.9121 7.79883C40.9629 7.85352 41.0039 7.91211 41.0352 7.97461C41.0703 8.03711 41.127 8.08203 41.2051 8.10938C41.2832 8.14062 41.3652 8.1543 41.4512 8.15039C41.541 8.14648 41.627 8.15625 41.709 8.17969C41.8965 8.14453 42.0762 8.08789 42.248 8.00977C42.4238 7.92773 42.5898 7.83008 42.7461 7.7168C42.7695 7.69727 42.7969 7.67773 42.8281 7.6582C42.8594 7.63477 42.8848 7.61133 42.9043 7.58789C42.9238 7.56836 42.9395 7.54688 42.9512 7.52344C42.9668 7.5 42.9824 7.47852 42.998 7.45898C43.0293 7.4082 43.0645 7.35742 43.1035 7.30664C43.1426 7.25586 43.1836 7.20898 43.2266 7.16602C43.2461 7.08008 43.2715 6.99805 43.3027 6.91992C43.334 6.83789 43.3652 6.75781 43.3965 6.67969C43.4277 6.60156 43.4531 6.52148 43.4727 6.43945C43.4961 6.35742 43.5078 6.27148 43.5078 6.18164C43.5078 6.16211 43.5059 6.14062 43.502 6.11719C43.502 6.09375 43.5 6.07227 43.4961 6.05273C43.5273 6.00977 43.543 5.96289 43.543 5.91211ZM49.5781 5.23242C49.5625 5.2832 49.5371 5.33008 49.502 5.37305L49.4023 5.49609C49.3711 5.53516 49.3438 5.57812 49.3203 5.625C49.3008 5.66797 49.2949 5.71875 49.3027 5.77734C49.2949 5.77734 49.2852 5.77734 49.2734 5.77734C49.2617 5.77344 49.252 5.77148 49.2441 5.77148C49.1816 5.77148 49.1328 5.78711 49.0977 5.81836C49.0664 5.8457 49.0234 5.86914 48.9688 5.88867C48.9609 5.86523 48.9512 5.84375 48.9395 5.82422C48.9277 5.80078 48.9102 5.78516 48.8867 5.77734C48.793 5.79688 48.6992 5.8125 48.6055 5.82422C48.5117 5.83203 48.418 5.84375 48.3242 5.85938C48.2812 5.86719 48.2383 5.87891 48.1953 5.89453C48.1523 5.90625 48.1074 5.91797 48.0605 5.92969C48.0371 5.9375 48.0117 5.94141 47.9844 5.94141C47.957 5.9375 47.9297 5.9375 47.9023 5.94141C47.8086 5.94531 47.707 5.95312 47.5977 5.96484C47.4883 5.97266 47.3906 6.00195 47.3047 6.05273C47.2656 6.04492 47.2246 6.03906 47.1816 6.03516C47.1387 6.03125 47.0957 6.0293 47.0527 6.0293C46.959 6.0293 46.8555 6.03906 46.7422 6.05859C46.6328 6.07422 46.5352 6.10742 46.4492 6.1582C46.4297 6.15039 46.4082 6.14453 46.3848 6.14062C46.3652 6.13672 46.3418 6.13477 46.3145 6.13477C46.3066 6.13477 46.3008 6.13672 46.2969 6.14062C46.293 6.14062 46.2871 6.14062 46.2793 6.14062C46.2754 6.17578 46.2793 6.21094 46.291 6.24609C46.3066 6.27734 46.332 6.30273 46.3672 6.32227C46.3516 6.36523 46.3438 6.41211 46.3438 6.46289C46.3438 6.5293 46.3477 6.5957 46.3555 6.66211C46.3672 6.72852 46.373 6.79492 46.373 6.86133C46.373 6.93555 46.3633 6.99414 46.3438 7.03711C46.3828 7.1543 46.4023 7.2793 46.4023 7.41211C46.4023 7.45898 46.3984 7.50586 46.3906 7.55273C46.3867 7.5957 46.3848 7.64258 46.3848 7.69336C46.3848 7.73633 46.4004 7.77148 46.4316 7.79883C46.4629 7.82227 46.4785 7.85547 46.4785 7.89844C46.4785 7.91406 46.4746 7.92969 46.4668 7.94531C46.5215 7.93359 46.5742 7.91797 46.625 7.89844C46.6758 7.875 46.7285 7.86328 46.7832 7.86328C46.8145 7.86328 46.8438 7.86914 46.8711 7.88086C46.9023 7.89258 46.9297 7.9082 46.9531 7.92773C46.9492 7.94727 46.9453 7.96875 46.9414 7.99219C46.9414 8.01562 46.9414 8.03906 46.9414 8.0625C46.9414 8.10547 46.9414 8.14648 46.9414 8.18555C46.9453 8.2207 46.9492 8.25977 46.9531 8.30273C46.9219 8.35742 46.8848 8.40625 46.8418 8.44922C46.8027 8.49219 46.7754 8.54688 46.7598 8.61328C46.7012 8.61328 46.6484 8.62695 46.6016 8.6543C46.5586 8.67773 46.5176 8.70508 46.4785 8.73633C46.4395 8.76367 46.4004 8.79102 46.3613 8.81836C46.3223 8.8418 46.2793 8.85352 46.2324 8.85352C46.1738 8.85352 46.1328 8.8457 46.1094 8.83008C46.0859 8.81055 46.0684 8.79102 46.0566 8.77148C46.0449 8.75195 46.0332 8.73438 46.0215 8.71875C46.0137 8.70312 45.9941 8.69727 45.9629 8.70117C45.9551 8.65039 45.9395 8.60352 45.916 8.56055C45.8926 8.51367 45.8672 8.46875 45.8398 8.42578C45.8164 8.38281 45.791 8.33984 45.7637 8.29688C45.7402 8.25 45.7227 8.20312 45.7109 8.15625C45.6875 8.05469 45.6777 7.94922 45.6816 7.83984C45.6855 7.73047 45.668 7.625 45.6289 7.52344C45.6367 7.46875 45.6426 7.41406 45.6465 7.35938C45.6504 7.30078 45.6523 7.24414 45.6523 7.18945C45.6523 7.08008 45.6484 6.97266 45.6406 6.86719C45.6367 6.75781 45.6328 6.64648 45.6289 6.5332C45.6016 6.49805 45.584 6.45898 45.5762 6.41602C45.5723 6.36914 45.5684 6.32422 45.5645 6.28125C45.5527 6.26953 45.5391 6.25781 45.5234 6.24609C45.5117 6.23438 45.5039 6.21875 45.5 6.19922C45.4688 6.19141 45.4453 6.1875 45.4297 6.1875C45.375 6.1875 45.3281 6.20117 45.2891 6.22852C45.2539 6.25195 45.2207 6.26367 45.1895 6.26367C45.1582 6.26367 45.1289 6.25977 45.1016 6.25195C45.0742 6.24414 45.0469 6.24023 45.0195 6.24023C44.9961 6.24023 44.9824 6.24609 44.9785 6.25781C44.9785 6.26562 44.9707 6.27344 44.9551 6.28125C44.9434 6.28906 44.916 6.29688 44.873 6.30469C44.8301 6.3125 44.7812 6.32031 44.7266 6.32812C44.6758 6.33203 44.625 6.33594 44.5742 6.33984C44.5273 6.34375 44.4961 6.3457 44.4805 6.3457C44.418 6.3457 44.3711 6.33398 44.3398 6.31055C44.3047 6.2832 44.2637 6.25391 44.2168 6.22266C44.2246 6.19922 44.2285 6.18359 44.2285 6.17578C44.2285 6.13672 44.2168 6.10547 44.1934 6.08203C44.1699 6.05469 44.1582 6.03125 44.1582 6.01172C44.1582 5.96875 44.1758 5.93555 44.2109 5.91211C44.2422 5.88867 44.2598 5.85156 44.2637 5.80078C44.3535 5.76172 44.4453 5.73242 44.5391 5.71289C44.6328 5.69336 44.7285 5.67773 44.8262 5.66602C44.9238 5.6543 45.0195 5.64062 45.1133 5.625C45.2109 5.60938 45.3066 5.58398 45.4004 5.54883C45.4277 5.55273 45.4531 5.55664 45.4766 5.56055C45.5039 5.56055 45.5312 5.56055 45.5586 5.56055C45.6758 5.56055 45.791 5.54883 45.9043 5.52539C46.0215 5.49805 46.1406 5.48438 46.2617 5.48438C46.293 5.48438 46.3242 5.48633 46.3555 5.49023C46.3867 5.49414 46.418 5.5 46.4492 5.50781C46.6055 5.48438 46.7598 5.45898 46.9121 5.43164C47.0684 5.4043 47.2285 5.38086 47.3926 5.36133C47.4707 5.35352 47.5469 5.34766 47.6211 5.34375C47.6992 5.33594 47.7773 5.32617 47.8555 5.31445C47.8828 5.31055 47.9023 5.30469 47.9141 5.29688C47.9297 5.28516 47.9375 5.26367 47.9375 5.23242C47.9727 5.24805 48.0117 5.25586 48.0547 5.25586C48.1211 5.25586 48.1855 5.24414 48.248 5.2207C48.3105 5.19727 48.375 5.18555 48.4414 5.18555C48.457 5.18555 48.4707 5.1875 48.4824 5.19141C48.4941 5.19141 48.5059 5.19141 48.5176 5.19141C48.5449 5.19141 48.5586 5.17969 48.5586 5.15625C48.5625 5.12891 48.582 5.11133 48.6172 5.10352C48.6445 5.0957 48.6836 5.08984 48.7344 5.08594C48.7852 5.08203 48.8379 5.07812 48.8926 5.07422C48.9512 5.06641 49.0039 5.05859 49.0508 5.05078C49.1016 5.03906 49.1387 5.02344 49.1621 5.00391L49.2031 4.93945C49.2734 4.94336 49.3242 4.97461 49.3555 5.0332C49.3906 5.08789 49.4102 5.14844 49.4141 5.21484C49.4297 5.23047 49.4512 5.23828 49.4785 5.23828C49.5098 5.23438 49.5371 5.23242 49.5605 5.23242H49.5781ZM53.4922 8.7832C53.4922 8.82227 53.4902 8.85156 53.4863 8.87109C53.4668 8.87891 53.4512 8.89062 53.4395 8.90625C53.4277 8.91797 53.4082 8.92188 53.3809 8.91797C53.373 8.97656 53.3535 9.02539 53.3223 9.06445C53.291 9.10352 53.2578 9.13867 53.2227 9.16992C53.1914 9.20508 53.1602 9.24023 53.1289 9.27539C53.0977 9.31445 53.0781 9.36328 53.0703 9.42188C53.0117 9.45312 52.9531 9.49414 52.8945 9.54492C52.8398 9.59961 52.791 9.63672 52.748 9.65625C52.7168 9.67188 52.6836 9.68359 52.6484 9.69141C52.6133 9.70312 52.5781 9.7168 52.543 9.73242C52.4297 9.7832 52.3125 9.83594 52.1914 9.89062C52.0742 9.94531 51.9512 9.97266 51.8223 9.97266H51.7812C51.7656 9.98828 51.7461 9.99805 51.7227 10.002C51.6992 10.0098 51.6758 10.0156 51.6523 10.0195C51.6289 10.0234 51.6055 10.0293 51.582 10.0371C51.5586 10.0449 51.541 10.0566 51.5293 10.0723C51.4863 10.0566 51.4395 10.0488 51.3887 10.0488H51.3477C51.2812 10.0645 51.2188 10.0762 51.1602 10.084C51.1016 10.0918 51.0391 10.0957 50.9727 10.0957C50.8555 10.0957 50.7383 10.0879 50.6211 10.0723C50.5039 10.0566 50.3867 10.043 50.2695 10.0312C50.1953 9.97266 50.1348 9.89844 50.0879 9.80859C50.041 9.72266 50.0176 9.63086 50.0176 9.5332C50.0176 9.45898 50.0332 9.38867 50.0645 9.32227C50.0957 9.25977 50.1367 9.20312 50.1875 9.15234H50.2051C50.2402 9.15234 50.2754 9.14453 50.3105 9.12891C50.3496 9.11328 50.3867 9.10547 50.4219 9.10547C50.4609 9.10547 50.4922 9.12109 50.5156 9.15234C50.543 9.18359 50.5625 9.2207 50.5742 9.26367C50.5898 9.30664 50.5996 9.34961 50.6035 9.39258C50.6074 9.43945 50.6094 9.47656 50.6094 9.50391C50.6523 9.52344 50.6973 9.53516 50.7441 9.53906C50.7949 9.54297 50.8457 9.54492 50.8965 9.54492C50.9473 9.54492 51.0039 9.54102 51.0664 9.5332C51.1289 9.5293 51.1914 9.51953 51.2539 9.50391C51.3203 9.49219 51.3828 9.47656 51.4414 9.45703C51.5039 9.4375 51.5566 9.41211 51.5996 9.38086C51.8145 9.36133 52.0039 9.3125 52.168 9.23438C52.332 9.15625 52.5059 9.06445 52.6895 8.95898C52.6973 8.91602 52.7129 8.88281 52.7363 8.85938C52.7637 8.83203 52.7773 8.79297 52.7773 8.74219C52.7773 8.73438 52.7754 8.72656 52.7715 8.71875C52.7715 8.70703 52.7715 8.69727 52.7715 8.68945C52.6934 8.5918 52.6113 8.50586 52.5254 8.43164C52.4434 8.35742 52.3359 8.30859 52.2031 8.28516C52.1875 8.25 52.1621 8.22461 52.127 8.20898C52.0918 8.18945 52.0547 8.17188 52.0156 8.15625C51.9766 8.14062 51.9395 8.125 51.9043 8.10938C51.8691 8.08984 51.8438 8.05859 51.8281 8.01562C51.7227 7.99609 51.6133 7.97266 51.5 7.94531C51.3906 7.91406 51.2969 7.85938 51.2188 7.78125C51.1562 7.77734 51.0957 7.76562 51.0371 7.74609C50.9824 7.72266 50.9277 7.70117 50.873 7.68164C50.8184 7.6582 50.7617 7.63867 50.7031 7.62305C50.6445 7.60352 50.584 7.59375 50.5215 7.59375C50.5059 7.56641 50.4844 7.54492 50.457 7.5293C50.4297 7.51367 50.3984 7.5 50.3633 7.48828C50.332 7.47656 50.3008 7.46484 50.2695 7.45312C50.2422 7.4375 50.2207 7.41602 50.2051 7.38867C50.1895 7.39258 50.1777 7.40039 50.1699 7.41211C50.1621 7.42383 50.1484 7.42969 50.1289 7.42969H50.1055C50.0977 7.40625 50.082 7.39062 50.0586 7.38281C50.0352 7.37109 50.0215 7.34961 50.0176 7.31836C49.9473 7.31445 49.8828 7.30078 49.8242 7.27734C49.7695 7.25391 49.7168 7.22852 49.666 7.20117C49.6191 7.16992 49.5703 7.14062 49.5195 7.11328C49.4688 7.08594 49.4121 7.06445 49.3496 7.04883C49.3105 7.01758 49.2734 6.98438 49.2383 6.94922C49.207 6.91016 49.166 6.89062 49.1152 6.89062C49.1035 6.89062 49.082 6.89453 49.0508 6.90234C49.043 6.83203 49.0137 6.7832 48.9629 6.75586C48.9121 6.72461 48.8574 6.69727 48.7988 6.67383C48.7598 6.57227 48.707 6.48242 48.6406 6.4043C48.5742 6.32617 48.502 6.25391 48.4238 6.1875C48.4316 6.16406 48.4355 6.14648 48.4355 6.13477C48.4355 6.0957 48.4258 6.0625 48.4062 6.03516C48.3867 6.00391 48.3652 5.97852 48.3418 5.95898C48.2871 5.7832 48.2598 5.61133 48.2598 5.44336C48.2598 5.20898 48.3125 4.99219 48.418 4.79297C48.5195 4.58984 48.6816 4.4375 48.9043 4.33594C48.9082 4.30469 48.918 4.27734 48.9336 4.25391C48.9531 4.23047 48.9648 4.20312 48.9688 4.17188C49.0039 4.17188 49.0312 4.16406 49.0508 4.14844C49.0703 4.13281 49.0879 4.11719 49.1035 4.10156C49.123 4.08203 49.1426 4.06445 49.1621 4.04883C49.1816 4.0332 49.207 4.02344 49.2383 4.01953C49.3867 3.89062 49.5449 3.78711 49.7129 3.70898C49.8809 3.62695 50.0527 3.54297 50.2285 3.45703C50.2637 3.44141 50.293 3.41211 50.3164 3.36914H50.3516C50.3906 3.36914 50.4199 3.36133 50.4395 3.3457C50.4629 3.32617 50.4961 3.32031 50.5391 3.32812C50.5547 3.30469 50.5742 3.28906 50.5977 3.28125C50.625 3.27344 50.6504 3.26758 50.6738 3.26367C50.7012 3.25586 50.7266 3.24609 50.75 3.23438C50.7734 3.22266 50.7891 3.20508 50.7969 3.18164H50.8379C50.9043 3.18164 50.9688 3.17188 51.0312 3.15234C51.0938 3.12891 51.1562 3.10352 51.2188 3.07617H51.2598C51.3379 3.07617 51.4102 3.0625 51.4766 3.03516C51.5469 3.00391 51.6211 2.98242 51.6992 2.9707C51.7305 2.96289 51.7617 2.96094 51.793 2.96484C51.8242 2.96875 51.8555 2.9707 51.8867 2.9707C51.9062 2.9707 51.9297 2.96875 51.957 2.96484C51.9844 2.96094 52.0039 2.94922 52.0156 2.92969H52.0273C52.0508 2.92969 52.0645 2.9375 52.0684 2.95312C52.0723 2.96875 52.084 2.97656 52.1035 2.97656C52.1309 2.97656 52.1582 2.97266 52.1855 2.96484C52.2129 2.95703 52.2402 2.95312 52.2676 2.95312C52.3848 2.95312 52.5 2.96484 52.6133 2.98828C52.7305 3.01172 52.8457 3.0332 52.959 3.05273C52.9668 3.09961 52.9863 3.13281 53.0176 3.15234C53.0527 3.17188 53.0898 3.18945 53.1289 3.20508V3.22852C53.1289 3.25977 53.1367 3.28516 53.1523 3.30469C53.1367 3.35938 53.1094 3.40039 53.0703 3.42773C53.0312 3.45508 52.9883 3.47852 52.9414 3.49805C52.9609 3.51367 52.9727 3.53516 52.9766 3.5625C52.9805 3.58984 52.9824 3.61523 52.9824 3.63867V3.70898L52.9531 3.70312C52.8906 3.70312 52.8594 3.73242 52.8594 3.79102C52.8086 3.75977 52.752 3.74023 52.6895 3.73242C52.6309 3.72461 52.5723 3.7207 52.5137 3.7207C52.4355 3.7207 52.3535 3.72461 52.2676 3.73242C52.1816 3.73633 52.0977 3.73438 52.0156 3.72656C51.9844 3.76562 51.9453 3.79492 51.8984 3.81445C51.8516 3.83008 51.8047 3.83789 51.7578 3.83789C51.707 3.83789 51.6582 3.82812 51.6113 3.80859C51.5645 3.78516 51.5312 3.75195 51.5117 3.70898C51.4922 3.70117 51.4746 3.69727 51.459 3.69727H51.4062C51.3438 3.69727 51.2812 3.70508 51.2188 3.7207C51.1602 3.73242 51.0996 3.74805 51.0371 3.76758C50.9746 3.7832 50.9121 3.80078 50.8496 3.82031C50.791 3.83594 50.7305 3.8457 50.668 3.84961C50.6445 3.88086 50.6133 3.90234 50.5742 3.91406C50.5352 3.92578 50.5039 3.94727 50.4805 3.97852C50.3984 3.99414 50.3242 4.02148 50.2578 4.06055C50.1914 4.0957 50.127 4.13477 50.0645 4.17773L49.8828 4.30078C49.8242 4.33984 49.7578 4.37305 49.6836 4.40039C49.6289 4.45898 49.5781 4.50586 49.5312 4.54102C49.4844 4.57617 49.4238 4.60742 49.3496 4.63477C49.3027 4.65039 49.2754 4.67383 49.2676 4.70508C49.2637 4.73633 49.248 4.76758 49.2207 4.79883C49.1973 4.82617 49.168 4.84766 49.1328 4.86328C49.1016 4.875 49.0742 4.89648 49.0508 4.92773C49.0312 4.95508 49.0156 4.98828 49.0039 5.02734C48.9961 5.0625 48.9863 5.09766 48.9746 5.13281C48.9629 5.16797 48.9492 5.20312 48.9336 5.23828C48.918 5.26953 48.8945 5.29688 48.8633 5.32031C48.8633 5.33594 48.8613 5.35156 48.8574 5.36719C48.8574 5.38281 48.8574 5.39648 48.8574 5.4082C48.8574 5.46289 48.8633 5.51953 48.875 5.57812C48.8906 5.63281 48.9004 5.6875 48.9043 5.74219C48.9824 5.87891 49.0742 6.00391 49.1797 6.11719C49.2852 6.22656 49.3984 6.32812 49.5195 6.42188C49.6406 6.51562 49.7656 6.60352 49.8945 6.68555C50.0273 6.76758 50.1582 6.84766 50.2871 6.92578C50.334 6.92188 50.377 6.92773 50.416 6.94336C50.4551 6.95508 50.4961 6.96289 50.5391 6.9668C50.5859 7.00195 50.6406 7.0293 50.7031 7.04883L50.8906 7.10742C50.9531 7.12695 51.0137 7.15039 51.0723 7.17773C51.1309 7.20117 51.1797 7.23438 51.2188 7.27734C51.2383 7.28125 51.2559 7.28711 51.2715 7.29492C51.2871 7.29883 51.3047 7.30078 51.3242 7.30078C51.3477 7.30078 51.3613 7.29297 51.3652 7.27734C51.541 7.34375 51.7129 7.41797 51.8809 7.5C52.0488 7.57812 52.2266 7.63867 52.4141 7.68164C52.4883 7.74414 52.5703 7.79883 52.6602 7.8457C52.75 7.89258 52.8398 7.94141 52.9297 7.99219C53.0195 8.03906 53.1055 8.0918 53.1875 8.15039C53.2695 8.20508 53.3418 8.27148 53.4043 8.34961C53.4121 8.42383 53.4277 8.49609 53.4512 8.56641C53.4785 8.63281 53.4922 8.70508 53.4922 8.7832ZM58.8535 5.23242C58.8379 5.2832 58.8125 5.33008 58.7773 5.37305L58.6777 5.49609C58.6465 5.53516 58.6191 5.57812 58.5957 5.625C58.5762 5.66797 58.5703 5.71875 58.5781 5.77734C58.5703 5.77734 58.5605 5.77734 58.5488 5.77734C58.5371 5.77344 58.5273 5.77148 58.5195 5.77148C58.457 5.77148 58.4082 5.78711 58.373 5.81836C58.3418 5.8457 58.2988 5.86914 58.2441 5.88867C58.2363 5.86523 58.2266 5.84375 58.2148 5.82422C58.2031 5.80078 58.1855 5.78516 58.1621 5.77734C58.0684 5.79688 57.9746 5.8125 57.8809 5.82422C57.7871 5.83203 57.6934 5.84375 57.5996 5.85938C57.5566 5.86719 57.5137 5.87891 57.4707 5.89453C57.4277 5.90625 57.3828 5.91797 57.3359 5.92969C57.3125 5.9375 57.2871 5.94141 57.2598 5.94141C57.2324 5.9375 57.2051 5.9375 57.1777 5.94141C57.084 5.94531 56.9824 5.95312 56.873 5.96484C56.7637 5.97266 56.666 6.00195 56.5801 6.05273C56.541 6.04492 56.5 6.03906 56.457 6.03516C56.4141 6.03125 56.3711 6.0293 56.3281 6.0293C56.2344 6.0293 56.1309 6.03906 56.0176 6.05859C55.9082 6.07422 55.8105 6.10742 55.7246 6.1582C55.7051 6.15039 55.6836 6.14453 55.6602 6.14062C55.6406 6.13672 55.6172 6.13477 55.5898 6.13477C55.582 6.13477 55.5762 6.13672 55.5723 6.14062C55.5684 6.14062 55.5625 6.14062 55.5547 6.14062C55.5508 6.17578 55.5547 6.21094 55.5664 6.24609C55.582 6.27734 55.6074 6.30273 55.6426 6.32227C55.627 6.36523 55.6191 6.41211 55.6191 6.46289C55.6191 6.5293 55.623 6.5957 55.6309 6.66211C55.6426 6.72852 55.6484 6.79492 55.6484 6.86133C55.6484 6.93555 55.6387 6.99414 55.6191 7.03711C55.6582 7.1543 55.6777 7.2793 55.6777 7.41211C55.6777 7.45898 55.6738 7.50586 55.666 7.55273C55.6621 7.5957 55.6602 7.64258 55.6602 7.69336C55.6602 7.73633 55.6758 7.77148 55.707 7.79883C55.7383 7.82227 55.7539 7.85547 55.7539 7.89844C55.7539 7.91406 55.75 7.92969 55.7422 7.94531C55.7969 7.93359 55.8496 7.91797 55.9004 7.89844C55.9512 7.875 56.0039 7.86328 56.0586 7.86328C56.0898 7.86328 56.1191 7.86914 56.1465 7.88086C56.1777 7.89258 56.2051 7.9082 56.2285 7.92773C56.2246 7.94727 56.2207 7.96875 56.2168 7.99219C56.2168 8.01562 56.2168 8.03906 56.2168 8.0625C56.2168 8.10547 56.2168 8.14648 56.2168 8.18555C56.2207 8.2207 56.2246 8.25977 56.2285 8.30273C56.1973 8.35742 56.1602 8.40625 56.1172 8.44922C56.0781 8.49219 56.0508 8.54688 56.0352 8.61328C55.9766 8.61328 55.9238 8.62695 55.877 8.6543C55.834 8.67773 55.793 8.70508 55.7539 8.73633C55.7148 8.76367 55.6758 8.79102 55.6367 8.81836C55.5977 8.8418 55.5547 8.85352 55.5078 8.85352C55.4492 8.85352 55.4082 8.8457 55.3848 8.83008C55.3613 8.81055 55.3438 8.79102 55.332 8.77148C55.3203 8.75195 55.3086 8.73438 55.2969 8.71875C55.2891 8.70312 55.2695 8.69727 55.2383 8.70117C55.2305 8.65039 55.2148 8.60352 55.1914 8.56055C55.168 8.51367 55.1426 8.46875 55.1152 8.42578C55.0918 8.38281 55.0664 8.33984 55.0391 8.29688C55.0156 8.25 54.998 8.20312 54.9863 8.15625C54.9629 8.05469 54.9531 7.94922 54.957 7.83984C54.9609 7.73047 54.9434 7.625 54.9043 7.52344C54.9121 7.46875 54.918 7.41406 54.9219 7.35938C54.9258 7.30078 54.9277 7.24414 54.9277 7.18945C54.9277 7.08008 54.9238 6.97266 54.916 6.86719C54.9121 6.75781 54.9082 6.64648 54.9043 6.5332C54.877 6.49805 54.8594 6.45898 54.8516 6.41602C54.8477 6.36914 54.8438 6.32422 54.8398 6.28125C54.8281 6.26953 54.8145 6.25781 54.7988 6.24609C54.7871 6.23438 54.7793 6.21875 54.7754 6.19922C54.7441 6.19141 54.7207 6.1875 54.7051 6.1875C54.6504 6.1875 54.6035 6.20117 54.5645 6.22852C54.5293 6.25195 54.4961 6.26367 54.4648 6.26367C54.4336 6.26367 54.4043 6.25977 54.377 6.25195C54.3496 6.24414 54.3223 6.24023 54.2949 6.24023C54.2715 6.24023 54.2578 6.24609 54.2539 6.25781C54.2539 6.26562 54.2461 6.27344 54.2305 6.28125C54.2188 6.28906 54.1914 6.29688 54.1484 6.30469C54.1055 6.3125 54.0566 6.32031 54.002 6.32812C53.9512 6.33203 53.9004 6.33594 53.8496 6.33984C53.8027 6.34375 53.7715 6.3457 53.7559 6.3457C53.6934 6.3457 53.6465 6.33398 53.6152 6.31055C53.5801 6.2832 53.5391 6.25391 53.4922 6.22266C53.5 6.19922 53.5039 6.18359 53.5039 6.17578C53.5039 6.13672 53.4922 6.10547 53.4688 6.08203C53.4453 6.05469 53.4336 6.03125 53.4336 6.01172C53.4336 5.96875 53.4512 5.93555 53.4863 5.91211C53.5176 5.88867 53.5352 5.85156 53.5391 5.80078C53.6289 5.76172 53.7207 5.73242 53.8145 5.71289C53.9082 5.69336 54.0039 5.67773 54.1016 5.66602C54.1992 5.6543 54.2949 5.64062 54.3887 5.625C54.4863 5.60938 54.582 5.58398 54.6758 5.54883C54.7031 5.55273 54.7285 5.55664 54.752 5.56055C54.7793 5.56055 54.8066 5.56055 54.834 5.56055C54.9512 5.56055 55.0664 5.54883 55.1797 5.52539C55.2969 5.49805 55.416 5.48438 55.5371 5.48438C55.5684 5.48438 55.5996 5.48633 55.6309 5.49023C55.6621 5.49414 55.6934 5.5 55.7246 5.50781C55.8809 5.48438 56.0352 5.45898 56.1875 5.43164C56.3438 5.4043 56.5039 5.38086 56.668 5.36133C56.7461 5.35352 56.8223 5.34766 56.8965 5.34375C56.9746 5.33594 57.0527 5.32617 57.1309 5.31445C57.1582 5.31055 57.1777 5.30469 57.1895 5.29688C57.2051 5.28516 57.2129 5.26367 57.2129 5.23242C57.248 5.24805 57.2871 5.25586 57.3301 5.25586C57.3965 5.25586 57.4609 5.24414 57.5234 5.2207C57.5859 5.19727 57.6504 5.18555 57.7168 5.18555C57.7324 5.18555 57.7461 5.1875 57.7578 5.19141C57.7695 5.19141 57.7812 5.19141 57.793 5.19141C57.8203 5.19141 57.834 5.17969 57.834 5.15625C57.8379 5.12891 57.8574 5.11133 57.8926 5.10352C57.9199 5.0957 57.959 5.08984 58.0098 5.08594C58.0605 5.08203 58.1133 5.07812 58.168 5.07422C58.2266 5.06641 58.2793 5.05859 58.3262 5.05078C58.377 5.03906 58.4141 5.02344 58.4375 5.00391L58.4785 4.93945C58.5488 4.94336 58.5996 4.97461 58.6309 5.0332C58.666 5.08789 58.6855 5.14844 58.6895 5.21484C58.7051 5.23047 58.7266 5.23828 58.7539 5.23828C58.7852 5.23438 58.8125 5.23242 58.8359 5.23242H58.8535ZM65.5273 7.98047C65.5195 8.03906 65.498 8.08398 65.4629 8.11523C65.4316 8.14648 65.3945 8.17578 65.3516 8.20312C65.332 8.19922 65.3125 8.19727 65.293 8.19727C65.2773 8.19336 65.2598 8.19141 65.2402 8.19141C65.1191 8.1875 65.0039 8.20312 64.8945 8.23828C64.7891 8.27344 64.6797 8.29883 64.5664 8.31445C64.5273 8.32227 64.4902 8.32617 64.4551 8.32617C64.4238 8.32227 64.3906 8.32422 64.3555 8.33203C64.2305 8.35156 64.0977 8.36719 63.957 8.37891C63.8164 8.39062 63.6758 8.40625 63.5352 8.42578C63.3945 8.44141 63.2559 8.46289 63.1191 8.49023C62.9863 8.51367 62.8613 8.54883 62.7441 8.5957C62.7324 8.58789 62.7207 8.58008 62.709 8.57227C62.6973 8.56055 62.6836 8.55469 62.668 8.55469C62.6289 8.55469 62.5918 8.56055 62.5566 8.57227C62.5215 8.58398 62.4863 8.58789 62.4512 8.58398C62.4121 8.60742 62.3691 8.625 62.3223 8.63672C62.2793 8.64453 62.2344 8.65234 62.1875 8.66016C62.1445 8.66406 62.1016 8.67188 62.0586 8.68359C62.0156 8.69531 61.9746 8.7168 61.9355 8.74805C61.9043 8.73242 61.8652 8.72461 61.8184 8.72461C61.7754 8.7207 61.7461 8.70508 61.7305 8.67773C61.6406 8.7207 61.5449 8.74805 61.4434 8.75977C61.3457 8.77148 61.2461 8.77539 61.1445 8.77148C61.0781 8.76758 61.002 8.75781 60.916 8.74219C60.8301 8.72656 60.7441 8.70508 60.6582 8.67773C60.5723 8.64648 60.4922 8.61133 60.418 8.57227C60.3438 8.5293 60.2871 8.47852 60.248 8.41992C60.2207 8.38086 60.2012 8.33789 60.1895 8.29102C60.1777 8.24414 60.1504 8.20898 60.1074 8.18555C60.1191 8.0957 60.1328 8.00781 60.1484 7.92188C60.1641 7.83594 60.1797 7.74805 60.1953 7.6582C60.2734 7.5918 60.3477 7.52148 60.418 7.44727C60.4883 7.37305 60.5547 7.29492 60.6172 7.21289C60.6914 7.17773 60.7598 7.13477 60.8223 7.08398C60.8887 7.0332 60.9531 6.98242 61.0156 6.93164C61.082 6.87695 61.1465 6.82422 61.209 6.77344C61.2754 6.72266 61.3457 6.67773 61.4199 6.63867C61.4316 6.61133 61.4473 6.58984 61.4668 6.57422C61.4902 6.55469 61.5137 6.53711 61.5371 6.52148C61.5605 6.50195 61.582 6.48242 61.6016 6.46289C61.6211 6.43945 61.6348 6.41211 61.6426 6.38086C61.7793 6.29883 61.8984 6.19531 62 6.07031C62.1016 5.94531 62.168 5.80469 62.1992 5.64844C62.1328 5.59375 62.0566 5.55859 61.9707 5.54297C61.8887 5.52344 61.8027 5.50977 61.7129 5.50195C61.6348 5.49805 61.5527 5.49805 61.4668 5.50195C61.3848 5.50586 61.3008 5.50391 61.2148 5.49609C61.1289 5.52344 61.0391 5.54102 60.9453 5.54883C60.8555 5.55664 60.7656 5.56445 60.6758 5.57227C60.5859 5.57617 60.4961 5.58789 60.4062 5.60742C60.3203 5.62305 60.2363 5.6543 60.1543 5.70117C60.1387 5.70117 60.123 5.69922 60.1074 5.69531C60.0957 5.69141 60.082 5.68945 60.0664 5.68945C59.9414 5.68555 59.8242 5.71094 59.7148 5.76562C59.6055 5.81641 59.498 5.86719 59.3926 5.91797C59.3848 5.93359 59.3809 5.94531 59.3809 5.95312C59.3809 5.97656 59.3848 6 59.3926 6.02344C59.4043 6.04297 59.4102 6.06445 59.4102 6.08789C59.4062 6.0918 59.4043 6.0957 59.4043 6.09961C59.4043 6.10352 59.4023 6.10742 59.3984 6.11133C59.3945 6.13086 59.3887 6.14844 59.3809 6.16406C59.377 6.17969 59.3711 6.19727 59.3633 6.2168C59.3203 6.3418 59.2969 6.46484 59.293 6.58594C59.2891 6.6875 59.2891 6.78711 59.293 6.88477C59.2969 6.98242 59.2969 7.08203 59.293 7.18359C59.2852 7.30859 59.2656 7.42578 59.2344 7.53516C59.2539 7.62891 59.2715 7.72852 59.2871 7.83398C59.3027 7.93555 59.3223 8.03711 59.3457 8.13867C59.3691 8.24023 59.3965 8.33984 59.4277 8.4375C59.4629 8.53125 59.5078 8.62109 59.5625 8.70703C59.5586 8.71484 59.5605 8.7207 59.5684 8.72461C59.5762 8.72852 59.584 8.73047 59.5918 8.73047H59.6387C59.6582 8.73047 59.666 8.73828 59.6621 8.75391C59.6699 8.76562 59.6758 8.77734 59.6797 8.78906C59.6836 8.79688 59.6914 8.80469 59.7031 8.8125C59.7109 8.82422 59.7109 8.83984 59.7031 8.85938C59.6992 8.9375 59.6797 9.00977 59.6445 9.07617C59.6094 9.14258 59.5879 9.21484 59.5801 9.29297C59.5332 9.30469 59.4902 9.31055 59.4512 9.31055C59.3848 9.30664 59.3262 9.28711 59.2754 9.25195C59.2246 9.2207 59.1777 9.18164 59.1348 9.13477C59.0918 9.08789 59.0508 9.04102 59.0117 8.99414C58.9727 8.94336 58.9297 8.90039 58.8828 8.86523C58.8555 8.75586 58.8281 8.63477 58.8008 8.50195C58.7773 8.36914 58.7363 8.25586 58.6777 8.16211C58.6934 8.12695 58.7012 8.08398 58.7012 8.0332C58.7051 7.95508 58.6973 7.87891 58.6777 7.80469C58.6621 7.72656 58.6582 7.64844 58.666 7.57031C58.666 7.52734 58.6699 7.48438 58.6777 7.44141C58.6895 7.39844 58.6973 7.35547 58.7012 7.3125C58.7051 7.24609 58.6973 7.18164 58.6777 7.11914C58.6621 7.05664 58.6562 6.99219 58.6602 6.92578C58.6641 6.89453 58.6699 6.86523 58.6777 6.83789C58.6895 6.80664 58.7051 6.7793 58.7246 6.75586C58.7051 6.70898 58.6992 6.66406 58.707 6.62109C58.7109 6.55469 58.7188 6.49219 58.7305 6.43359C58.7422 6.375 58.75 6.31641 58.7539 6.25781C58.7539 6.22656 58.752 6.19727 58.748 6.16992C58.7441 6.13867 58.7383 6.10938 58.7305 6.08203L58.6777 6.06445C58.6543 6.06445 58.6309 6.07031 58.6074 6.08203C58.5879 6.09375 58.5703 6.10742 58.5547 6.12305C58.5391 6.13867 58.5254 6.15234 58.5137 6.16406C58.502 6.17188 58.4902 6.17578 58.4785 6.17578C58.4707 6.17578 58.4609 6.17578 58.4492 6.17578C58.4414 6.17188 58.4336 6.16992 58.4258 6.16992C58.418 6.16992 58.4023 6.17773 58.3789 6.19336C58.3594 6.20898 58.334 6.22656 58.3027 6.24609C58.2754 6.26172 58.248 6.2793 58.2207 6.29883C58.1934 6.31445 58.1719 6.32422 58.1562 6.32812C58.1133 6.32031 58.0781 6.30664 58.0508 6.28711C58.0273 6.26367 58.0039 6.24219 57.9805 6.22266C57.9609 6.19922 57.9395 6.17969 57.916 6.16406C57.8926 6.14453 57.8633 6.13672 57.8281 6.14062C57.8164 6.11719 57.8105 6.0918 57.8105 6.06445C57.8066 6.03711 57.8066 6.00977 57.8105 5.98242V5.88867C57.8379 5.83789 57.875 5.79688 57.9219 5.76562C57.9648 5.73047 58.0117 5.70117 58.0625 5.67773L58.2148 5.60742C58.2656 5.58398 58.3125 5.55469 58.3555 5.51953H58.4082C58.4785 5.52344 58.5391 5.50977 58.5898 5.47852C58.6445 5.44727 58.6953 5.41211 58.7422 5.37305C58.7891 5.33008 58.8359 5.28711 58.8828 5.24414C58.9336 5.20117 58.9883 5.16797 59.0469 5.14453C59.0898 5.16406 59.1348 5.18164 59.1816 5.19727C59.2285 5.20898 59.2773 5.2168 59.3281 5.2207C59.3789 5.2207 59.4316 5.21289 59.4863 5.19727C59.541 5.18164 59.584 5.15234 59.6152 5.10938C59.6348 5.11719 59.6504 5.12305 59.6621 5.12695C59.6777 5.12695 59.6953 5.12695 59.7148 5.12695C59.7734 5.13086 59.832 5.12305 59.8906 5.10352C59.9492 5.08008 60.0059 5.05273 60.0605 5.02148C60.1387 5.02539 60.2148 5.02148 60.2891 5.00977C60.3672 4.99414 60.4434 4.97852 60.5176 4.96289C60.5957 4.94727 60.6719 4.93359 60.7461 4.92188C60.8242 4.90625 60.9023 4.90039 60.9805 4.9043C61.1094 4.9082 61.2363 4.89648 61.3613 4.86914C61.4863 4.8418 61.6133 4.83203 61.7422 4.83984C61.832 4.84375 61.9199 4.85156 62.0059 4.86328C62.0957 4.87109 62.1855 4.87305 62.2754 4.86914C62.3262 4.89258 62.3711 4.91406 62.4102 4.93359C62.4531 4.94922 62.5059 4.95312 62.5684 4.94531C62.6934 5.05078 62.8066 5.17383 62.9082 5.31445V5.41406C62.9043 5.50391 62.8887 5.5918 62.8613 5.67773C62.834 5.76367 62.8008 5.84961 62.7617 5.93555C62.7266 6.01758 62.6875 6.09961 62.6445 6.18164C62.6016 6.25977 62.5605 6.33789 62.5215 6.41602C62.2676 6.64648 62.0137 6.875 61.7598 7.10156C61.5059 7.32812 61.2441 7.54688 60.9746 7.75781C60.9668 7.79688 60.9551 7.83203 60.9395 7.86328C60.9277 7.89453 60.9199 7.92773 60.916 7.96289C60.916 7.98242 60.918 7.99805 60.9219 8.00977C60.9492 8.01758 60.9727 8.0332 60.9922 8.05664C61.0156 8.07617 61.0234 8.10352 61.0156 8.13867H61.0684C61.0879 8.13867 61.0977 8.14648 61.0977 8.16211L61.1914 8.16797C61.3398 8.17578 61.4883 8.17188 61.6367 8.15625C61.7852 8.14062 61.9336 8.12305 62.082 8.10352C62.2344 8.08398 62.3848 8.06641 62.5332 8.05078C62.6816 8.03125 62.8301 8.01953 62.9785 8.01562C63.0137 8.00391 63.0508 7.99414 63.0898 7.98633C63.1289 7.97852 63.1641 7.96289 63.1953 7.93945H63.2129C63.2402 7.93945 63.2598 7.94727 63.2715 7.96289C63.2871 7.97852 63.3086 7.98828 63.3359 7.99219C63.3555 7.99219 63.375 7.98828 63.3945 7.98047C63.418 7.97266 63.4414 7.9668 63.4648 7.96289C63.5195 7.94727 63.5762 7.9375 63.6348 7.93359C63.6973 7.92969 63.7578 7.92383 63.8164 7.91602C64.043 7.89648 64.2676 7.88477 64.4902 7.88086C64.7129 7.87305 64.9355 7.84375 65.1582 7.79297C65.1777 7.82031 65.2051 7.83984 65.2402 7.85156C65.2754 7.85938 65.3125 7.86914 65.3516 7.88086C65.3906 7.88867 65.4258 7.89844 65.457 7.91016C65.4922 7.92188 65.5156 7.94531 65.5273 7.98047ZM68.2227 8.57227C68.2109 8.62695 68.1855 8.67188 68.1465 8.70703C68.1113 8.73828 68.0684 8.76367 68.0176 8.7832C67.9668 8.80273 67.9141 8.81641 67.8594 8.82422C67.8086 8.82812 67.7617 8.83008 67.7188 8.83008C67.6992 8.83008 67.6797 8.83008 67.6602 8.83008C67.6445 8.82617 67.627 8.82422 67.6074 8.82422C67.5879 8.82422 67.5781 8.83398 67.5781 8.85352C67.5781 8.87305 67.5684 8.88672 67.5488 8.89453C67.5293 8.88672 67.5098 8.88086 67.4902 8.87695C67.4707 8.87305 67.4512 8.87109 67.4316 8.87109C67.4043 8.87109 67.377 8.87305 67.3496 8.87695C67.3262 8.88086 67.3027 8.88281 67.2793 8.88281C67.248 8.88281 67.2246 8.87891 67.209 8.87109C67.1973 8.86328 67.1855 8.85547 67.1738 8.84766C67.166 8.83594 67.1562 8.82422 67.1445 8.8125C67.1367 8.80078 67.123 8.79102 67.1035 8.7832C67.0762 8.77148 67.0527 8.76953 67.0332 8.77734C67.0176 8.78516 66.9922 8.77344 66.957 8.74219C66.9102 8.70312 66.8691 8.65625 66.834 8.60156C66.8027 8.54297 66.7715 8.48242 66.7402 8.41992C66.709 8.35742 66.6758 8.29492 66.6406 8.23242C66.6055 8.16992 66.5645 8.11523 66.5176 8.06836H66.4707C66.4004 8.06836 66.3516 8.09766 66.3242 8.15625C66.3047 8.14453 66.2852 8.13086 66.2656 8.11523C66.2461 8.0957 66.2246 8.08008 66.2012 8.06836C66.1113 8.0957 66.0176 8.11914 65.9199 8.13867C65.8223 8.1582 65.7246 8.16797 65.627 8.16797H65.5449C65.5215 8.16797 65.4961 8.16406 65.4688 8.15625C65.4297 8.17188 65.3945 8.19141 65.3633 8.21484C65.332 8.23438 65.2969 8.24414 65.2578 8.24414C65.2344 8.24414 65.207 8.23633 65.1758 8.2207C65.1523 8.2207 65.1406 8.23047 65.1406 8.25C65.1445 8.26953 65.1328 8.2793 65.1055 8.2793H65.0527C64.998 8.2793 64.9434 8.28125 64.8887 8.28516C64.8379 8.28906 64.7852 8.29102 64.7305 8.29102C64.6562 8.29102 64.5801 8.28125 64.502 8.26172C64.4824 8.27344 64.4609 8.2793 64.4375 8.2793C64.4219 8.28711 64.4102 8.30078 64.4023 8.32031C64.3945 8.33594 64.3867 8.35156 64.3789 8.36719C64.3711 8.37891 64.3594 8.39062 64.3438 8.40234C64.332 8.41016 64.3145 8.41211 64.291 8.4082C64.2832 8.45508 64.2637 8.49219 64.2324 8.51953C64.2012 8.54688 64.1855 8.58789 64.1855 8.64258C64.1426 8.66602 64.1074 8.69531 64.0801 8.73047C64.0527 8.76562 64.0254 8.80273 63.998 8.8418C63.9707 8.88086 63.9414 8.91797 63.9102 8.95312C63.8828 8.98828 63.8477 9.01562 63.8047 9.03516C63.7852 9.05859 63.7793 9.0957 63.7871 9.14648C63.7441 9.18164 63.6914 9.21289 63.6289 9.24023C63.5664 9.26758 63.5078 9.28125 63.4531 9.28125C63.3398 9.28125 63.2617 9.2207 63.2188 9.09961C63.2188 9.06055 63.2227 9.01953 63.2305 8.97656C63.2344 8.92969 63.2422 8.88672 63.2539 8.84766C63.2656 8.80469 63.2832 8.76758 63.3066 8.73633C63.3301 8.70117 63.3633 8.67578 63.4062 8.66016C63.4062 8.625 63.3945 8.60156 63.3711 8.58984C63.3477 8.57422 63.3379 8.54883 63.3418 8.51367C63.4473 8.46289 63.5391 8.39648 63.6172 8.31445C63.6953 8.23242 63.7656 8.14648 63.8281 8.05664C63.8945 7.96289 63.9609 7.86914 64.0273 7.77539C64.0938 7.68164 64.168 7.59766 64.25 7.52344V7.40039C64.3672 7.27539 64.4434 7.13477 64.4785 6.97852C64.5215 6.9707 64.5488 6.95117 64.5605 6.91992C64.5762 6.88867 64.584 6.85156 64.584 6.80859C64.6035 6.80859 64.6152 6.80078 64.6191 6.78516C64.627 6.76562 64.6445 6.75977 64.6719 6.76758C64.707 6.67383 64.7461 6.58789 64.7891 6.50977C64.832 6.43164 64.875 6.35352 64.918 6.27539C64.9609 6.19336 64.998 6.10938 65.0293 6.02344C65.0645 5.9375 65.0898 5.8418 65.1055 5.73633C65.1602 5.73242 65.1895 5.70703 65.1934 5.66016C65.2012 5.60938 65.209 5.56445 65.2168 5.52539C65.2754 5.4707 65.3184 5.40625 65.3457 5.33203C65.377 5.25781 65.4043 5.18164 65.4277 5.10352C65.4512 5.02148 65.4766 4.94141 65.5039 4.86328C65.5352 4.78125 65.5781 4.70898 65.6328 4.64648V4.62891C65.6328 4.60938 65.625 4.59766 65.6094 4.59375C65.5938 4.58594 65.5859 4.57227 65.5859 4.55273C65.5898 4.54883 65.5918 4.54492 65.5918 4.54102C65.6387 4.52148 65.6738 4.49023 65.6973 4.44727C65.7207 4.40039 65.7559 4.36719 65.8027 4.34766C65.8848 4.41406 65.957 4.45508 66.0195 4.4707C66.082 4.48242 66.1641 4.49219 66.2656 4.5C66.3164 4.55469 66.3438 4.62109 66.3477 4.69922C66.3555 4.77344 66.3691 4.84766 66.3887 4.92188C66.4199 5.04688 66.4531 5.16992 66.4883 5.29102C66.5273 5.4082 66.5566 5.5293 66.5762 5.6543C66.5879 5.72852 66.6094 5.79883 66.6406 5.86523C66.6719 5.93164 66.6934 6 66.7051 6.07031C66.7129 6.125 66.7129 6.1875 66.7051 6.25781C66.6973 6.32422 66.7051 6.38281 66.7285 6.43359L66.7695 6.52734C66.7891 6.57031 66.8047 6.61523 66.8164 6.66211C66.832 6.70898 66.8457 6.75586 66.8574 6.80273C66.8887 6.91992 66.916 7.04688 66.9395 7.18359C66.9668 7.31641 67.0078 7.4375 67.0625 7.54688C67.082 7.58594 67.1113 7.61328 67.1504 7.62891C67.1934 7.64453 67.2402 7.65625 67.291 7.66406C67.3418 7.66797 67.3906 7.66992 67.4375 7.66992C67.4883 7.66602 67.5312 7.66406 67.5664 7.66406H67.625C67.6484 7.66406 67.6719 7.66797 67.6953 7.67578C67.7109 7.70703 67.7188 7.73438 67.7188 7.75781C67.7188 7.80469 67.7031 7.8418 67.6719 7.86914C67.6406 7.89648 67.625 7.92773 67.625 7.96289C67.625 7.98242 67.6328 8.00391 67.6484 8.02734C67.6328 8.02344 67.6094 8.02148 67.5781 8.02148C67.4883 8.02148 67.4004 8.03711 67.3145 8.06836C67.3457 8.13477 67.3867 8.19141 67.4375 8.23828C67.4922 8.28125 67.5488 8.32227 67.6074 8.36133C67.6465 8.33008 67.6875 8.31445 67.7305 8.31445C67.7773 8.31445 67.8203 8.32617 67.8594 8.34961C67.9023 8.36914 67.9473 8.37891 67.9941 8.37891C68.0293 8.37891 68.0547 8.37305 68.0703 8.36133C68.1016 8.39648 68.127 8.43359 68.1465 8.47266C68.166 8.50781 68.1914 8.54102 68.2227 8.57227ZM66.3887 7.63477C66.3809 7.56836 66.3672 7.52148 66.3477 7.49414C66.332 7.46289 66.3184 7.42578 66.3066 7.38281C66.291 7.32812 66.2793 7.26953 66.2715 7.20703C66.2676 7.14453 66.2598 7.08398 66.248 7.02539C66.2207 6.89258 66.1895 6.75977 66.1543 6.62695C66.123 6.49414 66.082 6.36523 66.0312 6.24023C66.0469 6.2168 66.0547 6.19531 66.0547 6.17578V6.1582C66.0195 6.11914 65.9941 6.07227 65.9785 6.01758C65.9629 5.95898 65.9473 5.90234 65.9316 5.84766C65.9199 5.78906 65.9023 5.73633 65.8789 5.68945C65.8594 5.63867 65.8262 5.59766 65.7793 5.56641C65.7676 5.58984 65.7617 5.61719 65.7617 5.64844C65.7617 5.67578 65.7637 5.70117 65.7676 5.72461C65.7754 5.74805 65.7793 5.77344 65.7793 5.80078C65.7402 5.82031 65.7109 5.85156 65.6914 5.89453C65.6758 5.93359 65.6484 5.96484 65.6094 5.98828C65.5781 6.11328 65.5332 6.23242 65.4746 6.3457C65.416 6.45508 65.3535 6.56445 65.2871 6.67383C65.2246 6.7832 65.1641 6.89453 65.1055 7.00781C65.0469 7.11719 65 7.23242 64.9648 7.35352C64.9141 7.38867 64.8789 7.43359 64.8594 7.48828C64.8438 7.54297 64.8359 7.59766 64.8359 7.65234C64.8711 7.67188 64.9102 7.68359 64.9531 7.6875C65 7.6875 65.0449 7.6875 65.0879 7.6875C65.1309 7.6875 65.1719 7.69141 65.2109 7.69922C65.25 7.70703 65.2852 7.72656 65.3164 7.75781C65.3672 7.74219 65.4219 7.73242 65.4805 7.72852C65.543 7.7207 65.5938 7.70312 65.6328 7.67578C65.7109 7.70312 65.7949 7.7168 65.8848 7.7168C65.9316 7.7168 65.9766 7.71289 66.0195 7.70508C66.0664 7.69727 66.1113 7.6875 66.1543 7.67578C66.1895 7.68359 66.2168 7.69727 66.2363 7.7168C66.2559 7.73242 66.2852 7.73828 66.3242 7.73438C66.3438 7.71875 66.3555 7.70312 66.3594 7.6875C66.3633 7.66797 66.373 7.65039 66.3887 7.63477ZM72.752 5.74219C72.752 5.79688 72.75 5.85156 72.7461 5.90625C72.7422 5.96094 72.7363 6.01562 72.7285 6.07031C72.7012 6.10938 72.6738 6.14453 72.6465 6.17578C72.623 6.20312 72.6074 6.23828 72.5996 6.28125C72.5566 6.3125 72.5078 6.35547 72.4531 6.41016C72.4023 6.46484 72.3809 6.51953 72.3887 6.57422H72.3066C72.2598 6.64453 72.2051 6.70508 72.1426 6.75586C72.0801 6.80664 72.0137 6.85547 71.9434 6.90234L71.7383 7.03711C71.6719 7.08008 71.6094 7.13086 71.5508 7.18945C71.5195 7.19336 71.4941 7.19922 71.4746 7.20703C71.4551 7.21484 71.4297 7.2168 71.3984 7.21289C71.2773 7.29102 71.1504 7.35938 71.0176 7.41797C70.8887 7.47656 70.7578 7.53516 70.625 7.59375C70.4961 7.64844 70.3672 7.70703 70.2383 7.76953C70.1094 7.83203 69.9863 7.9043 69.8691 7.98633C69.8574 7.98242 69.8418 7.98047 69.8223 7.98047C69.7871 7.98047 69.752 7.98633 69.7168 7.99805C69.6816 8.00586 69.6465 8.00977 69.6113 8.00977C69.5957 8.00977 69.5742 8.00781 69.5469 8.00391C69.5234 8 69.5059 7.99414 69.4941 7.98633C69.4746 7.97461 69.457 7.95703 69.4414 7.93359C69.4258 7.91016 69.4141 7.88477 69.4062 7.85742C69.3984 7.82617 69.3926 7.79688 69.3887 7.76953C69.3848 7.74219 69.3828 7.71875 69.3828 7.69922C69.3828 7.67578 69.3848 7.65039 69.3887 7.62305C69.3926 7.5957 69.3984 7.57031 69.4062 7.54688C69.5195 7.53906 69.6328 7.50977 69.7461 7.45898C69.8633 7.4082 69.9746 7.35938 70.0801 7.3125C70.1074 7.30078 70.1289 7.28711 70.1445 7.27148C70.1641 7.25195 70.1836 7.23633 70.2031 7.22461C70.2227 7.20898 70.2441 7.19531 70.2676 7.18359C70.291 7.17188 70.3203 7.16602 70.3555 7.16602H70.373C70.6191 7.05273 70.8594 6.92969 71.0938 6.79688C71.332 6.66406 71.5684 6.5293 71.8027 6.39258C71.8145 6.35742 71.832 6.32227 71.8555 6.28711C71.8828 6.25195 71.9082 6.21875 71.9316 6.1875C71.9551 6.15234 71.9766 6.11719 71.9961 6.08203C72.0156 6.04688 72.0254 6.01172 72.0254 5.97656C72.0254 5.90625 71.9922 5.84766 71.9258 5.80078H71.9023C71.8555 5.80078 71.8145 5.79492 71.7793 5.7832C71.7441 5.76758 71.7109 5.75391 71.6797 5.74219C71.6484 5.72656 71.6133 5.71484 71.5742 5.70703C71.5352 5.69531 71.4902 5.69141 71.4395 5.69531C71.4199 5.67969 71.3887 5.66602 71.3457 5.6543C71.3027 5.64258 71.2676 5.63672 71.2402 5.63672C71.0996 5.63672 70.9609 5.64648 70.8242 5.66602C70.6875 5.68164 70.5508 5.69141 70.4141 5.69531C70.3789 5.71484 70.3457 5.73242 70.3145 5.74805C70.2832 5.76367 70.2461 5.77148 70.2031 5.77148C70.1836 5.77148 70.166 5.77148 70.1504 5.77148C70.1348 5.76758 70.1172 5.76367 70.0977 5.75977C70.0234 5.79102 69.9395 5.81836 69.8457 5.8418C69.752 5.86133 69.6582 5.88672 69.5645 5.91797C69.4746 5.94531 69.3906 5.98047 69.3125 6.02344C69.2344 6.06641 69.1738 6.125 69.1309 6.19922C69.1309 6.21875 69.1348 6.23633 69.1426 6.25195C69.1504 6.26367 69.1543 6.2793 69.1543 6.29883V6.32227C69.1309 6.3457 69.1152 6.37305 69.1074 6.4043C69.0996 6.43164 69.0938 6.46094 69.0898 6.49219C69.0859 6.51953 69.0801 6.54883 69.0723 6.58008C69.0684 6.60742 69.0547 6.63477 69.0312 6.66211C69.0469 6.7207 69.0547 6.78516 69.0547 6.85547C69.0547 6.93359 69.0488 7.01172 69.0371 7.08984C69.0293 7.16797 69.0254 7.24609 69.0254 7.32422C69.0254 7.39844 69.0332 7.46484 69.0488 7.52344C69.0254 7.54688 69.0156 7.58203 69.0195 7.62891C69.0234 7.67578 69.0137 7.71094 68.9902 7.73438C68.9902 7.76562 68.998 7.78711 69.0137 7.79883C69.0332 7.81055 69.0449 7.83008 69.0488 7.85742C69.0332 7.92383 69.0254 7.99609 69.0254 8.07422C69.0254 8.1875 69.0371 8.30273 69.0605 8.41992C69.0879 8.53711 69.1191 8.65234 69.1543 8.76562C69.2168 8.74609 69.2832 8.73047 69.3535 8.71875C69.4277 8.70312 69.498 8.69531 69.5645 8.69531C69.5762 8.69531 69.5879 8.69727 69.5996 8.70117C69.6113 8.70117 69.623 8.70117 69.6348 8.70117C69.6426 8.74414 69.6582 8.7832 69.6816 8.81836C69.7051 8.85352 69.7266 8.89258 69.7461 8.93555C69.7266 8.96289 69.709 8.98438 69.6934 9C69.6816 9.01953 69.6758 9.04492 69.6758 9.07617C69.6211 9.08008 69.5762 9.09375 69.541 9.11719C69.5059 9.14453 69.4668 9.17383 69.4238 9.20508H69.4004C69.334 9.20508 69.2793 9.2168 69.2363 9.24023C69.1934 9.26758 69.1445 9.29688 69.0898 9.32812C69.043 9.30859 68.9961 9.29883 68.9492 9.29883C68.8984 9.29883 68.8477 9.30859 68.7969 9.32812C68.7344 9.30078 68.6836 9.25781 68.6445 9.19922C68.6055 9.14453 68.5723 9.08203 68.5449 9.01172C68.5176 8.94531 68.4922 8.87695 68.4688 8.80664C68.4492 8.73633 68.4258 8.67188 68.3984 8.61328V8.51953C68.3984 8.42969 68.3906 8.34375 68.375 8.26172C68.3633 8.17578 68.3574 8.08789 68.3574 7.99805C68.3574 7.96289 68.3594 7.92578 68.3633 7.88672C68.3711 7.84766 68.3828 7.81055 68.3984 7.77539C68.3906 7.74023 68.3867 7.70703 68.3867 7.67578V7.56445C68.3867 7.44727 68.3906 7.33008 68.3984 7.21289C68.4102 7.0957 68.416 6.97852 68.416 6.86133C68.416 6.77539 68.4102 6.6875 68.3984 6.59766C68.3789 6.60547 68.3613 6.61328 68.3457 6.62109C68.3301 6.62891 68.3125 6.63281 68.293 6.63281C68.2734 6.63281 68.2539 6.63086 68.2344 6.62695C68.2188 6.62305 68.2031 6.61914 68.1875 6.61523C68.1484 6.58008 68.1211 6.53711 68.1055 6.48633C68.0898 6.43555 68.0684 6.38867 68.041 6.3457C68.041 6.27148 68.0527 6.21094 68.0762 6.16406C68.0957 6.11328 68.1211 6.06836 68.1523 6.0293C68.1836 5.98633 68.2148 5.94531 68.2461 5.90625C68.2812 5.86719 68.3105 5.81836 68.334 5.75977H68.3574C68.4199 5.75977 68.4824 5.74023 68.5449 5.70117C68.6074 5.6582 68.6777 5.63672 68.7559 5.63672C68.7832 5.60156 68.8203 5.57227 68.8672 5.54883C68.9141 5.52148 68.9629 5.5 69.0137 5.48438C69.0684 5.46875 69.1211 5.45898 69.1719 5.45508C69.2266 5.44727 69.2773 5.44336 69.3242 5.44336C69.3398 5.41602 69.3633 5.39844 69.3945 5.39062C69.4258 5.37891 69.457 5.36914 69.4883 5.36133C69.5234 5.34961 69.5547 5.33984 69.582 5.33203C69.6133 5.32031 69.6387 5.30078 69.6582 5.27344C69.6895 5.28125 69.7188 5.28516 69.7461 5.28516C69.7969 5.28516 69.8457 5.2793 69.8926 5.26758C69.9395 5.25195 69.9863 5.23633 70.0332 5.2207C70.0801 5.20117 70.127 5.18359 70.1738 5.16797C70.2246 5.15234 70.2773 5.14453 70.332 5.14453C70.3516 5.14453 70.3711 5.14648 70.3906 5.15039C70.4102 5.15039 70.4297 5.15039 70.4492 5.15039C70.4805 5.15039 70.498 5.13867 70.502 5.11523C70.5098 5.0918 70.5234 5.07422 70.543 5.0625C70.5547 5.06641 70.5762 5.06836 70.6074 5.06836C70.6855 5.06836 70.7617 5.0625 70.8359 5.05078C70.9102 5.03516 70.9863 5.02734 71.0645 5.02734C71.0996 5.02734 71.1348 5.0293 71.1699 5.0332C71.2051 5.03711 71.2402 5.04688 71.2754 5.0625C71.2832 5.05078 71.291 5.04102 71.2988 5.0332C71.3066 5.02539 71.3125 5.01562 71.3164 5.00391C71.5078 5.01562 71.6875 5.05469 71.8555 5.12109C72.0273 5.1875 72.2051 5.24609 72.3887 5.29688C72.4121 5.33203 72.4395 5.36328 72.4707 5.39062L72.5703 5.47266C72.6055 5.5 72.6387 5.52734 72.6699 5.55469C72.7012 5.58203 72.7285 5.61523 72.752 5.6543V5.74219Z" fill="white"/>
<path d="M50.4844 27.2695C50.4766 27.3164 50.4629 27.3691 50.4434 27.4277C50.4277 27.4863 50.4043 27.541 50.373 27.5918C50.3457 27.6387 50.3105 27.6797 50.2676 27.7148C50.2246 27.7461 50.1738 27.7617 50.1152 27.7617C50.0723 27.7617 50.0293 27.7578 49.9863 27.75C49.9434 27.7383 49.8984 27.7324 49.8516 27.7324C49.832 27.7324 49.8105 27.7402 49.7871 27.7559C49.7676 27.7676 49.748 27.7734 49.7285 27.7734C49.709 27.7734 49.6914 27.7715 49.6758 27.7676C49.6641 27.7598 49.6484 27.7559 49.6289 27.7559C49.6172 27.7559 49.5957 27.7598 49.5645 27.7676C49.5332 27.7754 49.5 27.7832 49.4648 27.791C49.4297 27.7988 49.3965 27.8086 49.3652 27.8203C49.334 27.8281 49.3125 27.834 49.3008 27.8379C49.1953 27.873 49.0898 27.9043 48.9844 27.9316C48.8789 27.959 48.7695 27.9766 48.6562 27.9844C48.6328 27.9766 48.5977 27.9688 48.5508 27.9609C48.5039 27.9492 48.4688 27.9434 48.4453 27.9434C48.3984 27.9434 48.3672 27.9629 48.3516 28.002C48.3398 28.041 48.3145 28.0703 48.2754 28.0898C48.2285 28.1172 48.1699 28.1328 48.0996 28.1367C48.0293 28.1406 47.959 28.1465 47.8887 28.1543C47.8184 28.1621 47.752 28.1777 47.6895 28.2012C47.6309 28.2207 47.5879 28.2598 47.5605 28.3184C47.541 28.3145 47.5195 28.3125 47.4961 28.3125C47.4766 28.3086 47.4551 28.3066 47.4316 28.3066C47.3066 28.3066 47.1895 28.332 47.0801 28.3828C46.9707 28.4297 46.8594 28.4727 46.7461 28.5117C46.7656 28.5469 46.7793 28.5898 46.7871 28.6406C46.7949 28.6914 46.8027 28.7422 46.8105 28.793C46.8184 28.8398 46.8281 28.8867 46.8398 28.9336C46.8555 28.9766 46.8809 29.0098 46.916 29.0332C46.916 29.0566 46.9102 29.0762 46.8984 29.0918C46.8906 29.1074 46.8809 29.1211 46.8691 29.1328L46.8281 29.1738C46.8164 29.1855 46.8086 29.2031 46.8047 29.2266C46.793 29.2734 46.7871 29.3223 46.7871 29.373C46.7871 29.4199 46.7598 29.4551 46.7051 29.4785C46.709 29.4902 46.7109 29.5117 46.7109 29.543C46.7109 29.582 46.7051 29.6191 46.6934 29.6543C46.6816 29.6895 46.6777 29.7285 46.6816 29.7715C46.6152 29.8457 46.5586 29.9219 46.5117 30C46.4688 30.0781 46.4355 30.1621 46.4121 30.252C46.2676 30.3965 46.1191 30.541 45.9668 30.6855C45.8184 30.834 45.6641 30.9766 45.5039 31.1133C45.3477 31.25 45.1855 31.3789 45.0176 31.5C44.8496 31.625 44.6758 31.7344 44.4961 31.8281H44.4551C44.3652 31.8281 44.2949 31.8438 44.2441 31.875C44.1934 31.9062 44.1289 31.9336 44.0508 31.957C43.9922 31.9414 43.9219 31.9336 43.8398 31.9336C43.793 31.9336 43.7441 31.9355 43.6934 31.9395C43.6465 31.9434 43.5977 31.9453 43.5469 31.9453C43.4805 31.9453 43.4199 31.9375 43.3652 31.9219C43.3145 31.9062 43.2637 31.8887 43.2129 31.8691C43.166 31.8496 43.1172 31.8301 43.0664 31.8105C43.0156 31.791 42.9609 31.7773 42.9023 31.7695C42.6602 31.5273 42.4688 31.2441 42.3281 30.9199C42.1875 30.5996 42.1172 30.2695 42.1172 29.9297C42.1172 29.7734 42.1387 29.6211 42.1816 29.4727C42.2246 29.3203 42.2461 29.168 42.2461 29.0156C42.3164 28.875 42.377 28.7305 42.4277 28.582C42.4824 28.4336 42.5371 28.2852 42.5918 28.1367C42.6465 27.9883 42.7051 27.8438 42.7676 27.7031C42.834 27.5586 42.9121 27.4219 43.002 27.293C43.0215 27.1914 43.0527 27.1035 43.0957 27.0293C43.1387 26.9551 43.1855 26.873 43.2363 26.7832C43.2363 26.6973 43.2539 26.6191 43.2891 26.5488C43.3281 26.4746 43.3516 26.3926 43.3594 26.3027C43.4219 26.2441 43.4727 26.1777 43.5117 26.1035C43.5508 26.0293 43.5879 25.9531 43.623 25.875C43.6582 25.7969 43.6973 25.7227 43.7402 25.6523C43.7871 25.5781 43.8496 25.5156 43.9277 25.4648C43.9355 25.4375 43.9395 25.4082 43.9395 25.377C43.9434 25.3418 43.9531 25.3145 43.9688 25.2949L44.0918 25.1602C44.1309 25.1094 44.166 25.0586 44.1973 25.0078C44.2324 24.9531 44.2695 24.9043 44.3086 24.8613C44.332 24.8379 44.3574 24.8184 44.3848 24.8027C44.4121 24.7871 44.4355 24.7695 44.4551 24.75C44.4746 24.7305 44.4805 24.7051 44.4727 24.6738C44.4688 24.6426 44.4766 24.6172 44.4961 24.5977C44.5039 24.5898 44.5156 24.582 44.5312 24.5742C44.5469 24.5664 44.5605 24.5586 44.5723 24.5508C44.623 24.5156 44.666 24.4805 44.7012 24.4453C44.7363 24.4102 44.7852 24.3848 44.8477 24.3691C44.9023 24.3262 44.9512 24.2832 44.9941 24.2402C45.041 24.1973 45.0879 24.1582 45.1348 24.123C45.1816 24.0879 45.2324 24.0605 45.2871 24.041C45.3418 24.0176 45.4102 24.0059 45.4922 24.0059C45.5078 24.0059 45.5234 24.0078 45.5391 24.0117C45.5547 24.0117 45.5703 24.0117 45.5859 24.0117C45.7461 24.1602 45.8457 24.3418 45.8848 24.5566C45.8418 24.6113 45.8066 24.6699 45.7793 24.7324C45.7559 24.7949 45.7285 24.8574 45.6973 24.9199C45.6309 24.9434 45.5684 24.9785 45.5098 25.0254C45.4512 25.0684 45.3926 25.1133 45.334 25.1602C45.2793 25.207 45.2207 25.248 45.1582 25.2832C45.0996 25.3184 45.0332 25.3359 44.959 25.3359C44.9277 25.3633 44.877 25.4082 44.8066 25.4707C44.7402 25.5293 44.6699 25.5918 44.5957 25.6582C44.5254 25.7246 44.459 25.7871 44.3965 25.8457C44.3379 25.9043 44.3008 25.9453 44.2852 25.9688C44.2734 25.9883 44.2637 26.0059 44.2559 26.0215C44.248 26.0371 44.2402 26.0547 44.2324 26.0742L44.0801 26.332C43.9941 26.4805 43.9062 26.627 43.8164 26.7715C43.7266 26.9121 43.6484 27.0605 43.582 27.2168C43.5508 27.2871 43.5254 27.3574 43.5059 27.4277C43.4863 27.498 43.4668 27.5723 43.4473 27.6504C43.4395 27.6738 43.4297 27.6973 43.418 27.7207C43.4062 27.7441 43.3965 27.7656 43.3887 27.7852C43.3457 27.8672 43.3105 27.9434 43.2832 28.0137C43.2559 28.084 43.2402 28.166 43.2363 28.2598C43.1387 28.4785 43.0469 28.6992 42.9609 28.9219C42.8789 29.1406 42.8164 29.3672 42.7734 29.6016C42.7969 29.6797 42.8066 29.7598 42.8027 29.8418C42.8027 29.9199 42.8027 29.998 42.8027 30.0762C42.8027 30.1738 42.8086 30.2539 42.8203 30.3164C42.8359 30.3828 42.8555 30.4414 42.8789 30.4922C42.9062 30.5469 42.9355 30.6016 42.9668 30.6562C42.998 30.7148 43.0312 30.7832 43.0664 30.8613C43.125 30.9082 43.1777 30.957 43.2246 31.0078C43.2715 31.0625 43.3164 31.1211 43.3594 31.1836C43.5078 31.2578 43.6582 31.2949 43.8105 31.2949C43.9199 31.2949 44.0312 31.2773 44.1445 31.2422C44.2578 31.207 44.3672 31.1621 44.4727 31.1074C44.582 31.0566 44.6875 31 44.7891 30.9375C44.8906 30.875 44.9883 30.8145 45.082 30.7559C45.2461 30.6582 45.3887 30.5527 45.5098 30.4395C45.6309 30.3262 45.7402 30.207 45.8379 30.082C45.9395 29.957 46.0332 29.8242 46.1191 29.6836C46.2051 29.5391 46.2949 29.3867 46.3887 29.2266C46.3926 29.207 46.4004 29.1836 46.4121 29.1562L46.4473 29.0684C46.459 29.0371 46.4688 29.0098 46.4766 28.9863C46.4883 28.959 46.4941 28.9414 46.4941 28.9336C46.4941 28.9023 46.4863 28.8809 46.4707 28.8691C46.459 28.8535 46.4531 28.8379 46.4531 28.8223C46.4531 28.791 46.4609 28.7695 46.4766 28.7578C46.4922 28.7461 46.5098 28.7344 46.5293 28.7227C46.5527 28.7109 46.5723 28.6973 46.5879 28.6816C46.6074 28.666 46.6172 28.6367 46.6172 28.5938C46.6094 28.5898 46.5957 28.5879 46.5762 28.5879C46.5566 28.5879 46.5371 28.5898 46.5176 28.5938C46.498 28.5977 46.4785 28.5996 46.459 28.5996C46.4121 28.5996 46.373 28.584 46.3418 28.5527C46.3223 28.5605 46.3027 28.5742 46.2832 28.5938C46.2637 28.6094 46.2441 28.627 46.2246 28.6465C46.209 28.666 46.1934 28.6836 46.1777 28.6992C46.1621 28.7148 46.1484 28.7227 46.1367 28.7227C46.1172 28.7227 46.1016 28.7188 46.0898 28.7109C46.082 28.7031 46.0703 28.6992 46.0547 28.6992C45.9883 28.6992 45.9297 28.7148 45.8789 28.7461C45.8281 28.7773 45.7734 28.8027 45.7148 28.8223C45.7031 28.8223 45.6914 28.8223 45.6797 28.8223C45.668 28.8184 45.6562 28.8164 45.6445 28.8164C45.6016 28.8164 45.5586 28.8242 45.5156 28.8398C45.4766 28.8516 45.4375 28.8652 45.3984 28.8809C45.3633 28.8965 45.3262 28.9102 45.2871 28.9219C45.248 28.9336 45.209 28.9375 45.1699 28.9336C45.084 28.9648 45.0039 28.998 44.9297 29.0332C44.8594 29.0684 44.7773 29.082 44.6836 29.0742C44.6562 29.0859 44.627 29.0996 44.5957 29.1152C44.5684 29.127 44.541 29.1426 44.5137 29.1621C44.4902 29.1699 44.4727 29.1738 44.4609 29.1738C44.4414 29.1738 44.4258 29.1641 44.4141 29.1445C44.3828 29.1797 44.3418 29.2051 44.291 29.2207C44.2402 29.2324 44.1875 29.2441 44.1328 29.2559C44.0781 29.2637 44.0254 29.2754 43.9746 29.291C43.9277 29.3027 43.8906 29.3281 43.8633 29.3672C43.8203 29.332 43.7695 29.3145 43.7109 29.3145C43.6523 29.3145 43.5957 29.3262 43.541 29.3496C43.4863 29.3691 43.4277 29.3789 43.3652 29.3789C43.3418 29.3789 43.3262 29.375 43.3184 29.3672C43.3027 29.3242 43.2852 29.2812 43.2656 29.2383C43.2461 29.1953 43.2148 29.1641 43.1719 29.1445C43.1641 29.1016 43.1562 29.0605 43.1484 29.0215C43.1445 28.9785 43.1426 28.9375 43.1426 28.8984C43.1426 28.793 43.1738 28.6973 43.2363 28.6113C43.291 28.5918 43.3457 28.5762 43.4004 28.5645C43.459 28.5488 43.5156 28.5312 43.5703 28.5117C43.6133 28.5195 43.6562 28.5254 43.6992 28.5293C43.7422 28.5332 43.7852 28.5352 43.8281 28.5352C43.9883 28.5352 44.1445 28.5156 44.2969 28.4766C44.4492 28.4336 44.5996 28.3887 44.748 28.3418C44.8887 28.2988 45.0312 28.2598 45.1758 28.2246C45.3203 28.1895 45.4648 28.1504 45.6094 28.1074C45.7461 28.0723 45.8809 28.0332 46.0137 27.9902C46.1465 27.9434 46.2852 27.9141 46.4297 27.9023C46.5234 27.8359 46.6367 27.791 46.7695 27.7676C46.9062 27.7441 47.0312 27.7188 47.1445 27.6914C47.3242 27.6484 47.502 27.6055 47.6777 27.5625C47.8535 27.5156 48.0332 27.4746 48.2168 27.4395C48.4199 27.3965 48.6172 27.3438 48.8086 27.2812C49.0039 27.2188 49.1992 27.1523 49.3945 27.082H49.4531C49.5195 27.082 49.5879 27.0742 49.6582 27.0586C49.7285 27.043 49.7988 27.0352 49.8691 27.0352C49.8887 27.0352 49.9043 27.0371 49.916 27.041C49.9316 27.041 49.9473 27.041 49.9629 27.041C49.9746 27.041 50.0039 27.0332 50.0508 27.0176C50.0977 26.998 50.1309 26.9844 50.1504 26.9766C50.2012 27.0312 50.2578 27.0801 50.3203 27.123C50.3828 27.166 50.4375 27.2148 50.4844 27.2695ZM51.9668 25.0371C51.9668 25.3184 51.9395 25.5977 51.8848 25.875C51.834 26.1484 51.791 26.4238 51.7559 26.7012C51.7363 26.7285 51.7148 26.752 51.6914 26.7715C51.6719 26.7871 51.6523 26.8047 51.6328 26.8242V26.8828C51.6328 26.9375 51.625 26.9922 51.6094 27.0469L51.5684 27.2051C51.5566 27.2559 51.5469 27.3086 51.5391 27.3633C51.5312 27.4141 51.5352 27.4668 51.5508 27.5215C51.5039 27.6348 51.4688 27.752 51.4453 27.873C51.4219 27.9902 51.4004 28.1094 51.3809 28.2305C51.3652 28.3516 51.3477 28.4727 51.3281 28.5938C51.3086 28.7148 51.2812 28.834 51.2461 28.9512L51.252 29.0391C51.2598 29.1641 51.25 29.2891 51.2227 29.4141C51.1992 29.5391 51.1875 29.6641 51.1875 29.7891C51.1875 29.8711 51.1895 29.9512 51.1934 30.0293C51.2012 30.1074 51.2051 30.1855 51.2051 30.2637C51.2051 30.3496 51.1992 30.4297 51.1875 30.5039C51.2188 30.543 51.2422 30.5879 51.2578 30.6387L51.3105 30.791C51.3301 30.8418 51.3516 30.8887 51.375 30.9316C51.3984 30.9746 51.4336 31.0078 51.4805 31.0312C51.5234 31.0117 51.5625 30.9941 51.5977 30.9785C51.6367 30.9668 51.6777 30.9609 51.7207 30.9609C51.7832 30.9609 51.8379 30.9785 51.8848 31.0137C51.8926 31.0527 51.8945 31.0938 51.8906 31.1367C51.8906 31.1797 51.8945 31.2227 51.9023 31.2656C51.8633 31.3047 51.8184 31.3379 51.7676 31.3652C51.7207 31.3926 51.6758 31.4219 51.6328 31.4531C51.6328 31.4609 51.6328 31.4688 51.6328 31.4766C51.6367 31.4883 51.6387 31.498 51.6387 31.5059C51.6387 31.584 51.6094 31.6426 51.5508 31.6816C51.4961 31.7246 51.4355 31.7461 51.3691 31.7461C51.3496 31.7461 51.3223 31.7422 51.2871 31.7344C51.252 31.7266 51.2246 31.7168 51.2051 31.7051C51.0996 31.6348 51.0078 31.5391 50.9297 31.418C50.8516 31.2969 50.7871 31.166 50.7363 31.0254C50.6895 30.8848 50.6523 30.7402 50.625 30.5918C50.6016 30.4473 50.5898 30.3164 50.5898 30.1992V30.0703C50.5898 30.0273 50.5938 29.9844 50.6016 29.9414C50.6055 29.9102 50.6133 29.8867 50.625 29.8711C50.6367 29.8516 50.6426 29.8242 50.6426 29.7891C50.6426 29.582 50.6543 29.375 50.6777 29.168C50.7051 28.9609 50.7344 28.7539 50.7656 28.5469C50.7969 28.3359 50.8262 28.127 50.8535 27.9199C50.8848 27.7129 50.9043 27.5039 50.9121 27.293C50.8691 27.3047 50.8359 27.332 50.8125 27.375C50.7891 27.4141 50.752 27.4434 50.7012 27.4629C50.6113 27.5918 50.5059 27.707 50.3848 27.8086C50.2676 27.9062 50.1582 28.0156 50.0566 28.1367C50.002 28.1602 49.9492 28.1855 49.8984 28.2129C49.8477 28.2402 49.8008 28.2754 49.7578 28.3184C49.625 28.3301 49.5137 28.3809 49.4238 28.4707L49.3711 28.4648C49.3203 28.4648 49.2734 28.4805 49.2305 28.5117C49.1992 28.5117 49.168 28.5059 49.1367 28.4941C49.1094 28.4824 49.0801 28.4766 49.0488 28.4766C49.0137 28.4766 48.9844 28.4883 48.9609 28.5117C48.8477 28.4844 48.752 28.4414 48.6738 28.3828C48.5957 28.3203 48.5234 28.2539 48.457 28.1836C48.3945 28.1094 48.3301 28.0352 48.2637 27.9609C48.2012 27.8828 48.127 27.8145 48.041 27.7559C48.0176 27.666 47.9961 27.5859 47.9766 27.5156C47.957 27.4414 47.9395 27.3691 47.9238 27.2988C47.9121 27.2285 47.9023 27.1562 47.8945 27.082C47.8828 27.0039 47.877 26.916 47.877 26.8184C47.877 26.5527 47.8887 26.291 47.9121 26.0332C47.9355 25.7715 47.9629 25.5117 47.9941 25.2539C48.0566 25.1484 48.1016 25.0352 48.1289 24.9141C48.1602 24.7891 48.1875 24.6641 48.2109 24.5391C48.2383 24.4141 48.2676 24.291 48.2988 24.1699C48.334 24.0488 48.3867 23.9395 48.457 23.8418H48.498C48.541 23.8418 48.5801 23.8457 48.6152 23.8535C48.6543 23.8574 48.6914 23.8535 48.7266 23.8418C48.7812 23.9395 48.8086 24.0488 48.8086 24.1699C48.8086 24.248 48.7988 24.3262 48.7793 24.4043C48.7637 24.4824 48.7441 24.5605 48.7207 24.6387C48.7012 24.7129 48.6816 24.7891 48.6621 24.8672C48.6426 24.9453 48.6309 25.0234 48.627 25.1016C48.6035 25.1367 48.5859 25.1738 48.5742 25.2129C48.5664 25.252 48.5469 25.2852 48.5156 25.3125L48.5215 25.3945C48.5293 25.4805 48.5176 25.5625 48.4863 25.6406C48.459 25.7188 48.4414 25.8008 48.4336 25.8867C48.4297 25.9297 48.4297 25.9727 48.4336 26.0156C48.4414 26.0586 48.4453 26.1016 48.4453 26.1445C48.4453 26.2461 48.4414 26.3457 48.4336 26.4434C48.4297 26.541 48.4277 26.6406 48.4277 26.7422C48.4277 26.8164 48.4355 26.8887 48.4512 26.959C48.4668 27.0254 48.4746 27.0762 48.4746 27.1113C48.4746 27.1387 48.4688 27.1641 48.457 27.1875C48.4688 27.2266 48.4844 27.2617 48.5039 27.293L48.5625 27.3809C48.582 27.4082 48.5996 27.4395 48.6152 27.4746C48.6309 27.5059 48.6406 27.543 48.6445 27.5859C48.8008 27.7305 48.9922 27.8027 49.2188 27.8027C49.3477 27.8027 49.4727 27.7656 49.5938 27.6914C49.7188 27.6172 49.8379 27.5273 49.9512 27.4219C50.0684 27.3164 50.1797 27.209 50.2852 27.0996C50.3945 26.9863 50.5 26.8945 50.6016 26.8242C50.6367 26.7539 50.6816 26.6777 50.7363 26.5957C50.7949 26.5098 50.8535 26.4238 50.9121 26.3379C50.9707 26.248 51.0234 26.1621 51.0703 26.0801C51.1172 25.9941 51.1484 25.9141 51.1641 25.8398C51.1719 25.8047 51.1758 25.7676 51.1758 25.7285C51.1758 25.6895 51.1797 25.6484 51.1875 25.6055C51.207 25.4688 51.2305 25.332 51.2578 25.1953C51.2891 25.0586 51.3047 24.9199 51.3047 24.7793C51.3047 24.752 51.3027 24.7266 51.2988 24.7031C51.2988 24.6797 51.2969 24.6523 51.293 24.6211C51.3242 24.582 51.3555 24.5469 51.3867 24.5156C51.418 24.4805 51.4434 24.4395 51.4629 24.3926C51.5137 24.4004 51.5605 24.4023 51.6035 24.3984C51.6465 24.3906 51.6914 24.3867 51.7383 24.3867C51.7969 24.3867 51.8516 24.4023 51.9023 24.4336C51.9453 24.6406 51.9668 24.8418 51.9668 25.0371ZM58.5879 31.5176C58.5879 31.5527 58.5742 31.584 58.5469 31.6113C58.5234 31.6387 58.4941 31.6602 58.459 31.6758C58.4238 31.6953 58.3867 31.7129 58.3477 31.7285C58.3125 31.7441 58.2812 31.7578 58.2539 31.7695C58.2109 31.7461 58.166 31.7305 58.1191 31.7227C58.0762 31.7148 58.0371 31.6953 58.002 31.6641H57.9609C57.8984 31.6641 57.8496 31.6719 57.8145 31.6875C57.7598 31.668 57.7148 31.6387 57.6797 31.5996C57.6445 31.5645 57.6113 31.5254 57.5801 31.4824C57.5488 31.4434 57.5176 31.4043 57.4863 31.3652C57.4551 31.3262 57.416 31.293 57.3691 31.2656C57.2988 31.0703 57.2363 30.873 57.1816 30.6738C57.127 30.4746 57.0859 30.2715 57.0586 30.0645C57.0664 30.0449 57.0723 30.0234 57.0762 30C57.0801 29.9766 57.082 29.9551 57.082 29.9355C57.082 29.9199 57.0781 29.9043 57.0703 29.8887C57.0664 29.8691 57.0547 29.8574 57.0352 29.8535C57.0547 29.8223 57.0664 29.7871 57.0703 29.748C57.0781 29.7051 57.082 29.666 57.082 29.6309C57.082 29.5527 57.0742 29.4883 57.0586 29.4375C57.082 29.418 57.0918 29.3867 57.0879 29.3438C57.084 29.2969 57.0938 29.2637 57.1172 29.2441C57.0977 29.1777 57.0879 29.1133 57.0879 29.0508C57.0879 28.9648 57.0977 28.8809 57.1172 28.7988C57.1406 28.7168 57.1523 28.6328 57.1523 28.5469C57.1523 28.5273 57.1504 28.5078 57.1465 28.4883C57.1465 28.4688 57.1445 28.4492 57.1406 28.4297C57.1602 28.3672 57.1777 28.3047 57.1934 28.2422C57.2129 28.1758 57.2227 28.1094 57.2227 28.043C57.2227 27.9961 57.2148 27.957 57.1992 27.9258C57.25 27.7461 57.2852 27.5684 57.3047 27.3926C57.3281 27.2129 57.3496 27.0312 57.3691 26.8477C57.3652 26.8398 57.3613 26.834 57.3574 26.8301C57.3535 26.8262 57.3516 26.8203 57.3516 26.8125C57.3516 26.793 57.3613 26.7773 57.3809 26.7656C57.4043 26.7539 57.4141 26.7324 57.4102 26.7012C57.3633 26.748 57.3242 26.8027 57.293 26.8652C57.2656 26.9277 57.2383 26.9902 57.2109 27.0527C57.1875 27.1152 57.1602 27.1777 57.1289 27.2402C57.1016 27.2988 57.0645 27.3516 57.0176 27.3984C57.0137 27.4414 57 27.4824 56.9766 27.5215C56.957 27.5605 56.9473 27.6035 56.9473 27.6504C56.9434 27.6504 56.9395 27.6504 56.9355 27.6504C56.9316 27.6465 56.9258 27.6445 56.918 27.6445C56.9023 27.6445 56.8906 27.6543 56.8828 27.6738C56.8789 27.6934 56.8672 27.6992 56.8477 27.6914C56.7578 27.8672 56.6582 28.0391 56.5488 28.207C56.4434 28.375 56.3047 28.5098 56.1328 28.6113C56.1016 28.5996 56.0723 28.5938 56.0449 28.5938C55.9941 28.5938 55.9434 28.6094 55.8926 28.6406C55.8457 28.668 55.8145 28.6816 55.7988 28.6816C55.7598 28.6816 55.7109 28.6621 55.6523 28.623C55.5977 28.5801 55.541 28.5566 55.4824 28.5527C55.4199 28.5098 55.3672 28.4668 55.3242 28.4238C55.2852 28.377 55.2246 28.3496 55.1426 28.3418C55.0879 28.2598 55.0332 28.1816 54.9785 28.1074C54.9277 28.0332 54.877 27.9609 54.8262 27.8906C54.7793 27.8164 54.7363 27.7383 54.6973 27.6562C54.6621 27.5742 54.6348 27.4824 54.6152 27.3809C54.6191 27.373 54.6211 27.3652 54.6211 27.3574C54.6211 27.334 54.6094 27.3242 54.5859 27.3281C54.5664 27.332 54.5566 27.3203 54.5566 27.293V27.252C54.5566 27.2207 54.5508 27.1934 54.5391 27.1699C54.5312 27.1426 54.5293 27.1133 54.5332 27.082C54.5059 27.0391 54.4844 26.9941 54.4688 26.9473C54.4531 26.9004 54.4258 26.8594 54.3867 26.8242V26.7715C54.3867 26.748 54.3848 26.7266 54.3809 26.707C54.3809 26.6836 54.375 26.6641 54.3633 26.6484C54.3555 26.6289 54.3418 26.6172 54.3223 26.6133C54.3184 26.4727 54.2891 26.3301 54.2344 26.1855C54.1836 26.0371 54.1367 25.8945 54.0938 25.7578C54.0625 25.8594 54.0391 25.9629 54.0234 26.0684C54.0078 26.1699 54 26.2734 54 26.3789V26.4785C54 26.5098 54.0039 26.541 54.0117 26.5723C54 26.5918 53.9824 26.6055 53.959 26.6133C53.9395 26.6211 53.9277 26.6367 53.9238 26.6602C53.9199 26.6797 53.918 26.6992 53.918 26.7188C53.9219 26.7383 53.9219 26.7578 53.918 26.7773C53.9102 26.8711 53.8984 26.9609 53.8828 27.0469C53.8594 27.1758 53.832 27.3066 53.8008 27.4395C53.7695 27.5684 53.7539 27.7012 53.7539 27.8379C53.7539 27.8457 53.7539 27.8574 53.7539 27.873C53.7578 27.8848 53.7598 27.8945 53.7598 27.9023C53.6973 27.957 53.6641 28.0254 53.6602 28.1074C53.6562 28.1895 53.6465 28.2676 53.6309 28.3418C53.6113 28.4512 53.5879 28.5605 53.5605 28.6699C53.5332 28.7754 53.5098 28.8848 53.4902 28.998C53.4785 29.0605 53.4688 29.123 53.4609 29.1855C53.4531 29.2441 53.4453 29.3047 53.4375 29.3672C53.4336 29.4023 53.4199 29.4316 53.3965 29.4551C53.377 29.4785 53.3633 29.5059 53.3555 29.5371C53.3516 29.5645 53.3496 29.5957 53.3496 29.6309C53.3535 29.6621 53.3555 29.6914 53.3555 29.7188C53.3555 29.7656 53.3516 29.8105 53.3438 29.8535C53.3359 29.8926 53.3125 29.9277 53.2734 29.959C53.2812 30.0605 53.2988 30.1465 53.3262 30.2168C53.3535 30.291 53.3848 30.373 53.4199 30.4629H53.5664V30.4863C53.5664 30.5254 53.5723 30.5605 53.584 30.5918C53.5996 30.623 53.6289 30.6367 53.6719 30.6328C53.668 30.6484 53.666 30.668 53.666 30.6914C53.666 30.7266 53.6719 30.7578 53.6836 30.7852C53.6992 30.8164 53.7109 30.8496 53.7188 30.8848C53.6406 31.0137 53.5566 31.1094 53.4668 31.1719C53.377 31.2344 53.2539 31.2656 53.0977 31.2656H53.0039C52.9844 31.2031 52.9609 31.1426 52.9336 31.084C52.9062 31.0254 52.8789 30.9668 52.8516 30.9082C52.8281 30.8496 52.8066 30.7891 52.7871 30.7266C52.7715 30.668 52.7637 30.6055 52.7637 30.5391C52.7637 30.5234 52.7656 30.5078 52.7695 30.4922C52.7734 30.4805 52.7754 30.4668 52.7754 30.4512C52.7754 30.4316 52.7676 30.4199 52.752 30.416C52.7363 30.4121 52.7285 30.3926 52.7285 30.3574C52.7285 30.3301 52.7266 30.3047 52.7227 30.2812C52.7227 30.2578 52.7227 30.2324 52.7227 30.2051C52.7227 30.0762 52.7324 29.9492 52.752 29.8242C52.7715 29.6953 52.7852 29.5664 52.793 29.4375C52.8125 29.418 52.8223 29.3926 52.8223 29.3613C52.8223 29.3301 52.832 29.3047 52.8516 29.2852V29.2441C52.8516 29.1738 52.8594 29.1035 52.875 29.0332C52.8906 28.9629 52.9082 28.8945 52.9277 28.8281C52.9473 28.7617 52.9648 28.6934 52.9805 28.623C52.9961 28.5527 53.0039 28.4824 53.0039 28.4121V28.3184C53.0039 28.291 53.0156 28.2793 53.0391 28.2832C53.0664 28.2832 53.082 28.2676 53.0859 28.2363C53.0938 28.1816 53.0977 28.1289 53.0977 28.0781C53.1016 28.0234 53.1074 27.9688 53.1152 27.9141C53.1348 27.8086 53.1562 27.7031 53.1797 27.5977C53.2031 27.4883 53.2148 27.3789 53.2148 27.2695V27.252C53.2148 27.2402 53.2246 27.2168 53.2441 27.1816C53.2637 27.1426 53.2734 27.1055 53.2734 27.0703C53.2734 27.043 53.2676 27.0176 53.2559 26.9941C53.2598 26.998 53.2676 27 53.2793 27C53.2949 27 53.3047 26.9961 53.3086 26.9883C53.3164 26.9766 53.3262 26.9668 53.3379 26.959C53.3262 26.9434 53.3203 26.9277 53.3203 26.9121C53.3203 26.8926 53.3223 26.875 53.3262 26.8594C53.334 26.8398 53.3379 26.8203 53.3379 26.8008C53.3379 26.7734 53.3242 26.7539 53.2969 26.7422C53.3438 26.6562 53.377 26.5645 53.3965 26.4668C53.4199 26.3691 53.4355 26.2695 53.4434 26.168C53.4551 26.0664 53.4648 25.9648 53.4727 25.8633C53.4805 25.7578 53.498 25.6582 53.5254 25.5645C53.5176 25.541 53.5117 25.5156 53.5078 25.4883C53.5078 25.4609 53.5078 25.4355 53.5078 25.4121C53.5078 25.3965 53.5059 25.3809 53.502 25.3652C53.498 25.3457 53.5 25.3281 53.5078 25.3125C53.5078 25.3047 53.5098 25.2949 53.5137 25.2832L53.5254 25.248C53.5332 25.2207 53.5371 25.1934 53.5371 25.166C53.541 25.1348 53.5449 25.1035 53.5488 25.0723C53.5566 24.9824 53.5586 24.8906 53.5547 24.7969C53.5547 24.7031 53.5586 24.6094 53.5664 24.5156C53.5547 24.5 53.543 24.4883 53.5312 24.4805C53.5195 24.4688 53.5117 24.4531 53.5078 24.4336C53.5391 24.3789 53.5723 24.3281 53.6074 24.2812C53.6465 24.2305 53.6973 24.1914 53.7598 24.1641C53.7715 24.207 53.8027 24.2285 53.8535 24.2285C53.877 24.2285 53.9062 24.2227 53.9414 24.2109C53.9766 24.1992 54 24.1836 54.0117 24.1641C54.0781 24.1875 54.1445 24.1992 54.2109 24.1992C54.2812 24.1953 54.3457 24.2109 54.4043 24.2461C54.416 24.3047 54.4316 24.3652 54.4512 24.4277C54.4707 24.4902 54.498 24.5469 54.5332 24.5977C54.541 24.6484 54.5488 24.7109 54.5566 24.7852C54.5645 24.8555 54.5723 24.9297 54.5801 25.0078C54.5879 25.082 54.5996 25.1543 54.6152 25.2246C54.6309 25.291 54.6523 25.3438 54.6797 25.3828C54.6836 25.4531 54.6953 25.5234 54.7148 25.5938C54.7344 25.6641 54.7559 25.7324 54.7793 25.7988C54.8027 25.8613 54.8223 25.9199 54.8379 25.9746C54.8574 26.0293 54.8672 26.0742 54.8672 26.1094C54.8672 26.1406 54.8613 26.1621 54.8496 26.1738C54.8418 26.1816 54.834 26.1973 54.8262 26.2207C54.8418 26.2637 54.8633 26.3008 54.8906 26.332C54.918 26.3594 54.9473 26.3926 54.9785 26.4316C55.0371 26.6543 55.1133 26.8711 55.207 27.082C55.3008 27.293 55.4141 27.4961 55.5469 27.6914C55.582 27.6953 55.6094 27.7051 55.6289 27.7207C55.6523 27.7363 55.6875 27.7402 55.7344 27.7324V27.7734C55.7344 27.8125 55.7422 27.8398 55.7578 27.8555C55.793 27.8789 55.834 27.8906 55.8809 27.8906C55.9316 27.8906 55.9707 27.877 55.998 27.8496C56.0293 27.8184 56.0586 27.7832 56.0859 27.7441C56.1133 27.7051 56.1406 27.668 56.168 27.6328C56.1953 27.5977 56.2324 27.5742 56.2793 27.5625V27.5508C56.2793 27.5195 56.2852 27.4941 56.2969 27.4746C56.3125 27.4512 56.3203 27.4258 56.3203 27.3984C56.3633 27.3672 56.3965 27.3281 56.4199 27.2812C56.4434 27.2344 56.4648 27.1875 56.4844 27.1406C56.5039 27.0898 56.5254 27.043 56.5488 27C56.5762 26.957 56.6113 26.9219 56.6543 26.8945C56.709 26.7266 56.7754 26.5703 56.8535 26.4258C56.9316 26.2812 57.0137 26.1348 57.0996 25.9863C57.0996 25.9746 57.0977 25.9629 57.0938 25.9512C57.0898 25.9355 57.0879 25.9219 57.0879 25.9102C57.0879 25.9062 57.0918 25.8887 57.0996 25.8574C57.1191 25.8184 57.1367 25.7812 57.1523 25.7461C57.168 25.7109 57.1816 25.6719 57.1934 25.6289C57.2324 25.5078 57.2676 25.3887 57.2988 25.2715C57.334 25.1543 57.3848 25.043 57.4512 24.9375V24.791C57.5215 24.6504 57.5703 24.502 57.5977 24.3457C57.6289 24.1895 57.666 24.0371 57.709 23.8887C57.7168 23.8457 57.7305 23.8027 57.75 23.7598C57.7734 23.7129 57.8008 23.6797 57.832 23.6602C57.8203 23.6367 57.8145 23.6133 57.8145 23.5898C57.8145 23.5586 57.8184 23.5312 57.8262 23.5078C57.8379 23.4805 57.8477 23.4531 57.8555 23.4258C57.8438 23.3984 57.8379 23.3633 57.8379 23.3203C57.8379 23.2656 57.8535 23.2148 57.8848 23.168C57.916 23.1172 57.9629 23.084 58.0254 23.0684C58.0645 23.0801 58.0977 23.0996 58.125 23.127C58.1523 23.1543 58.1777 23.1836 58.2012 23.2148C58.2285 23.2422 58.2559 23.2656 58.2832 23.2852C58.3145 23.3008 58.3535 23.3047 58.4004 23.2969C58.4316 23.3555 58.4531 23.418 58.4648 23.4844C58.4766 23.5469 58.4824 23.6113 58.4824 23.6777C58.4824 23.7676 58.4746 23.8613 58.459 23.959C58.4434 24.0527 58.4375 24.1484 58.4414 24.2461C58.4102 24.3086 58.3867 24.377 58.3711 24.4512C58.3594 24.5215 58.3477 24.5938 58.3359 24.668C58.3242 24.7422 58.3105 24.8145 58.2949 24.8848C58.2793 24.9551 58.252 25.0215 58.2129 25.084C58.2012 25.2598 58.1875 25.4316 58.1719 25.5996C58.1602 25.7676 58.1406 25.9355 58.1133 26.1035L58.0605 26.4375C58.0527 26.4648 58.0449 26.4961 58.0371 26.5312C58.0293 26.5625 58.0254 26.5898 58.0254 26.6133C58.0254 26.6367 58.0273 26.6621 58.0312 26.6895C58.0352 26.7129 58.0469 26.7305 58.0664 26.7422C58.0391 26.7812 58.0195 26.8281 58.0078 26.8828C57.9961 26.9375 57.9844 26.9961 57.9727 27.0586L57.9434 27.2402C57.9355 27.2988 57.9199 27.3516 57.8965 27.3984V27.4629C57.8965 27.6191 57.8691 27.7793 57.8145 27.9434V27.9727C57.8145 27.9922 57.8125 28.0098 57.8086 28.0254C57.8086 28.0371 57.8086 28.0527 57.8086 28.0723C57.8086 28.0996 57.8164 28.1211 57.832 28.1367C57.8008 28.2383 57.7715 28.3438 57.7441 28.4531C57.7168 28.5586 57.6973 28.668 57.6855 28.7812C57.6738 28.9336 57.6719 29.0898 57.6797 29.25C57.6875 29.4062 57.668 29.5586 57.6211 29.707C57.6445 29.7773 57.6602 29.8535 57.668 29.9355L57.6914 30.1816C57.6992 30.2637 57.7109 30.3418 57.7266 30.416C57.7461 30.4941 57.7812 30.5586 57.832 30.6094C57.8359 30.6172 57.8379 30.6289 57.8379 30.6445C57.8379 30.6758 57.8301 30.6992 57.8145 30.7148C57.8223 30.7539 57.8359 30.7871 57.8555 30.8145C57.875 30.8418 57.8945 30.8672 57.9141 30.8906C57.9336 30.918 57.9492 30.9473 57.9609 30.9785C57.9766 31.0098 57.9844 31.0488 57.9844 31.0957C58.0156 31.1387 58.0645 31.1719 58.1309 31.1953C58.1973 31.2188 58.2637 31.2422 58.3301 31.2656C58.4004 31.2891 58.4609 31.3184 58.5117 31.3535C58.5625 31.3926 58.5879 31.4473 58.5879 31.5176Z" fill="white"/>
</svg>
